<?xml version="1.0" encoding="UTF-8" ?>
<!-- Sure Cuts A Lot -->
<!DOCTYPE svg PUBLIC "-//W3C//DTD SVG 1.1//EN" "http://www.w3.org/Graphics/SVG/1.1/DTD/svg11.dtd">
<svg version="1.1" xmlns="http://www.w3.org/2000/svg" xmlns:xlink="http://www.w3.org/1999/xlink" xmlns:scal="http://www.craftedge.com/namespaces/surecutsalot" scal:dpi="300" x="0px" y="0px" width="9000px" height="3000px" viewBox="0 0 9000 3000" xml:space="preserve">
<g id="&lt;Merge&gt; (11) &lt;break&gt;">
<path id="&lt;Merge&gt;" style="fill-rule:evenodd;fill:#FF6600;stroke:#FF6600;stroke-width:0.75;" d="M 523.431 1434.13 C 486.026 1430.63 454.963 1416.63 430.026 1392.78 C 405.527 1369.38 390.214 1341.81 383.871 1310.1 C 381.246 1296.53 380.589 1269.85 382.558 1254.97 C 384.964 1236.6 497.838 598.73 500.244 589.105 C 511.838 544.918 536.994 505.762 574.618 473.169 C 613.555 439.263 655.992 420.013 701.492 415.638 C 709.148 414.982 817.865 414.763 1092.61 414.982 L 1473.23 415.201 L 1483.51 417.388 C 1506.26 421.763 1530.11 431.825 1546.51 444.075 C 1578.45 467.7 1600.54 502.262 1608.2 540.543 C 1610.61 553.449 1611.48 576.636 1609.95 591.292 C 1609.29 597.198 1602.51 638.104 1594.64 682.291 L 1580.42 762.572 L 1340.02 762.79 L 1099.39 763.009 L 1100.71 755.79 C 1108.36 712.478 1108.8 710.291 1108.14 701.76 C 1107.05 681.854 1097.42 664.791 1081.02 653.854 C 1061.55 640.729 1033.55 640.292 1009.05 652.323 C 998.551 657.573 990.457 663.698 981.051 673.541 C 971.645 683.166 964.864 694.104 961.145 705.478 C 957.426 716.635 884.583 1128.1 883.927 1142.1 C 883.49 1148.22 883.927 1153.04 884.802 1157.85 C 889.614 1180.38 907.771 1198.97 929.864 1204.22 C 939.926 1206.63 959.832 1205.53 970.332 1202.25 C 998.988 1193.07 1023.49 1169 1031.8 1141.88 C 1033.33 1137.07 1042.3 1089.82 1042.3 1086.76 C 1042.3 1086.32 1150.36 1086.1 1282.7 1086.1 C 1422.92 1086.1 1523.11 1086.32 1523.11 1086.76 C 1523.11 1090.26 1494.45 1249.5 1492.26 1258.69 C 1484.83 1288.66 1469.95 1318.41 1449.61 1343.78 C 1441.08 1354.28 1422.05 1373.31 1410.23 1382.72 C 1375.67 1410.5 1341.11 1426.25 1299.77 1433.03 C 1290.8 1434.56 1263.45 1434.78 910.614 1434.78 C 701.929 1434.78 527.588 1434.56 523.431 1434.13 zM 1898.91 1432.16 C 1898.7 1430.41 1861.07 1226.1 1815.35 978.256 C 1769.64 730.197 1727.64 502.262 1721.95 471.856 C 1716.26 441.232 1711.67 416.076 1711.67 415.638 C 1711.67 414.982 1817.76 414.763 1952.07 414.763 L 2192.26 414.763 L 2192.91 417.826 C 2193.13 419.357 2210.41 513.199 2231.19 626.292 C 2252.19 739.166 2275.16 863.633 2282.38 903.007 C 2289.6 942.382 2295.5 974.538 2295.72 974.756 C 2295.94 974.975 2296.38 974.975 2296.38 974.756 C 2296.6 974.538 2361.13 848.539 2439.44 694.541 L 2582.28 414.763 L 2728.84 414.763 C 2866.22 414.763 2875.18 414.763 2874.53 416.294 C 2874.09 417.607 2792.72 568.761 2399.63 1299.82 L 2327.22 1434.78 L 2113.29 1435 L 1899.57 1435.22 L 1898.91 1432.16 L 1898.91 1432.16 L 1898.91 1432.16 zM 2764.94 1433.03 C 2765.15 1431.72 2805.84 1202.25 2855.06 922.695 L 2944.53 414.763 L 3416.15 414.982 C 3859.55 415.201 3887.98 415.419 3895.42 416.951 C 3931.73 424.388 3956.45 437.294 3979.64 461.138 C 4003.7 486.075 4017.48 513.199 4022.95 546.887 C 4024.7 558.043 4024.92 583.417 4023.39 595.011 C 4021.86 606.167 3977.02 860.133 3975.27 867.57 C 3961.92 923.57 3924.73 974.319 3870.7 1009.76 C 3844.89 1026.6 3818.42 1037.32 3788.02 1043.22 L 3777.3 1045.41 L 3545.43 1045.85 L 3313.55 1046.29 L 3279.65 1238.57 C 3261.05 1344.44 3245.52 1431.94 3245.31 1433.03 L 3244.65 1435.22 L 3004.68 1435.22 L 2764.72 1435.22 L 2764.94 1433.03 L 2764.94 1433.03 zM 3448.08 815.508 C 3464.27 811.133 3478.27 802.821 3491.61 789.477 C 3507.58 773.946 3513.49 760.953 3518.74 731.509 C 3523.77 703.094 3523.11 693.141 3515.24 677.063 C 3509.77 665.907 3499.49 655.517 3488.33 650.157 C 3475.43 643.923 3470.4 643.354 3424.02 643.792 L 3384.43 644.01 L 3369.77 727.572 C 3361.68 773.509 3354.68 812.665 3354.46 814.633 L 3353.8 818.155 L 3397.12 817.827 C 3437.58 817.39 3440.87 817.28 3448.08 815.421 L 3448.08 815.508 zM 3945.08 1433.03 C 3945.3 1431.72 3985.76 1202.25 4035.2 922.695 L 4124.67 414.763 L 4596.07 414.982 L 5067.69 415.201 L 5077.97 417.388 C 5100.72 421.763 5124.56 431.825 5140.97 444.075 C 5172.91 467.7 5195 502.043 5202.66 540.543 C 5205.06 553.012 5205.94 577.292 5204.63 591.074 C 5203.31 602.011 5158.69 856.414 5155.84 868.445 C 5150.38 891.195 5138.13 920.07 5126.1 938.444 C 5108.6 964.913 5085.41 987.881 5056.53 1006.69 C 5050.63 1010.85 5044.94 1014.57 5044.06 1015.01 C 5042.75 1015.66 5042.75 1016.1 5045.16 1017.85 C 5051.28 1022.22 5069.66 1041.91 5074.47 1048.69 C 5083.44 1062.04 5090.44 1077.57 5094.81 1094.19 C 5101.16 1118.69 5101.38 1143.19 5096.13 1238.13 C 5095.03 1256.5 5093.94 1281.66 5093.28 1294.13 C 5092.85 1306.82 5091.75 1325.63 5091.31 1336.13 C 5089.78 1361.06 5089.78 1376.6 5091.31 1382.94 C 5093.28 1390.6 5098.97 1402.41 5104 1408.31 C 5108.81 1414.44 5116.47 1420.34 5124.56 1424.94 C 5127.63 1426.69 5130.47 1428.22 5130.69 1428.44 C 5130.91 1428.44 5130.25 1430.19 5129.38 1431.94 L 5127.85 1435.22 L 4898.82 1435 C 4640.26 1434.56 4665.41 1435.44 4647.91 1427.13 C 4640.26 1423.41 4638.07 1421.66 4630.63 1414.22 C 4621.23 1404.6 4617.07 1398.25 4613.35 1387.53 C 4609.2 1375.72 4608.32 1365.22 4610.07 1349.03 C 4610.95 1341.81 4616.19 1285.82 4621.88 1224.57 C 4627.35 1163.54 4632.38 1112.35 4632.6 1111.04 C 4632.82 1109.5 4632.6 1105.13 4631.94 1100.97 C 4628.88 1076.26 4611.16 1055.91 4586.45 1048.47 C 4579.66 1046.51 4577.48 1046.51 4537.45 1046.07 C 4514.48 1045.85 4495.23 1046.07 4494.79 1046.51 C 4494.35 1046.94 4478.82 1133.35 4460.45 1238.57 C 4441.85 1344 4426.32 1431.28 4426.1 1432.59 L 4425.67 1435.22 L 4185.26 1435.22 L 3944.64 1435.22 L 3945.08 1433.03 L 3945.08 1433.03 L 3945.08 1433.03 zM 4628.66 815.508 C 4639.16 812.446 4647.69 808.727 4656.44 803.04 C 4675.69 790.352 4689.48 772.853 4695.38 753.384 C 4697.57 746.603 4701.51 725.603 4703.04 712.697 C 4706.76 682.729 4687.51 654.073 4657.76 645.542 C 4652.94 644.229 4646.16 644.01 4608.76 643.792 L 4565.23 643.354 L 4550.13 729.541 C 4541.82 777.009 4535.04 816.383 4535.04 817.04 C 4535.04 817.915 4542.7 818.133 4578.13 817.915 C 4618.82 817.477 4621.88 817.258 4628.66 815.508 L 4628.66 815.508 L 4628.66 815.508 zM 5371.75 1434.13 C 5334.56 1430.63 5303.28 1416.63 5278.34 1392.78 C 5253.84 1369.38 5238.75 1341.81 5232.41 1310.1 C 5229.78 1297.85 5228.91 1271.38 5230.44 1258.25 C 5231.53 1249.94 5258.87 1091.57 5260.19 1087.63 C 5260.62 1086.1 5272.87 1086.1 5501.03 1086.1 L 5741.21 1086.1 L 5740.78 1088.07 C 5738.37 1099 5732.46 1135.1 5732.24 1142.1 C 5731.37 1160.25 5737.06 1175.35 5749.96 1188.25 C 5758.71 1196.79 5765.71 1200.72 5777.52 1203.78 C 5784.31 1205.53 5787.37 1205.75 5798.52 1205.32 C 5810.34 1204.88 5812.74 1204.44 5821.06 1201.82 C 5847.52 1192.85 5870.71 1170.32 5879.9 1144.94 C 5883.18 1135.54 5889.74 1098.79 5889.74 1089.38 C 5889.74 1076.91 5884.71 1069.04 5873.77 1064.22 C 5870.71 1062.69 5778.18 1040.38 5623.53 1003.85 C 5488.78 971.913 5374.15 944.351 5368.9 942.601 C 5322.09 927.07 5300.87 894.039 5304.37 842.196 C 5305.25 829.727 5344.62 604.417 5348.56 589.105 C 5360.15 544.918 5385.31 505.762 5422.94 473.169 C 5461.87 439.263 5504.31 420.013 5549.81 415.638 C 5557.68 414.982 5666.18 414.763 5941.15 414.982 L 6321.55 415.201 L 6331.83 417.388 C 6353.92 421.544 6376.46 430.95 6393.52 442.982 C 6403.8 450.2 6421.52 467.7 6428.95 477.981 C 6443.61 498.325 6452.58 519.324 6456.95 542.73 C 6458.92 553.887 6459.8 578.167 6458.27 591.292 C 6457.83 597.198 6450.83 638.104 6442.95 682.291 L 6428.74 762.572 L 6188.55 762.79 L 5948.37 763.009 L 5949.02 760.384 C 5949.24 759.072 5951.21 748.134 5953.18 736.322 C 5959.09 703.947 5958.65 693.885 5951.21 678.573 C 5943.55 662.385 5929.12 650.354 5912.05 645.76 C 5903.74 643.354 5886.02 643.354 5876.18 645.76 C 5858.68 649.698 5845.99 657.135 5831.34 671.791 C 5813.62 689.51 5809.24 699.572 5802.9 735.884 C 5798.31 761.04 5798.31 765.853 5802.68 773.946 C 5805.74 780.071 5810.77 784.446 5817.99 787.071 C 5820.84 788.165 5929.55 813.977 6059.71 844.602 C 6189.86 875.226 6301.42 901.695 6307.55 903.226 C 6331.61 909.351 6348.46 918.32 6361.36 931.663 C 6373.61 944.569 6379.74 956.6 6383.24 975.631 C 6384.99 985.256 6385.21 1006.69 6383.67 1017.41 C 6380.17 1040.16 6342.99 1248.85 6340.58 1258.69 C 6333.14 1288.66 6318.27 1318.41 6298.14 1343.78 C 6289.61 1354.28 6270.36 1373.31 6258.77 1382.72 C 6224.21 1410.28 6190.74 1425.59 6148.74 1433.03 C 6139.99 1434.56 6117.24 1434.78 5759.37 1434.78 C 5550.47 1434.78 5375.9 1434.56 5371.75 1434.13 L 5371.75 1434.13 L 5371.75 1434.13 z"/>
<path id="&lt;Merge&gt;" style="fill-rule:evenodd;fill:#000000;stroke:#000000;stroke-width:0.75;" d="M 8276.93 2058.87 C 8275.18 2058.43 8271.46 2058.21 8268.62 2058.43 C 8265.12 2058.87 8262.06 2058.43 8259.43 2057.56 C 8257.25 2056.68 8253.53 2056.02 8251.12 2056.02 C 8247.18 2056.02 8228.59 2050.56 8218.75 2046.62 C 8216.12 2045.52 8212.18 2044.21 8209.78 2043.99 C 8204.75 2042.9 8190.75 2035.9 8184.18 2030.87 C 8181.56 2028.9 8177.84 2026.71 8175.87 2026.28 C 8173.9 2025.62 8169.75 2022.78 8166.47 2020.15 C 8163.4 2017.53 8159.03 2014.24 8157.06 2012.71 C 8148.09 2007.03 8118.56 1975.53 8116.59 1969.62 C 8115.72 1967.65 8113.75 1964.15 8111.78 1961.74 C 8108.28 1957.59 8102.37 1946.65 8101.06 1942.06 C 8100.62 1940.74 8098.22 1935.28 8095.37 1929.59 C 8092.75 1923.9 8089.9 1917.34 8089.47 1915.15 C 8088.81 1912.75 8087.93 1910.34 8087.28 1909.68 C 8086.18 1908.37 8083.56 1891.75 8083.56 1886.5 C 8083.78 1884.31 8083.12 1880.59 8082.25 1878.62 C 8080.5 1873.15 8080.28 1828.09 8082.25 1823.5 C 8082.9 1821.75 8083.78 1816.06 8084.22 1811.03 C 8084.65 1805.34 8085.75 1799 8087.06 1794.84 C 8088.37 1790.9 8089.47 1787.4 8089.47 1786.75 C 8089.47 1786.31 8090.56 1783.25 8092.09 1780.18 C 8099.75 1764.22 8102.37 1758.09 8102.37 1756.34 C 8102.37 1755.47 8104.34 1751.75 8106.75 1748.25 C 8109.15 1744.75 8113.75 1738.18 8116.81 1733.37 C 8124.03 1722.65 8139.78 1704.72 8148.53 1697.72 C 8152.25 1694.65 8156.4 1690.72 8157.93 1689.19 C 8159.47 1687.44 8164.5 1683.94 8169.09 1681.09 C 8173.9 1678.25 8180.03 1674.31 8183.09 1672.34 C 8186.37 1670.15 8190.75 1667.75 8192.93 1666.65 C 8200.15 1663.37 8210 1659.22 8213.5 1658.12 C 8215.25 1657.69 8217.65 1656.59 8218.75 1655.94 C 8219.62 1655.06 8222.25 1654.19 8224.21 1653.53 C 8226.4 1653.09 8230.12 1651.78 8232.75 1650.9 C 8237.56 1648.94 8252.43 1646.97 8261.18 1647.19 C 8264.25 1647.19 8267.96 1646.53 8269.71 1645.87 C 8273.43 1644.34 8300.34 1644.56 8305.15 1646.09 C 8306.9 1646.53 8314.56 1647.4 8322.21 1648.06 C 8333.59 1648.94 8337.53 1649.59 8342.78 1651.78 C 8346.49 1653.09 8351.96 1655.06 8355.03 1655.94 C 8358.09 1656.81 8362.24 1658.56 8364.21 1659.65 C 8366.4 1660.75 8370.99 1662.72 8374.49 1663.81 C 8378.65 1664.9 8383.46 1667.53 8387.4 1670.15 C 8394.4 1675.19 8403.15 1680.65 8407.09 1682.62 C 8408.62 1683.28 8412.56 1686.56 8415.62 1689.62 C 8418.68 1692.69 8423.27 1696.62 8425.68 1698.37 C 8428.09 1699.9 8431.81 1703.4 8433.99 1706.25 C 8436.18 1708.87 8440.12 1713.03 8442.52 1715.22 C 8445.15 1717.62 8447.99 1721.34 8449.31 1723.53 C 8450.4 1725.94 8452.37 1728.78 8453.46 1729.65 C 8456.74 1732.5 8462.21 1741.03 8468.12 1752.18 C 8480.81 1776.03 8483.43 1782.37 8483.43 1788.72 C 8483.43 1790.47 8484.3 1793.97 8485.62 1796.37 C 8487.15 1798.78 8488.02 1802.28 8488.02 1804.47 C 8488.02 1806.43 8489.12 1811.47 8490.43 1815.18 C 8491.74 1819.78 8492.4 1823.5 8492.18 1825.47 C 8491.74 1827.22 8492.18 1830.5 8493.05 1832.68 C 8495.02 1837.93 8495.24 1863.53 8493.49 1866.81 C 8492.84 1867.9 8492.18 1872.06 8492.18 1875.78 C 8491.96 1880.37 8490.87 1886.71 8489.12 1893.5 C 8486.27 1904 8483.21 1916.03 8481.24 1924.34 C 8480.59 1926.53 8479.27 1929.59 8478.18 1931.34 C 8477.09 1933.09 8475.56 1935.93 8474.9 1938.12 C 8474.24 1940.09 8471.84 1944.24 8469.65 1947.53 C 8467.46 1950.81 8465.49 1954.53 8465.27 1955.84 C 8464.62 1958.03 8458.93 1966.78 8445.81 1984.93 C 8444.71 1986.46 8441.21 1989.74 8438.37 1992.15 C 8435.31 1994.56 8431.37 1998.49 8429.84 2000.9 C 8425.68 2006.59 8405.99 2021.46 8393.52 2028.46 C 8390.02 2030.21 8386.09 2032.84 8384.77 2033.93 C 8380.62 2037.21 8368.59 2042.68 8358.74 2045.31 C 8353.93 2046.62 8347.81 2048.59 8344.96 2049.9 C 8342.34 2051.21 8339.28 2052.31 8338.18 2052.31 C 8337.09 2052.31 8334.68 2053.18 8332.49 2054.06 C 8330.53 2055.15 8326.81 2056.02 8324.18 2056.02 C 8321.56 2056.02 8317.4 2056.68 8314.99 2057.34 C 8312.37 2058.21 8307.56 2058.87 8304.28 2058.65 C 8300.78 2058.65 8293.99 2058.87 8289.18 2059.09 C 8284.37 2059.52 8278.9 2059.31 8276.93 2058.87 L 8276.93 2058.87 L 8276.93 2058.87 zM 7941.16 1909.46 C 7944.44 1907.93 7950.12 1901.81 7950.78 1898.75 C 7951.22 1897.43 7951.22 1895.25 7950.78 1894.15 C 7950.12 1891.09 7945.53 1885.84 7941.37 1883.43 L 7938.31 1881.46 L 7214.48 1881.46 C 6544.02 1881.46 6490.64 1881.68 6488.24 1883 C 6485.39 1884.53 6478.83 1893.93 6478.83 1896.12 C 6478.83 1900.71 6486.49 1910.12 6490.64 1910.56 C 6492.17 1910.78 6818.54 1910.78 7216.01 1910.56 C 7749.53 1910.56 7939.19 1910.12 7941.16 1909.25 L 7941.16 1909.46 zM 6832.54 1736.87 C 6845.67 1729.65 6846.54 1719.59 6834.51 1713.47 L 6829.04 1710.62 L 6655.36 1710.62 C 6482.55 1710.62 6481.89 1710.62 6479.49 1712.59 C 6478.17 1713.47 6475.77 1716.75 6474.24 1719.37 C 6471.61 1723.75 6471.39 1724.84 6472.49 1726.59 C 6475.11 1732.06 6479.27 1737.09 6481.67 1737.97 C 6483.42 1738.84 6528.05 1739.06 6656.67 1738.84 C 6826.64 1738.62 6829.04 1738.62 6832.54 1736.87 L 6832.54 1736.87 zM 7993 1737.31 C 7994.53 1736.65 7997.15 1734.25 7999.12 1732.06 C 8005.47 1725.06 8003.28 1717.19 7993.87 1712.59 L 7989.72 1710.62 L 7815.59 1710.84 L 7641.25 1711.06 L 7638.41 1713.69 C 7636.88 1715.22 7634.91 1718.28 7634.03 1720.47 C 7632.72 1724.4 7632.72 1724.84 7634.03 1728.56 C 7635.78 1733.37 7639.94 1737.53 7643.44 1738.4 C 7644.75 1738.84 7723.28 1739.06 7818.22 1738.84 C 7966.53 1738.62 7990.81 1738.4 7993 1737.31 L 7993 1737.31 zM 7970.25 1659.87 C 7972.44 1659.22 7977.25 1657.9 7981.19 1657.03 C 7987.09 1655.72 7989.72 1654.4 7994.09 1651.12 C 7997.37 1648.72 8000.44 1645.44 8001.09 1643.9 C 8002.62 1640.4 8011.37 1612.84 8018.15 1589.66 C 8018.81 1587.03 8019.9 1577.84 8020.34 1568.66 C 8021.22 1550.28 8021 1549.41 8014.65 1546.12 C 8011.81 1544.59 8008.53 1544.37 7980.53 1544.37 C 7953.84 1544.59 7948.81 1544.81 7942.03 1546.34 C 7937.66 1547.22 7933.06 1548.09 7931.53 1548.09 C 7928.25 1548.09 7924.53 1551.16 7923.22 1554.87 C 7920.81 1562.31 7920.37 1576.31 7921.03 1611.09 C 7921.47 1645.44 7921.69 1646.75 7923.66 1650.9 C 7926.28 1656.15 7928.25 1657.9 7933.94 1660.31 C 7938.09 1661.84 7940.28 1662.06 7952.53 1661.62 C 7961.06 1661.4 7968.06 1660.75 7970.25 1659.87 L 7970.25 1659.87 zM 7898.5 1273.57 C 7919.94 1270.28 7921.03 1270.07 7923.87 1265.03 C 7925.84 1261.75 7929.12 1249.94 7928.47 1248.63 C 7927.81 1247.53 7924.97 1222.82 7924.09 1210.13 C 7923.22 1196.57 7921.47 1180.82 7920.37 1175.13 C 7919.94 1172.5 7919.5 1167.91 7919.5 1164.85 C 7919.72 1153.91 7915.56 1106.66 7913.81 1100.32 C 7913.37 1098.13 7913.16 1095.72 7913.37 1095.07 C 7913.81 1094.19 7913.59 1091.35 7912.94 1088.51 C 7912.28 1085.88 7911.41 1080.41 7910.97 1076.26 C 7908.78 1053.07 7907.25 1047.38 7902.66 1042.35 C 7900.25 1039.72 7899.37 1039.29 7895.44 1039.29 C 7893.03 1039.29 7889.09 1038.85 7886.69 1038.41 C 7884.5 1037.76 7879.03 1037.1 7874.66 1036.44 C 7870.28 1036.01 7863.28 1035.13 7859.12 1034.69 C 7849.5 1033.6 7843.38 1032.94 7832.66 1031.85 C 7827.63 1031.19 7819.31 1030.32 7813.84 1029.44 C 7808.59 1028.79 7799.84 1027.69 7794.81 1027.26 C 7789.56 1026.6 7781.69 1025.51 7777.09 1024.85 C 7772.5 1023.97 7761.56 1022.66 7752.81 1022.01 C 7744.06 1021.35 7732.91 1020.26 7728.1 1019.6 C 7720.44 1018.72 7718.25 1018.72 7713.22 1020.04 C 7709.72 1020.91 7704.91 1021.79 7702.28 1022.01 C 7696.38 1022.88 7694.41 1024.63 7687.85 1034.47 L 7683.47 1041.26 L 7682.81 1054.82 C 7681.72 1074.51 7682.81 1192.19 7684.13 1195.69 C 7684.56 1197.22 7685.44 1204.66 7686.1 1212.1 C 7686.97 1223.03 7687.41 1226.32 7689.16 1228.94 C 7691.78 1233.53 7706 1246.44 7709.28 1247.1 C 7710.6 1247.53 7713.88 1248.85 7716.5 1249.94 C 7719.13 1251.25 7723.28 1252.35 7725.69 1252.78 C 7728.31 1253 7735.53 1254.97 7742.1 1256.94 C 7748.44 1258.91 7755.22 1260.88 7756.97 1261.32 C 7758.72 1261.75 7764.63 1263.5 7770.09 1265.03 C 7779.72 1267.88 7783.22 1268.32 7816.69 1270.94 C 7823.69 1271.38 7832.22 1272.25 7835.94 1272.69 C 7839.44 1273.13 7846.66 1273.57 7851.69 1273.78 C 7856.94 1273.78 7863.5 1274.22 7866.78 1274.66 C 7876.84 1275.75 7886.03 1275.53 7898.5 1273.57 L 7898.5 1273.57 L 7898.5 1273.57 zM 7994.09 1271.82 C 7998.47 1271.38 8009.19 1271.6 8017.72 1272.03 C 8039.15 1273.35 8046.59 1272.03 8056.44 1265.69 C 8062.12 1261.97 8062.56 1260.66 8061.9 1249.5 C 8061.47 1242.94 8061.03 1240.97 8058.4 1236.6 C 8056.87 1233.75 8054.47 1227.63 8052.94 1222.82 C 8049.87 1212.53 8046.81 1205.75 8044.62 1203.13 C 8042.65 1201.16 8035 1186.29 8033.9 1182.13 C 8033.03 1179.94 8029.53 1173.6 8025.15 1167.47 C 8024.06 1165.72 8022.31 1162.22 8021.44 1159.38 C 8020.34 1156.75 8017.06 1150.19 8014.22 1144.72 C 8004.37 1126.79 8003.72 1125.04 8001.53 1118.47 C 8000.44 1114.75 7998.69 1110.16 7997.37 1108.41 C 7994.75 1104.25 7986.65 1086.54 7986.65 1084.79 C 7986.65 1084.13 7984.69 1080.63 7982.28 1076.91 C 7979.87 1073.41 7976.15 1067.94 7974.19 1064.88 C 7965 1051.32 7957.78 1045.63 7950.12 1045.63 C 7945.97 1045.63 7940.72 1049.35 7938.75 1053.72 C 7937 1057.01 7937.44 1065.76 7939.19 1071.88 C 7939.84 1073.63 7940.5 1077.35 7940.94 1080.41 C 7941.37 1083.26 7942.25 1089.16 7943.12 1093.54 C 7946.62 1112.35 7948.59 1125.91 7949.91 1142.1 C 7951.66 1165.5 7952.09 1169.44 7952.75 1170.97 C 7952.97 1171.85 7953.62 1175.79 7954.06 1179.94 C 7955.81 1195.25 7956.69 1201.82 7957.34 1202.91 C 7957.78 1203.57 7958.44 1208.6 7958.87 1213.85 C 7959.31 1219.32 7959.97 1228.72 7960.4 1234.85 C 7961.06 1241.19 7961.72 1249.72 7961.94 1254.1 C 7962.81 1264.6 7964.78 1268.53 7970.03 1270.07 C 7972.22 1270.5 7975.06 1271.38 7976.37 1271.82 C 7979.22 1272.69 7984.03 1272.69 7994.09 1271.82 L 7994.09 1271.82 L 7994.09 1271.82 zM 7281.63 837.383 C 7284.48 835.852 7290.16 831.914 7294.1 828.414 C 7300.01 823.383 7301.54 821.415 7303.94 816.165 L 7306.57 810.04 L 7306.35 768.915 C 7306.13 746.384 7305.91 716.197 7305.69 701.978 L 7305.26 675.948 L 7302.85 673.541 C 7301.76 672.01 7298.04 667.635 7295.19 663.479 C 7288.63 654.073 7276.82 643.135 7271.79 641.604 C 7269.82 640.948 7264.35 638.323 7259.54 635.698 C 7247.94 629.573 7240.73 626.729 7231.98 625.198 C 7227.82 624.542 7224.1 623.448 7223.23 622.792 C 7222.57 622.136 7218.85 621.042 7215.13 619.948 C 7211.41 619.073 7202.88 616.448 7195.88 614.042 C 7188.88 611.855 7179.04 609.011 7174.01 608.136 C 7164.16 606.167 7146.66 600.48 7137.91 596.324 C 7135.07 595.011 7131.57 593.917 7130.04 593.917 C 7126.54 593.917 7116.7 590.417 7085.63 578.167 C 7083.45 577.292 7079.29 576.199 7076.45 575.761 C 7073.6 575.543 7066.38 574.011 7060.48 572.918 C 7047.57 569.855 7042.32 570.293 7031.38 574.449 C 7025.26 576.855 7023.29 578.386 7020.01 582.105 C 7017.82 584.73 7014.1 588.667 7011.7 591.292 C 7008.85 594.136 7007.1 596.98 7006.23 599.823 C 7005.79 602.011 7004.26 605.73 7002.95 608.355 C 7001.2 611.855 7000.76 613.823 7001.2 616.667 C 7001.42 618.854 7002.07 625.198 7002.51 630.886 C 7002.95 636.573 7003.6 642.26 7004.04 643.354 C 7004.48 645.542 7004.92 650.792 7005.79 668.291 C 7006.01 671.354 7006.67 678.135 7007.32 683.604 C 7007.76 689.072 7008.64 696.729 7009.07 700.885 C 7009.29 705.041 7010.17 708.978 7010.6 709.635 C 7011.04 710.51 7011.7 714.666 7012.14 719.041 C 7013.67 735.884 7014.32 740.041 7014.98 741.353 C 7015.42 742.009 7016.29 746.384 7016.73 751.197 C 7017.82 761.915 7019.13 771.103 7020.23 778.759 C 7020.88 782.259 7021.76 788.821 7022.2 793.415 C 7023.51 807.415 7024.38 809.165 7031.82 816.602 C 7042.32 826.665 7047.13 830.383 7056.32 834.977 C 7063.76 838.477 7065.51 839.133 7073.17 839.571 C 7077.76 839.789 7125.45 840.008 7179.04 840.008 L 7276.6 840.008 L 7281.63 837.383 L 7281.63 837.383 L 7281.63 837.383 zM 5625.06 2064.77 C 5623.53 2063.68 5621.78 2063.46 5617.4 2063.9 C 5612.59 2064.34 5610.84 2064.12 5608 2062.81 C 5605.59 2061.49 5601.43 2060.84 5595.31 2060.4 C 5589.84 2059.96 5584.15 2058.87 5581.53 2057.77 C 5578.9 2056.9 5575.84 2056.02 5574.75 2056.02 C 5573.65 2056.02 5571.03 2055.15 5569.06 2054.06 C 5562.93 2050.77 5546.75 2044.21 5543.03 2043.56 C 5541.06 2043.12 5537.12 2040.93 5533.4 2037.87 C 5529.9 2035.03 5525.31 2031.96 5523.12 2030.87 C 5516.78 2027.59 5503.22 2017.74 5500.81 2014.46 C 5499.5 2012.71 5496.43 2010.09 5494.03 2008.56 C 5489 2005.28 5485.72 2001.99 5482 1996.53 C 5480.47 1994.56 5478.28 1991.71 5476.75 1990.62 C 5473.03 1987.78 5452.47 1956.49 5450.06 1950.15 C 5448.09 1944.9 5445.9 1939.87 5439.56 1926.31 C 5437.37 1921.93 5436.06 1917.12 5434.97 1908.81 C 5434.09 1902.46 5433 1896.78 5432.56 1896.34 C 5431.03 1893.71 5430.15 1881.25 5429.72 1858.5 C 5429.28 1835.09 5429.5 1831.37 5432.34 1820.22 C 5432.78 1818.25 5433.65 1813.43 5434.09 1809.5 C 5435.4 1799.87 5440 1786.31 5445.69 1773.84 C 5448.53 1768.15 5451.15 1761.81 5451.81 1760.06 C 5452.25 1758.31 5454.65 1754.37 5457.06 1751.31 C 5459.25 1748.25 5463.18 1742.78 5465.37 1739.06 C 5467.78 1735.56 5471.28 1730.97 5473.25 1728.78 C 5475.22 1726.81 5478.28 1722.87 5480.03 1720.47 C 5486.37 1711.72 5517 1685.47 5525.53 1681.53 C 5529.9 1679.34 5543.25 1672.12 5551.12 1667.53 C 5553.75 1666 5558.34 1664.25 5561.62 1663.37 C 5564.9 1662.72 5569.93 1661.4 5572.56 1660.31 C 5575.18 1659.22 5581.53 1657.47 5586.78 1655.94 C 5591.81 1654.62 5598.15 1653.09 5600.78 1652.22 C 5603.4 1651.56 5607.12 1651.34 5609.31 1651.56 C 5611.93 1651.78 5614.78 1651.34 5617.18 1650.47 C 5622.21 1648.5 5647.37 1648.28 5652.18 1650.47 C 5654.15 1651.12 5657.65 1651.78 5660.28 1651.78 C 5663.12 1651.56 5666.4 1652 5667.71 1652.65 C 5669.24 1653.09 5671.65 1653.75 5673.18 1653.75 C 5676.03 1653.75 5689.81 1657.69 5699.21 1660.97 C 5702.06 1662.06 5705.56 1662.94 5707.09 1662.94 C 5710.59 1662.94 5728.31 1671.47 5734.21 1675.84 C 5736.84 1677.81 5740.56 1680 5742.74 1680.65 C 5746.46 1681.75 5771.18 1700.56 5779.93 1709.31 C 5787.81 1716.97 5796.56 1727.25 5803.56 1737.31 C 5807.27 1742.34 5810.77 1747.15 5811.65 1747.81 C 5812.52 1748.47 5814.06 1751.53 5815.15 1754.37 C 5816.02 1757.22 5818.65 1762.47 5820.62 1765.75 C 5822.81 1769.03 5824.34 1772.31 5824.34 1772.97 C 5824.34 1773.62 5825.87 1776.9 5827.62 1779.97 C 5829.37 1783.47 5830.9 1787.84 5831.34 1790.9 C 5831.77 1793.75 5833.09 1799 5834.18 1802.5 C 5835.49 1806.22 5836.81 1811.47 5837.02 1814.31 C 5837.46 1817.15 5838.56 1821.31 5839.43 1823.93 C 5840.52 1826.78 5840.96 1829.62 5840.74 1831.37 C 5840.31 1833.12 5840.52 1836.4 5841.18 1838.59 C 5842.93 1844.28 5842.93 1869.65 5841.4 1874.9 C 5840.74 1877.31 5840.31 1880.81 5840.74 1883.43 C 5841.18 1886.5 5840.74 1888.9 5839.43 1892.4 C 5838.34 1894.81 5837.24 1898.96 5837.02 1901.59 C 5836.59 1904.21 5835.71 1907.71 5834.84 1909.46 C 5834.18 1911.21 5832.65 1917.12 5831.34 1922.59 C 5829.59 1930.68 5827.84 1935.06 5821.06 1948.18 C 5811.43 1967.21 5808.59 1972.03 5803.56 1977.49 C 5801.59 1979.9 5798.96 1983.84 5797.65 1986.24 C 5796.34 1988.87 5793.49 1991.93 5791.09 1993.9 C 5788.46 1995.87 5784.74 1999.59 5782.56 2002.43 C 5777.96 2008.12 5762.21 2021.68 5752.81 2027.59 C 5747.34 2031.09 5735.09 2039.18 5730.93 2041.81 C 5729.18 2042.9 5726.99 2043.99 5725.9 2043.99 C 5724.81 2043.99 5721.09 2045.31 5717.37 2046.84 C 5694.18 2057.12 5682.15 2060.62 5672.31 2060.62 C 5670.12 2060.62 5667.06 2061.49 5665.31 2062.37 C 5663.12 2063.68 5660.28 2063.9 5653.5 2063.9 C 5647.37 2063.9 5644.75 2064.34 5644.31 2065.21 C 5643.87 2066.96 5627.46 2066.74 5625.06 2064.77 L 5625.06 2064.77 L 5625.06 2064.77 zM 5349.22 1978.37 C 5347.25 1977.71 5344.62 1975.53 5342 1972.03 L 5337.84 1966.99 L 5338.5 1916.9 C 5338.72 1889.56 5339.37 1852.81 5339.59 1835.31 C 5340.69 1790.47 5340.25 1741.9 5338.94 1736.87 C 5337.84 1733.37 5337.41 1732.72 5331.72 1730.09 C 5325.16 1727.03 5321.22 1722.65 5319.25 1716.31 C 5318.37 1713.9 5318.16 1704.28 5318.59 1679.56 C 5319.25 1641.72 5318.37 1645 5327.34 1639.09 L 5331.94 1636.03 L 5345.94 1636.9 C 5354.25 1637.56 5363.65 1637.78 5369.12 1637.34 C 5374.37 1636.9 5382.69 1636.47 5387.5 1636.47 C 5396.47 1636.47 5396.69 1636.25 5399.75 1633.4 C 5401.5 1631.87 5405.22 1628.81 5408.06 1626.84 C 5410.9 1624.65 5414.4 1621.59 5415.5 1619.84 C 5419.65 1614.16 5438.69 1595.34 5448.09 1587.91 C 5453.34 1583.75 5461.22 1577.19 5465.59 1573.25 C 5470.18 1569.31 5474.78 1565.81 5475.87 1565.59 C 5479.15 1564.5 5478.28 1563.41 5473.68 1562.75 C 5471.28 1562.53 4570.48 1562.09 3471.71 1562.09 C 1718.01 1562.09 1473.45 1562.31 1468.2 1563.62 C 1464.48 1564.5 1460.55 1564.72 1456.83 1564.28 C 1447.64 1563.41 1448.51 1556.62 1448.08 1644.56 L 1447.86 1720.9 L 1443.92 1724.84 L 1439.98 1728.78 L 1417.89 1729.22 C 1405.42 1729.22 1391.86 1729 1386.83 1728.34 C 1382.01 1727.9 1372.39 1727.03 1365.61 1726.59 C 1354.45 1725.94 1352.92 1725.72 1347.23 1722.87 C 1337.61 1717.84 1325.14 1708 1321.86 1702.75 C 1320.11 1700.12 1317.92 1697.06 1316.61 1695.97 C 1306.98 1686.56 1303.92 1683.5 1301.95 1680.87 C 1300.86 1679.34 1299.33 1678.03 1298.45 1678.03 C 1297.8 1678.03 1293.42 1674.53 1288.83 1670.15 C 1284.23 1666 1278.55 1661.19 1276.14 1659.65 C 1273.73 1658.12 1269.8 1655.72 1267.39 1654.19 C 1264.98 1652.65 1261.49 1650.25 1259.74 1648.72 C 1257.99 1647.19 1253.39 1644.78 1249.67 1643.25 C 1245.95 1641.72 1238.08 1637.78 1232.39 1634.5 C 1223.2 1629.25 1221.02 1628.37 1217.08 1628.37 C 1214.02 1628.37 1211.17 1627.72 1208.33 1626.19 C 1205.92 1625.09 1202.64 1623.78 1200.89 1623.34 C 1199.14 1622.9 1194.77 1621.59 1191.05 1620.5 C 1187.33 1619.19 1183.61 1618.09 1182.52 1618.09 C 1181.42 1618.09 1177.92 1617.22 1174.64 1616.34 C 1169.17 1614.37 1166.55 1614.37 1133.74 1614.37 C 1100.27 1614.37 1098.52 1614.37 1093.71 1616.34 C 1091.08 1617.22 1088.46 1618.09 1088.24 1617.87 C 1087.8 1617.66 1085.83 1617.87 1083.86 1618.31 C 1081.67 1618.75 1078.17 1619.62 1075.99 1620.06 C 1073.58 1620.5 1068.11 1622.25 1063.74 1624.22 C 1059.36 1625.97 1053.68 1627.94 1051.05 1628.15 C 1044.49 1628.81 1037.71 1631.22 1033.33 1634.06 C 1031.14 1635.59 1025.02 1638.87 1019.55 1641.5 C 1010.8 1645.65 1003.58 1650.03 995.269 1656.59 C 993.738 1657.9 990.895 1659.65 988.926 1660.75 C 984.332 1663.59 979.301 1667.53 970.551 1675.62 C 966.614 1679.34 962.02 1683.06 960.489 1684.37 C 958.739 1685.47 956.551 1687.87 955.457 1689.84 C 954.145 1691.81 949.989 1696.62 946.27 1700.78 C 937.958 1709.75 932.051 1716.97 932.051 1718.5 C 932.051 1719.15 930.301 1721.78 928.114 1724.19 C 924.177 1728.56 918.927 1739.5 916.302 1748.9 C 915.645 1751.09 913.895 1754.81 912.583 1756.78 C 911.052 1758.97 908.864 1763.78 907.333 1767.5 C 903.833 1777.56 902.083 1779.75 895.521 1783.25 L 889.614 1786.53 L 881.958 1783.47 C 870.802 1779.09 867.521 1775.15 860.521 1757.65 C 859.427 1755.25 857.896 1750.43 856.802 1746.93 C 854.615 1738.84 852.427 1734.68 846.521 1726.81 C 843.896 1723.31 841.271 1719.15 841.053 1717.62 C 840.396 1714.12 839.303 1712.59 834.928 1709.31 C 832.959 1708 830.334 1704.94 829.021 1702.75 C 827.709 1700.78 824.647 1696.84 822.022 1694.44 C 819.397 1691.81 815.459 1687.65 813.49 1684.81 C 811.522 1682.19 807.584 1678.47 804.74 1676.72 C 802.116 1674.97 798.178 1671.47 796.209 1669.28 C 794.459 1666.87 790.522 1663.59 787.678 1662.06 C 785.053 1660.31 780.241 1657.03 777.178 1654.62 C 774.116 1652 766.241 1646.97 759.679 1643.47 C 753.116 1639.97 745.897 1635.81 743.71 1634.5 C 738.46 1631.22 730.366 1628.15 721.835 1626.19 C 718.117 1625.31 711.773 1623.34 708.054 1621.81 C 704.117 1620.28 698.867 1618.53 696.461 1618.09 C 693.836 1617.66 689.461 1616.56 686.617 1615.69 C 676.555 1612.84 638.274 1611.75 611.368 1613.5 C 595.618 1614.59 588.618 1615.69 582.493 1617.66 C 579.868 1618.53 572.868 1620.94 566.962 1623.12 C 561.056 1625.09 554.275 1627.06 551.869 1627.5 C 547.494 1628.37 539.181 1632.09 536.337 1634.5 C 535.462 1635.15 529.338 1638.22 522.775 1641.5 C 515.994 1644.78 509.213 1648.72 507.244 1650.25 C 505.494 1651.78 500.682 1655.28 496.525 1657.9 C 492.369 1660.53 488.432 1663.37 487.776 1664.47 C 486.901 1665.34 483.401 1668.4 479.682 1671.25 C 471.369 1678.03 454.745 1694.65 452.776 1698.15 C 451.026 1701.65 441.839 1710.4 436.37 1713.69 C 430.901 1717.19 421.495 1722.65 418.651 1724.19 C 416.901 1725.06 412.308 1725.5 403.12 1725.5 C 395.683 1725.5 389.12 1725.72 388.245 1726.15 C 387.37 1726.37 386.058 1728.34 384.964 1730.31 C 383.214 1733.81 382.996 1736.22 383.214 1849.31 L 383.214 1964.81 L 379.714 1968.96 C 377.527 1971.59 374.464 1973.99 371.621 1975.31 C 359.808 1980.78 352.371 1978.81 345.808 1969.18 L 341.871 1963.28 L 342.965 1888.03 C 344.933 1767.72 344.933 1742.78 342.527 1732.28 C 342.09 1730.75 340.34 1729.43 336.621 1727.9 C 333.777 1726.59 330.277 1724.62 329.184 1723.31 C 324.152 1718.72 324.371 1722 324.371 1640.4 C 324.371 1569.09 324.152 1564.5 322.621 1563.19 C 321.528 1562.31 318.903 1562.09 312.559 1562.53 C 305.121 1563.19 304.028 1562.97 302.059 1561.44 L 300.09 1559.69 L 300.09 1514.63 C 300.09 1476.78 300.309 1469.34 301.403 1468.25 C 303.371 1466.28 6525.86 1466.28 6527.83 1468.25 C 6529.14 1469.34 6529.36 1477 6529.36 1515.28 C 6529.36 1556.41 6529.14 1561 6527.83 1561.66 C 6526.95 1561.87 6475.33 1562.31 6412.99 1562.31 C 6332.05 1562.53 6299.46 1562.97 6298.58 1563.62 C 6297.71 1564.72 6299.24 1564.94 6315.64 1566.25 C 6326.58 1567.34 6344.3 1571.06 6359.39 1575.87 C 6366.83 1578.06 6374.71 1580.47 6377.11 1581.34 C 6379.3 1582 6384.33 1583.09 6388.27 1583.75 C 6396.36 1584.84 6408.39 1588.34 6423.7 1593.81 C 6429.61 1595.78 6437.27 1597.75 6440.55 1598.19 C 6448.42 1599.06 6461.77 1602.56 6476.42 1608.03 C 6479.05 1608.91 6482.33 1610 6484.08 1610.22 C 6485.61 1610.66 6489.55 1611.75 6492.83 1613.06 C 6503.77 1616.78 6513.39 1618.09 6537.67 1618.75 C 6550.14 1619.19 6561.52 1619.62 6562.61 1620.06 C 6563.92 1620.5 6588.2 1620.94 6616.86 1620.94 C 6645.51 1620.94 6673.73 1621.37 6679.64 1621.81 C 6685.55 1622.47 6696.26 1622.9 6703.48 1622.9 C 6710.48 1622.9 6723.83 1623.34 6732.79 1624 C 6741.76 1624.65 6750.73 1625.09 6752.92 1624.87 C 6759.26 1624.65 6778.29 1627.72 6788.14 1630.56 C 6790.54 1631.22 6792.95 1633.19 6795.79 1636.47 C 6802.14 1643.9 6806.73 1645.22 6824.45 1645.22 C 6833.42 1645.22 6840.42 1644.78 6844.14 1643.9 C 6847.42 1643.25 6851.57 1642.37 6853.54 1641.94 C 6858.79 1641.06 6859.45 1639.09 6861.42 1615.91 C 6861.86 1611.31 6862.73 1606.5 6863.17 1605.19 C 6863.82 1603.66 6863.82 1600.81 6863.39 1597.09 C 6862.95 1594.03 6862.29 1582.66 6862.07 1571.72 C 6861.42 1552.25 6861.2 1551.59 6859.01 1548.97 C 6854.42 1543.5 6857.7 1543.72 6780.48 1542.84 C 6741.11 1542.41 6703.05 1542.19 6695.83 1542.41 C 6681.39 1542.62 6678.33 1541.97 6674.39 1537.81 C 6671.76 1535.19 6671.76 1534.53 6671.55 1525.56 C 6670.89 1485.09 6669.8 1429.75 6669.58 1423.63 C 6669.36 1419.47 6668.92 1327.6 6668.92 1219.53 C 6668.7 1111.47 6668.48 993.569 6668.48 957.694 L 6668.26 892.289 L 6671.76 889.008 L 6675.48 885.945 L 6716.39 886.164 C 6739.14 886.164 6758.83 886.601 6760.36 886.82 C 6761.89 887.039 6780.48 887.476 6801.92 887.914 L 6840.64 888.57 L 6847.64 892.507 C 6856.17 897.539 6858.57 897.539 6861.2 892.07 C 6863.61 887.258 6862.95 882.664 6859.01 875.883 C 6856.61 871.508 6850.7 865.602 6849.17 865.602 C 6848.51 865.602 6846.76 864.945 6845.23 864.289 C 6843.7 863.414 6839.54 861.664 6836.04 860.133 L 6829.48 857.508 L 6764.95 856.852 L 6700.64 856.195 L 6694.73 853.352 C 6687.51 849.852 6683.14 845.258 6680.73 838.258 L 6678.76 833.008 L 6680.51 823.383 C 6681.61 818.133 6682.26 812.227 6682.26 810.477 C 6682.26 808.508 6682.92 805.227 6683.8 803.477 C 6684.45 801.509 6685.33 795.602 6685.55 790.571 C 6685.98 785.54 6687.08 778.759 6687.95 775.696 C 6688.83 772.634 6689.92 767.384 6690.36 764.321 C 6690.58 761.259 6691.45 756.884 6692.11 754.478 C 6692.98 752.29 6693.86 745.072 6694.51 738.509 C 6694.95 731.947 6696.05 724.728 6696.92 722.103 C 6697.58 719.697 6698.67 714.01 6699.11 709.853 C 6699.76 705.478 6700.86 700.229 6701.51 698.26 C 6702.39 696.291 6703.26 691.697 6703.92 687.979 C 6704.36 684.26 6705.67 678.791 6706.33 675.729 C 6707.86 670.041 6708.73 664.354 6710.48 649.917 C 6710.92 645.542 6712.23 637.667 6713.33 632.198 C 6714.42 626.948 6715.73 619.511 6716.39 616.011 C 6718.36 605.073 6721.42 589.324 6723.61 581.011 C 6725.58 572.699 6728.2 553.449 6728.64 544.48 C 6728.86 538.355 6731.04 530.043 6733.45 526.762 C 6734.54 525.449 6737.61 523.699 6741.33 522.387 C 6746.36 520.418 6748.54 520.199 6754.45 520.637 C 6759.7 521.074 6762.54 520.856 6765.17 519.762 C 6766.92 519.106 6770.86 518.449 6773.7 518.231 C 6779.83 518.231 6786.17 515.824 6788.36 512.543 C 6789.67 510.356 6789.89 507.95 6789.23 493.512 C 6788.36 465.731 6788.36 445.388 6789.23 416.513 C 6790.11 384.795 6790.54 383.045 6797.33 378.67 C 6799.51 377.139 6801.48 375.607 6801.7 375.17 C 6802.14 374.076 6813.07 374.514 6814.39 375.826 C 6815.04 376.482 6817.67 378.014 6819.86 379.326 C 6825.32 382.607 6826.2 385.451 6826.2 400.326 C 6826.2 411.044 6826.2 411.701 6828.82 415.857 C 6832.76 421.982 6841.07 427.888 6846.11 427.888 C 6847.2 427.888 6851.57 429.419 6855.73 431.607 C 6861.42 434.45 6864.04 435.325 6867.76 435.325 C 6870.39 435.325 6874.32 435.982 6876.51 436.638 C 6878.92 437.513 6881.98 437.732 6883.95 437.513 C 6885.7 437.294 6888.54 437.513 6890.07 438.169 C 6892.7 439.263 6898.61 439.919 6917.2 441.669 C 6921.79 442.107 6926.82 442.982 6928.35 443.638 C 6929.67 444.075 6933.39 444.513 6936.23 444.513 C 6948.04 444.294 6991.79 448.013 7000.32 449.982 C 7002.95 450.638 7008.2 451.513 7011.92 452.169 C 7015.85 452.825 7021.54 453.919 7024.6 455.013 C 7033.79 457.856 7052.38 461.356 7059.17 461.356 C 7061.57 461.356 7069.45 462.888 7076.45 464.638 C 7083.23 466.388 7091.76 468.575 7095.04 469.45 C 7098.32 470.325 7105.32 472.075 7110.35 473.606 C 7115.6 475.137 7124.35 477.325 7130.04 478.2 C 7139.88 479.95 7146.23 481.481 7160.23 485.637 C 7180.79 491.762 7195.01 495.043 7200.04 495.043 C 7201.35 495.043 7203.76 495.7 7205.29 496.356 C 7206.82 497.231 7210.54 498.325 7213.38 498.981 C 7216.23 499.418 7219.73 500.293 7221.04 500.95 C 7222.35 501.606 7225.85 502.481 7228.91 502.918 C 7231.98 503.137 7235.48 504.012 7236.57 504.668 C 7239.19 506.418 7255.82 511.012 7262.6 511.887 C 7265.66 512.106 7270.04 513.418 7272.23 514.512 C 7274.41 515.606 7278.35 516.918 7280.98 517.574 C 7283.82 518.012 7287.1 519.106 7288.63 519.981 C 7292.35 521.949 7299.13 523.699 7311.6 526.324 C 7317.51 527.418 7324.94 529.387 7328.01 530.481 C 7331.07 531.574 7335.44 533.106 7337.85 533.762 C 7340.04 534.418 7343.54 535.73 7345.51 536.387 C 7347.26 537.262 7350.1 537.918 7351.41 537.918 C 7352.51 537.918 7355.57 539.012 7358.19 540.324 C 7360.6 541.418 7364.97 542.73 7368.04 543.168 C 7377.66 544.043 7391.01 547.98 7405.01 553.887 C 7414.19 557.605 7422.51 560.23 7429.29 561.105 C 7432.79 561.761 7441.1 564.386 7448.54 567.23 C 7464.5 573.574 7475.44 577.074 7479.16 577.074 C 7480.91 577.074 7483.75 577.949 7485.72 579.042 C 7487.91 580.136 7491.85 581.667 7494.69 582.542 C 7497.54 583.199 7500.6 584.511 7501.69 584.949 C 7504.97 587.136 7525.1 593.917 7530.79 595.011 C 7538 596.324 7560.32 603.98 7568.85 608.136 C 7571.03 609.011 7573.88 609.886 7574.97 609.886 C 7578.03 609.886 7586.35 612.73 7591.16 615.355 C 7593.35 616.448 7595.32 617.323 7595.97 617.323 C 7596.41 617.323 7600.13 619.292 7603.85 621.479 C 7607.78 623.886 7611.5 625.636 7612.6 625.636 C 7614.35 625.636 7628.78 633.073 7637.32 638.323 C 7640.16 640.073 7644.32 641.823 7646.5 642.479 C 7648.69 643.135 7653.72 645.323 7657.88 647.729 C 7662.03 649.917 7665.53 651.885 7665.97 651.885 C 7666.19 651.885 7669.03 653.417 7671.88 655.604 C 7674.72 657.573 7678.88 659.542 7680.85 660.198 C 7684.13 661.073 7686.75 662.604 7694.63 667.854 C 7695.94 668.729 7697.47 669.604 7697.91 669.604 C 7698.35 669.604 7700.1 670.698 7702.06 671.791 C 7703.81 673.104 7707.1 674.635 7709.06 675.073 C 7711.03 675.729 7714.31 677.26 7716.06 678.354 C 7720.66 681.854 7733.56 689.51 7738.38 691.916 C 7743.41 694.541 7748.88 698.697 7753.25 703.291 C 7755.22 705.26 7758.28 707.666 7760.03 708.322 C 7762 709.197 7766.38 712.478 7769.88 715.978 C 7773.16 719.26 7777.75 722.978 7779.72 723.853 C 7781.69 724.947 7786.28 728.666 7790 732.166 C 7793.72 735.666 7797.66 738.947 7798.97 739.603 C 7801.59 740.916 7806.41 744.853 7812.31 750.322 C 7814.5 752.29 7817.78 754.697 7819.53 756.009 C 7821.28 757.103 7826.09 761.697 7830.25 766.29 C 7834.41 770.665 7840.75 777.665 7844.25 781.603 C 7847.97 785.321 7851.91 790.134 7853.22 791.884 C 7854.31 793.634 7856.94 796.915 7859.12 798.884 C 7866.34 806.102 7871.59 812.008 7875.75 817.696 C 7878.16 820.758 7880.78 823.821 7881.66 824.696 C 7882.53 825.352 7884.72 828.196 7886.69 831.039 C 7888.66 834.102 7892.37 838.696 7894.78 841.539 C 7897.19 844.164 7900.25 848.977 7901.78 851.82 C 7903.31 855.102 7905.5 857.727 7907.03 858.602 C 7908.56 859.258 7911.62 861.883 7913.81 864.289 C 7919.06 869.758 7922.12 871.508 7925.84 870.633 C 7927.59 870.414 7930.66 870.633 7932.84 871.07 C 7935.03 871.726 7940.5 872.601 7945.09 873.258 C 7959.31 875.008 7968.28 876.758 7972 878.289 C 7973.75 878.945 7976.59 879.601 7978.12 879.601 C 7979.44 879.601 7982.94 881.133 7985.78 882.883 C 7988.62 884.633 7991.47 886.164 7992.12 886.164 C 7993.22 886.164 7999.12 891.632 8011.15 903.445 C 8014.22 906.507 8017.5 910.663 8018.59 912.851 C 8019.69 914.82 8022.75 918.757 8025.37 921.601 C 8028 924.445 8031.28 928.601 8032.37 930.788 C 8033.47 932.976 8036.09 936.913 8038.5 939.319 C 8042.87 944.569 8047.9 952.007 8051.19 958.35 C 8052.28 960.538 8055.34 965.569 8058.19 969.725 C 8063.22 977.163 8063.22 977.381 8063.65 985.038 C 8063.87 992.475 8063.87 992.694 8060.37 997.944 C 8058.4 1001.01 8055.34 1004.94 8053.59 1006.69 C 8050.09 1009.76 8049.87 1009.97 8040.03 1010.63 C 8025.15 1011.51 8019.69 1012.6 8012.03 1016.54 C 7999.34 1023.32 7998.69 1025.29 8007.65 1034.47 C 8010.94 1037.97 8015.09 1043.66 8017.06 1047.16 C 8018.81 1050.88 8021.44 1054.82 8022.53 1056.13 C 8025.81 1059.85 8030.19 1066.85 8034.34 1074.94 C 8036.31 1078.88 8040.25 1085.22 8043.09 1088.94 C 8045.94 1092.66 8048.78 1097.26 8049.22 1099 C 8050.53 1102.29 8060.15 1118.47 8063.65 1122.63 C 8064.97 1123.94 8066.28 1126.79 8066.93 1128.75 C 8067.59 1130.72 8069.78 1134.66 8071.53 1137.72 C 8079.4 1150.41 8082.9 1156.75 8083.78 1159.82 C 8084.43 1161.57 8088.37 1169.88 8092.53 1178.41 C 8096.9 1186.94 8100.62 1195.25 8101.06 1197 C 8101.28 1198.97 8102.37 1201.6 8103.25 1203.35 C 8104.34 1204.88 8105.43 1207.72 8106.09 1209.69 C 8106.75 1211.88 8108.93 1216.03 8110.9 1219.1 C 8112.87 1222.16 8114.62 1226.32 8115.06 1228.28 C 8116.37 1235.07 8123.81 1249.28 8128.84 1254.75 C 8131.47 1257.6 8134.53 1260.22 8135.62 1260.88 C 8137.59 1261.97 8149.62 1263.07 8173.46 1264.38 C 8182.43 1264.82 8191.62 1265.47 8194.03 1265.69 C 8196.21 1265.91 8204.31 1266.78 8211.75 1267.66 C 8229.25 1269.41 8241.71 1271.6 8248.06 1273.78 C 8250.9 1274.88 8255.28 1276.19 8257.9 1276.85 C 8260.53 1277.5 8263.81 1278.6 8265.34 1279.25 C 8271.03 1281.66 8284.15 1284.94 8290.49 1285.82 C 8293.99 1286.25 8299.03 1287.57 8301.65 1288.44 C 8306.46 1290.41 8314.12 1293.03 8324.18 1296.1 C 8327.24 1296.97 8333.37 1299.16 8337.96 1300.47 C 8342.34 1302 8348.68 1303.75 8351.96 1303.97 C 8355.03 1304.41 8360.06 1305.72 8362.9 1306.82 C 8365.74 1307.91 8370.34 1309.66 8373.18 1310.53 C 8376.03 1311.41 8380.4 1312.94 8383.02 1314.03 C 8385.65 1315.13 8390.68 1316.44 8394.18 1317.31 C 8405.56 1319.5 8412.77 1321.25 8417.15 1323.22 C 8421.52 1324.97 8432.68 1328.91 8444.71 1332.85 C 8448.87 1334.16 8453.24 1335.25 8454.56 1335.25 C 8457.84 1335.25 8463.96 1337.22 8484.74 1344.44 C 8495.02 1348.16 8505.74 1351.44 8508.59 1351.66 C 8511.43 1352.1 8518.65 1354.28 8524.99 1356.47 C 8531.12 1358.88 8537.9 1361.28 8540.3 1361.94 C 8542.71 1362.6 8547.52 1364.35 8551.02 1365.66 C 8554.52 1366.97 8560.65 1368.72 8564.59 1369.38 C 8570.93 1370.47 8592.37 1378.13 8598.27 1381.41 C 8599.58 1382.28 8602.65 1383.16 8604.83 1383.38 C 8609.21 1384.03 8628.9 1391.47 8632.4 1393.66 C 8633.49 1394.53 8638.08 1396.28 8642.24 1397.81 C 8650.99 1401.1 8653.83 1403.28 8659.08 1411.38 L 8662.8 1416.84 L 8662.8 1474.81 C 8662.8 1506.75 8663.02 1536.94 8663.02 1542.19 C 8663.46 1556.62 8664.99 1574.56 8665.65 1575.87 C 8666.3 1576.75 8665.87 1578.06 8664.99 1579.59 C 8663.46 1581.78 8663.02 1582 8656.68 1581.56 C 8652.96 1581.34 8644.87 1580.03 8638.52 1578.5 C 8627.58 1576.31 8626.05 1576.09 8611.4 1576.75 C 8601.99 1577.19 8594.55 1577.84 8592.8 1578.5 C 8589.08 1580.03 8581.87 1585.94 8580.99 1588.12 C 8579.24 1592.28 8577.05 1607.59 8577.93 1609.78 C 8581.65 1619.84 8584.27 1623.56 8594.77 1633.4 C 8600.68 1638.87 8607.68 1644.78 8610.08 1646.53 C 8617.08 1651.12 8637.87 1662.06 8643.77 1664.03 C 8654.93 1667.53 8659.52 1669.5 8663.46 1671.25 C 8665.65 1672.56 8670.46 1674.09 8674.18 1675.19 C 8690.58 1679.56 8696.05 1681.75 8697.15 1685.03 C 8697.58 1686.34 8698.02 1692.25 8698.02 1698.15 C 8698.02 1705.15 8698.24 1709.31 8698.9 1709.53 C 8700.21 1709.97 8700.21 1716.31 8699.11 1716.31 C 8698.46 1716.31 8698.02 1719.15 8698.02 1722.87 C 8698.02 1726.81 8697.36 1731.4 8696.71 1733.59 C 8695.83 1735.56 8695.4 1739.93 8695.4 1743.22 C 8695.4 1746.28 8694.74 1749.78 8694.3 1750.87 C 8693.65 1751.97 8692.77 1756.56 8692.33 1760.93 C 8690.15 1782.15 8690.15 1782.37 8684.02 1796.37 C 8682.49 1800.31 8680.74 1805.78 8680.3 1808.84 C 8679.21 1816.93 8671.77 1835.31 8666.3 1843.84 C 8664.55 1846.46 8661.71 1851.28 8659.96 1854.34 C 8658.21 1857.4 8654.93 1862.21 8652.74 1864.62 C 8650.55 1867.25 8648.37 1870.75 8647.71 1872.5 C 8646.62 1876 8633.27 1889.12 8626.71 1893.5 C 8624.52 1894.81 8619.71 1898.75 8615.55 1902.25 C 8608.77 1908.37 8607.9 1908.81 8600.46 1910.56 C 8596.3 1911.43 8591.27 1912.75 8589.52 1913.62 C 8587.99 1914.28 8583.62 1916.25 8579.9 1917.78 C 8566.12 1923.68 8557.37 1925.21 8527.62 1927.84 C 8512.09 1928.93 8510.77 1928.93 8509.68 1927.62 C 8508.8 1926.31 8508.59 1916.25 8508.59 1885.62 C 8508.37 1831.59 8507.71 1801.4 8506.62 1797.47 C 8506.18 1795.72 8505.74 1792.65 8505.74 1790.68 C 8505.74 1788.72 8504.87 1784.78 8503.99 1781.72 C 8502.9 1778.65 8501.37 1771.87 8500.49 1766.62 C 8499.84 1761.15 8498.09 1755.03 8496.99 1752.62 C 8495.68 1750.22 8493.93 1746.5 8492.84 1744.31 C 8491.74 1741.9 8489.99 1738.62 8488.9 1736.65 C 8485.4 1730.75 8483.43 1726.15 8482.34 1722 C 8481.68 1719.37 8480.15 1716.75 8477.74 1714.56 C 8475.77 1712.59 8471.84 1707.34 8468.99 1702.97 C 8465.93 1698.37 8461.12 1692.03 8458.27 1688.75 C 8455.43 1685.47 8450.84 1680 8447.99 1676.28 C 8445.37 1672.78 8441.43 1668.84 8439.24 1667.75 C 8437.27 1666.65 8433.34 1663.37 8430.27 1660.53 C 8423.93 1654.19 8412.77 1645.87 8408.18 1643.9 C 8406.43 1643.25 8402.49 1640.62 8399.65 1638.22 C 8396.59 1635.81 8392.65 1633.19 8390.9 1632.31 C 8389.15 1631.65 8381.93 1628.37 8375.15 1625.09 C 8368.15 1621.81 8360.71 1618.97 8358.74 1618.53 C 8356.56 1618.31 8353.06 1617.22 8350.87 1616.34 C 8348.46 1615.47 8344.09 1614.37 8341.03 1614.16 C 8337.96 1613.72 8333.37 1612.84 8330.74 1612.19 C 8322.21 1609.78 8310.18 1608.69 8297.49 1608.69 C 8290.71 1608.69 8280.43 1608.69 8274.74 1608.69 C 8263.81 1608.91 8254.18 1610 8247.18 1612.19 C 8244.78 1612.84 8239.96 1613.72 8236.03 1614.37 C 8226.84 1615.69 8210.65 1621.16 8203 1625.75 C 8199.5 1627.72 8194.9 1629.69 8192.93 1630.34 C 8190.96 1630.78 8183.53 1634.94 8176.31 1639.53 C 8169.31 1644.12 8162.09 1648.5 8160.56 1649.37 C 8158.81 1650.25 8154.65 1653.53 8151.59 1656.81 C 8148.31 1659.87 8143.06 1665.12 8139.78 1668.19 C 8136.5 1671.25 8133.22 1675.19 8132.34 1676.94 C 8131.47 1678.9 8128.84 1681.75 8126.87 1683.28 C 8124.68 1685.03 8121.84 1688.31 8120.53 1690.28 C 8119.22 1692.47 8116.37 1696.19 8114.18 1698.59 C 8105.43 1708.44 8102.37 1712.59 8099.97 1718.28 C 8098.43 1721.56 8095.37 1727.03 8093.18 1730.75 C 8089.03 1736.87 8084.65 1745.62 8083.34 1750.65 C 8082.9 1751.97 8080.93 1756.12 8078.97 1759.84 C 8075.03 1767.28 8071.75 1778.22 8068.68 1794.18 C 8067.81 1799.87 8066.5 1806.22 8065.84 1808.18 C 8065.4 1810.15 8064.53 1814.09 8064.09 1816.5 C 8063.43 1819.12 8062.12 1825.47 8060.81 1830.5 C 8059.72 1835.75 8057.75 1843.84 8056.65 1848.87 C 8055.56 1853.68 8054.03 1859.59 8053.37 1861.78 C 8052.28 1865.5 8051.62 1870.31 8049.87 1888.46 C 8049.44 1893.28 8041.12 1932.65 8039.37 1938.99 C 8038.06 1943.81 8033.69 1948.84 8029.53 1950.37 C 8028.22 1950.81 8022.53 1951.68 8016.62 1952.34 C 8010.72 1952.99 8003.06 1953.87 7999.78 1954.53 C 7995.4 1955.18 7942.25 1955.18 7824.56 1954.74 C 7731.81 1954.53 7435.19 1953.87 7165.48 1953.21 C 6665.2 1952.12 6629.98 1952.12 6528.27 1951.03 C 6468.33 1950.59 6449.74 1949.71 6444.92 1947.09 C 6440.77 1945.12 6430.92 1934.62 6429.17 1930.46 C 6428.3 1928.5 6426.77 1924.34 6425.67 1921.71 C 6424.58 1918.87 6421.74 1913.4 6419.55 1909.46 C 6417.36 1905.53 6414.08 1898.53 6412.33 1893.5 C 6410.36 1888.68 6406.42 1880.15 6403.14 1874.46 C 6400.08 1869 6396.36 1860.9 6395.05 1856.96 C 6393.74 1852.81 6390.89 1846.46 6388.71 1842.75 C 6384.99 1836.62 6382.36 1830.72 6378.64 1819.78 C 6377.77 1817.59 6376.24 1814.09 6374.92 1812.34 C 6369.67 1804.47 6363.77 1792 6363.11 1787.84 C 6362.67 1785.43 6361.14 1782.15 6360.05 1780.4 C 6356.77 1776.03 6345.39 1752.62 6345.39 1750.43 C 6345.39 1749.34 6344.74 1747.37 6343.86 1746.28 C 6341.24 1742.34 6332.49 1724.62 6331.83 1721.78 C 6331.17 1718.94 6323.3 1709.31 6312.14 1697.5 C 6308.86 1694.22 6305.36 1690.06 6304.05 1688.09 C 6302.96 1686.34 6299.46 1682.84 6296.39 1680.22 C 6293.33 1677.81 6287.86 1673.22 6284.36 1669.94 C 6281.08 1666.65 6276.27 1662.94 6273.64 1661.62 C 6271.24 1660.09 6267.96 1657.9 6266.43 1656.37 C 6262.27 1652.65 6256.36 1648.94 6254.61 1648.94 C 6253.96 1648.94 6250.89 1647.19 6247.83 1645.22 C 6244.99 1643.03 6240.18 1640.4 6237.33 1639.09 C 6234.27 1637.78 6230.55 1635.59 6228.8 1634.28 C 6225.74 1631.87 6218.3 1629.47 6208.68 1627.5 C 6206.05 1627.06 6200.36 1625.09 6195.99 1623.12 C 6191.61 1621.16 6186.36 1619.41 6184.18 1618.97 C 6177.4 1617.66 6170.4 1616.12 6166.24 1615.25 C 6161.21 1614.16 6091.21 1614.16 6086.83 1615.25 C 6084.86 1615.69 6080.49 1617 6076.99 1617.66 C 6068.68 1619.62 6058.18 1622.9 6050.3 1625.97 C 6047.02 1627.28 6041.55 1628.81 6038.27 1629.47 C 6034.99 1630.12 6031.27 1631.44 6029.96 1632.75 C 6028.43 1633.84 6020.99 1638 6012.9 1642.15 C 5998.24 1649.59 5991.68 1653.75 5979.87 1662.72 C 5959.96 1677.81 5937.21 1701.87 5924.3 1721.34 C 5922.55 1724.19 5919.71 1728.12 5918.18 1730.31 C 5916.87 1732.5 5914.68 1737.09 5913.8 1740.59 C 5912.71 1743.87 5910.74 1749.34 5909.21 1752.62 C 5903.74 1764.22 5901.99 1768.15 5900.24 1772.31 C 5897.84 1778.43 5897.18 1779.09 5891.49 1782.37 C 5884.71 1786.09 5881.87 1786.09 5873.77 1781.93 C 5867.65 1778.87 5867.21 1778.43 5865.68 1773.84 C 5864.81 1771.22 5861.74 1764.43 5859.12 1758.75 C 5856.27 1753.06 5852.99 1745.18 5851.9 1741.25 C 5850.59 1737.31 5848.18 1732.06 5846.43 1729.65 C 5844.68 1727.03 5842.06 1722.87 5840.31 1720.47 C 5838.56 1717.84 5835.27 1713.47 5833.09 1710.84 C 5830.9 1708.22 5828.93 1705.37 5828.71 1704.28 C 5828.27 1703.4 5825.65 1701 5822.81 1699.03 C 5818.87 1696.19 5817.34 1694.44 5815.59 1690.5 C 5813.62 1686.12 5812.31 1684.81 5806.84 1681.31 C 5803.34 1679.12 5799.4 1675.62 5797.87 1673.44 C 5796.12 1671.03 5791.96 1667.53 5787.15 1664.25 C 5782.77 1661.4 5777.74 1657.9 5776.21 1656.37 C 5774.46 1655.06 5770.52 1652.44 5767.24 1650.9 C 5763.96 1649.15 5760.68 1647.4 5760.03 1646.75 C 5757.84 1645 5746.46 1638.65 5737.93 1634.28 C 5733.99 1632.09 5726.99 1629.47 5722.62 1628.59 C 5718.24 1627.5 5710.81 1625.09 5706.21 1623.34 C 5701.62 1621.37 5695.93 1619.62 5693.74 1619.19 C 5691.34 1618.75 5686.31 1617.66 5682.37 1616.56 C 5676.24 1615.03 5671.43 1614.81 5637.09 1615.03 C 5598.15 1615.03 5589.18 1615.69 5581.96 1618.75 C 5580 1619.41 5575.4 1620.94 5571.9 1621.81 C 5568.18 1622.9 5563.15 1624.44 5560.53 1625.53 C 5558.12 1626.62 5552.65 1628.37 5548.5 1629.47 C 5544.34 1630.56 5539.31 1632.53 5537.34 1634.06 C 5535.15 1635.37 5529.68 1638.44 5525.09 1640.84 C 5508.03 1649.37 5505.4 1650.9 5497.97 1656.37 C 5494.03 1659.44 5490.09 1662.06 5489.43 1662.06 C 5488.56 1662.06 5485.06 1665.12 5481.12 1669.06 C 5477.4 1672.78 5472.59 1677.15 5470.62 1678.47 C 5468.43 1679.78 5465.81 1682.4 5464.93 1684.15 C 5463.84 1685.69 5461 1688.97 5458.37 1690.94 C 5455.97 1693.12 5452.03 1697.5 5449.62 1700.56 C 5443.5 1709.09 5439.56 1712.59 5428.4 1718.5 C 5423.15 1721.56 5417.47 1724.84 5415.94 1725.94 C 5413.53 1727.68 5411.34 1727.9 5399.97 1728.34 C 5386.4 1728.78 5384.65 1729.22 5382.69 1733.15 C 5382.03 1734.47 5381.59 1773.4 5381.81 1851.71 L 5381.81 1968.53 L 5377.65 1972.46 C 5371.31 1978.81 5358.62 1981.21 5349.22 1978.37 z"/>
<path id="&lt;Merge&gt; (11) (17)" style="fill-rule:evenodd;fill:#000000;stroke:#000000;stroke-width:0.75;" d="M 1093.71 2062.81 C 1093.71 2062.37 1091.96 2061.49 1090.21 2060.62 C 1082.99 2057.34 1073.14 2053.18 1072.49 2053.18 C 1072.27 2053.18 1069.64 2052.31 1066.58 2050.99 C 1063.74 2049.68 1057.61 2047.71 1053.02 2046.18 C 1044.71 2043.77 1040.77 2041.81 1033.33 2035.9 C 1031.36 2034.37 1028.08 2032.4 1025.89 2031.74 C 1023.93 2031.09 1020.21 2028.68 1017.58 2026.71 C 1014.96 2024.53 1010.14 2020.81 1006.86 2018.4 C 997.894 2012.28 975.582 1988.87 968.364 1978.59 C 965.082 1973.78 960.926 1968.09 958.957 1965.68 C 956.989 1963.28 955.02 1959.78 954.364 1958.03 C 953.707 1956.28 952.176 1952.56 950.645 1950.15 C 949.333 1947.53 947.801 1944.24 947.583 1943.15 C 947.145 1941.84 945.395 1938.34 943.645 1935.5 C 940.801 1930.46 936.864 1917.12 936.864 1912.09 C 936.864 1910.56 935.989 1907.28 934.895 1904.87 C 932.708 1899.84 931.176 1892.18 930.301 1881.46 C 930.083 1877.09 929.427 1872.93 928.989 1872.28 C 927.895 1870.53 928.114 1840.78 929.208 1838.59 C 929.864 1837.5 930.301 1834.43 930.301 1831.59 C 930.301 1827.43 934.895 1806.22 936.426 1803.81 C 936.645 1803.37 937.301 1799.87 937.739 1795.93 C 938.395 1789.81 939.489 1786.97 945.833 1773.84 C 949.989 1765.53 953.707 1757.22 954.364 1755.47 C 955.02 1753.5 958.082 1748.9 961.145 1745.18 C 964.207 1741.25 968.145 1735.78 969.895 1732.93 C 971.645 1730.09 975.582 1725.06 978.863 1721.56 C 982.145 1718.06 986.082 1713.9 987.832 1712.15 C 995.269 1704.28 1006.43 1694.22 1009.49 1692.69 C 1013.86 1690.28 1018.68 1686.78 1022.61 1683.5 C 1025.46 1681.09 1031.58 1677.81 1053.46 1666.65 C 1056.3 1665.12 1061.55 1663.37 1065.05 1662.5 C 1068.77 1661.62 1074.89 1660.09 1078.61 1658.78 C 1082.55 1657.69 1088.89 1655.94 1093.05 1655.06 C 1096.99 1654.4 1100.71 1653.31 1101.36 1653.09 C 1107.05 1649.59 1157.14 1649.81 1170.7 1653.53 C 1172.67 1653.97 1176.83 1655.06 1179.89 1655.94 C 1183.17 1656.59 1188.42 1658.12 1192.14 1659.22 C 1195.64 1660.31 1200.89 1661.62 1203.74 1662.06 C 1208.99 1663.15 1218.61 1667.53 1226.92 1673 C 1229.55 1674.53 1233.7 1676.5 1235.89 1676.94 C 1238.08 1677.59 1242.02 1679.78 1244.42 1681.75 C 1246.83 1683.94 1249.89 1685.9 1250.99 1686.56 C 1252.52 1687.44 1261.05 1693.78 1268.92 1699.9 C 1274.39 1704.28 1288.61 1718.72 1291.45 1722.87 C 1292.98 1725.28 1295.17 1727.9 1296.27 1728.56 C 1297.8 1729.65 1302.39 1736.22 1315.08 1756.12 C 1318.14 1760.93 1321.64 1767.72 1322.73 1771.43 C 1324.05 1775.15 1326.67 1782.37 1328.86 1787.62 C 1330.83 1792.65 1332.58 1797.47 1332.58 1798.12 C 1332.58 1798.78 1333.67 1801.84 1334.77 1804.68 C 1338.27 1813 1339.58 1830.72 1338.92 1866.81 C 1338.7 1887.59 1338.05 1897.65 1337.39 1899.62 C 1336.73 1901.15 1335.64 1904.87 1334.98 1908.15 C 1333.45 1914.28 1329.3 1926.96 1327.98 1928.5 C 1326.67 1930.25 1322.52 1941.4 1321.86 1945.12 C 1321.64 1947.09 1319.89 1950.37 1317.7 1952.99 C 1315.73 1955.4 1313.98 1958.03 1313.98 1958.68 C 1313.98 1959.34 1312.45 1961.74 1310.48 1964.15 C 1308.73 1966.56 1306.11 1970.71 1305.02 1973.34 C 1303.92 1975.96 1300.64 1980.34 1297.58 1983.18 C 1294.73 1986.03 1291.23 1990.4 1289.7 1993.03 C 1288.17 1995.65 1285.98 1998.49 1284.67 1999.37 C 1283.36 2000.24 1279.42 2003.74 1275.92 2006.81 C 1272.42 2010.09 1267.83 2014.03 1265.42 2015.78 C 1263.02 2017.53 1259.08 2021.03 1256.45 2023.43 C 1253.83 2025.84 1249.45 2028.9 1246.61 2030.43 C 1243.99 2031.74 1237.86 2035.46 1233.05 2038.53 C 1226.92 2042.46 1222.33 2044.65 1216.42 2046.4 C 1211.83 2047.71 1206.14 2049.68 1203.95 2050.99 C 1201.55 2052.31 1198.7 2053.18 1197.61 2053.18 C 1196.52 2053.18 1193.24 2054.27 1190.61 2055.59 C 1187.77 2056.9 1184.7 2057.77 1183.83 2057.99 C 1182.74 2057.99 1180.55 2059.09 1178.8 2060.62 L 1175.95 2063.46 L 1134.83 2063.46 C 1112.08 2063.46 1093.71 2063.24 1093.71 2062.81 L 1093.71 2062.81 L 1093.71 2062.81 z"/>
<path id="&lt;Merge&gt; (11) (18)" style="fill-rule:evenodd;fill:#000000;stroke:#000000;stroke-width:0.75;" d="M 610.055 2062.81 C 610.055 2061.49 604.587 2058.87 601.743 2058.87 C 597.805 2058.87 588.618 2056.46 584.243 2054.27 C 582.274 2053.18 579.649 2052.31 578.556 2052.31 C 577.243 2052.31 574.837 2051.43 572.868 2050.56 C 570.9 2049.46 566.525 2047.93 563.243 2047.27 C 555.806 2045.31 542.462 2039.18 537.869 2035.46 C 535.9 2033.93 532.619 2031.96 530.65 2031.31 C 526.931 2029.99 515.119 2021.24 502.213 2010.53 C 488.869 1999.15 479.463 1988.87 471.369 1977.06 C 468.745 1973.56 465.245 1968.74 463.276 1966.56 C 461.307 1964.15 459.557 1961.09 459.338 1959.12 C 458.901 1957.15 456.932 1953.21 454.963 1950.59 C 452.995 1947.96 451.245 1945.12 451.245 1944.46 C 451.245 1943.81 449.495 1939.65 447.089 1935.5 C 444.901 1931.12 442.495 1925 441.839 1921.93 C 440.089 1913.18 436.151 1898.96 435.057 1896.78 C 434.62 1895.9 433.745 1891.75 433.307 1888.03 C 431.995 1878.62 431.995 1829.18 433.307 1822.62 C 434.62 1814.97 437.026 1805.56 438.557 1802.06 C 439.214 1800.31 440.526 1795.06 441.401 1790.47 C 442.932 1782.15 449.057 1768.59 455.838 1757.65 C 457.588 1755.25 459.12 1751.53 459.776 1749.56 C 460.213 1747.59 462.62 1743.87 464.807 1741.25 C 467.213 1738.4 470.932 1733.59 473.119 1730.31 C 480.338 1719.15 499.588 1700.12 514.681 1689.19 C 517.306 1687.44 520.588 1684.81 522.556 1683.28 C 524.306 1681.97 531.744 1677.59 539.4 1673.87 C 547.056 1669.94 554.275 1666 555.587 1664.9 C 557.118 1664.03 561.931 1662.28 566.525 1661.19 C 571.118 1659.87 576.149 1658.56 577.681 1657.69 C 583.368 1655.28 606.337 1650.03 611.805 1650.03 C 614.868 1650.03 618.805 1649.37 620.555 1648.5 C 622.961 1647.4 627.555 1647.19 636.961 1647.19 C 646.149 1647.19 651.18 1647.62 653.805 1648.5 C 655.992 1649.37 659.93 1650.03 662.336 1650.03 C 666.711 1650.03 670.867 1650.69 680.492 1653.09 C 683.117 1653.97 686.836 1654.62 688.804 1655.06 C 690.773 1655.5 694.492 1656.59 696.898 1657.9 C 699.304 1659.22 703.679 1660.53 706.742 1660.97 C 714.398 1662.28 719.648 1664.25 727.085 1669.06 C 730.804 1671.25 736.491 1674.31 739.773 1676.06 C 745.241 1678.9 753.335 1683.94 763.835 1691.59 C 770.616 1696.62 787.459 1713.03 792.928 1720.03 C 795.991 1723.97 799.272 1727.68 800.147 1728.34 C 802.772 1730.75 808.459 1739.06 814.147 1748.68 C 816.99 1753.72 820.053 1758.75 820.928 1759.84 C 822.459 1761.81 824.209 1765.75 827.928 1776.47 C 828.803 1779.09 830.553 1783.9 831.865 1787.18 C 838.209 1803.81 840.615 1813.65 841.49 1828.53 C 843.459 1855.43 841.928 1895.68 838.865 1902.03 C 837.771 1903.78 836.896 1907.06 836.459 1909.46 C 836.24 1911.87 835.146 1914.71 834.271 1916.03 C 833.615 1917.12 832.303 1920.18 831.646 1922.37 C 827.928 1935.06 822.897 1947.96 820.49 1951.03 C 818.959 1952.78 815.459 1958.68 812.615 1963.71 C 805.834 1975.96 793.147 1991.49 782.21 2001.12 C 780.678 2002.43 777.835 2005.49 775.866 2007.9 C 773.897 2010.31 770.616 2013.15 768.428 2014.24 C 766.46 2015.12 762.741 2017.96 760.335 2020.15 C 754.866 2025.18 749.397 2028.9 741.085 2033.06 C 737.585 2034.81 732.554 2037.65 729.929 2039.4 C 725.335 2042.46 714.617 2046.84 708.054 2048.15 C 706.304 2048.59 702.804 2049.46 700.617 2050.56 C 686.617 2056.24 678.742 2058.87 675.461 2058.87 C 671.742 2058.87 665.18 2061.27 665.18 2062.81 C 665.18 2063.24 652.711 2063.46 637.617 2063.46 C 622.305 2063.46 610.055 2063.24 610.055 2062.81 L 610.055 2062.81 L 610.055 2062.81 z"/>
<path id="&lt;Merge&gt; (11) (19)" style="fill-rule:evenodd;fill:#000000;stroke:#000000;stroke-width:0.75;" d="M 6120.08 2065.21 C 6119.86 2064.34 6117.24 2063.9 6111.33 2063.9 C 6105.43 2063.9 6102.36 2063.46 6100.61 2062.37 C 6099.3 2061.49 6095.15 2060.62 6090.33 2060.4 C 6085.96 2059.96 6079.61 2058.87 6076.33 2057.99 C 6073.05 2056.9 6069.77 2056.02 6068.9 2056.02 C 6068.24 2056.02 6065.4 2054.93 6062.99 2053.84 C 6053.37 2049.24 6042.43 2044.65 6038.05 2043.77 C 6035.21 2043.12 6032.15 2041.59 6029.52 2039.4 C 6027.33 2037.43 6020.12 2032.4 6013.33 2028.24 C 6006.77 2024.09 5999.55 2018.84 5997.58 2016.65 C 5995.4 2014.46 5991.46 2010.96 5988.62 2008.99 C 5985.77 2007.03 5981.62 2002.87 5979.43 1999.81 C 5977.02 1996.74 5973.52 1992.81 5971.55 1991.28 C 5969.59 1989.74 5966.96 1986.46 5965.43 1984.06 C 5964.12 1981.87 5961.71 1978.37 5960.18 1976.18 C 5954.93 1969.62 5947.49 1958.03 5946.62 1954.96 C 5945.96 1953.21 5943.99 1948.62 5942.02 1944.46 C 5940.05 1940.31 5936.99 1933.96 5935.24 1930.03 C 5933.27 1925.65 5931.74 1920.84 5931.3 1917.34 C 5931.09 1914.28 5929.55 1907.71 5928.46 1902.9 C 5924.74 1889.34 5924.09 1883.87 5923.65 1859.59 C 5923.21 1837.93 5923.65 1830.28 5926.27 1820.22 C 5928.68 1811.03 5929.99 1804.68 5931.74 1796.37 C 5933.05 1789.15 5934.8 1784.34 5940.05 1773.84 C 5943.55 1766.62 5946.62 1759.4 5947.05 1758.09 C 5947.27 1756.78 5949.68 1752.84 5952.3 1749.34 C 5954.93 1745.84 5959.09 1740.15 5961.71 1736.65 C 5971.12 1722.87 5985.77 1707.56 5998.46 1697.28 C 6003.71 1693.34 6010.27 1688.09 6013.12 1685.9 C 6015.96 1683.5 6020.12 1681.09 6022.3 1680.22 C 6024.71 1679.34 6029.08 1677.15 6032.15 1675.19 C 6035.21 1673 6038.27 1671.47 6038.71 1671.47 C 6039.15 1671.47 6042.21 1669.72 6045.71 1667.75 C 6049.65 1665.34 6053.37 1663.81 6056.43 1663.37 C 6059.05 1662.94 6063.43 1661.84 6066.27 1660.75 C 6070.87 1658.78 6074.15 1657.9 6086.18 1654.62 C 6096.24 1652.22 6100.61 1651.34 6104.55 1651.56 C 6106.74 1651.78 6110.24 1651.12 6112.21 1650.47 C 6117.02 1648.5 6140.86 1648.5 6146.55 1650.47 C 6148.74 1651.12 6152.24 1651.78 6154.43 1651.78 C 6159.46 1651.56 6175.65 1655.06 6187.46 1659 C 6192.93 1660.75 6200.36 1662.72 6203.86 1663.59 C 6207.36 1664.25 6212.18 1666.22 6214.58 1667.53 C 6216.99 1669.06 6219.83 1670.81 6221.14 1671.25 C 6222.46 1671.69 6225.52 1673.65 6227.93 1675.62 C 6230.55 1677.37 6234.71 1679.78 6237.33 1680.87 C 6241.71 1682.4 6250.68 1689.19 6272.55 1707.34 C 6274.96 1709.31 6278.46 1713.25 6280.43 1715.65 C 6282.39 1718.28 6286.11 1722.65 6288.96 1725.28 C 6291.58 1727.9 6295.08 1732.5 6296.61 1735.56 C 6298.36 1738.4 6301.86 1743.65 6304.71 1746.93 C 6308.21 1751.09 6310.39 1754.81 6311.71 1758.75 C 6312.8 1761.81 6314.55 1765.75 6315.86 1767.5 C 6316.96 1769.47 6318.27 1772.09 6318.71 1773.62 C 6318.92 1775.15 6320.89 1778.65 6322.64 1781.72 C 6326.14 1787.4 6327.67 1792.65 6330.74 1811.03 C 6332.05 1817.81 6333.36 1823.93 6333.8 1824.59 C 6335.99 1827.87 6337.74 1866.37 6335.99 1872.93 C 6335.33 1875.34 6334.89 1879.93 6334.89 1883 C 6335.11 1886.28 6334.46 1890.21 6333.58 1891.96 C 6332.92 1893.93 6331.17 1901.15 6329.86 1908.15 C 6328.55 1914.93 6326.58 1923.25 6325.27 1926.53 C 6321.77 1935.93 6308.21 1962.62 6303.61 1969.84 C 6300.99 1973.34 6297.05 1979.24 6294.86 1982.96 C 6292.46 1986.46 6288.52 1991.06 6285.89 1993.03 C 6283.49 1995.21 6280.43 1998.49 6278.89 2000.46 C 6274.52 2006.59 6260.96 2017.96 6247.39 2026.93 C 6240.39 2031.74 6232.3 2036.99 6229.46 2039.18 C 6226.83 2041.15 6222.02 2043.56 6218.96 2044.43 C 6215.89 2045.31 6210.86 2047.06 6207.58 2048.59 C 6191.18 2056.02 6179.8 2059.74 6169.96 2060.4 C 6165.58 2060.62 6160.55 2061.71 6159.02 2062.37 C 6157.05 2063.46 6153.77 2063.9 6147.43 2063.9 C 6141.3 2063.9 6138.68 2064.34 6138.24 2065.21 C 6138.02 2066.09 6135.4 2066.31 6129.27 2066.31 C 6123.15 2066.31 6120.3 2066.09 6120.08 2065.21 z"/>
<path id="&lt;Merge&gt;" style="fill-rule:evenodd;fill:#FF6600;stroke:#FF6600;stroke-width:0.75;" d="M 2866.22 2624.55 C 2830.56 2620.61 2785.5 2605.08 2760.12 2587.58 C 2750.28 2581.02 2737.81 2570.96 2737.15 2568.99 C 2736.72 2567.89 2752.69 2523.93 2768.65 2481.71 L 2771.5 2474.49 L 2781.56 2482.58 C 2809.34 2504.89 2844.56 2519.33 2882.4 2523.93 C 2893.34 2525.24 2920.68 2524.58 2936.22 2522.39 C 2990.25 2515.18 3022.18 2491.77 3025.68 2456.55 C 3026.12 2452.83 3025.9 2447.8 3025.25 2444.3 C 3023.28 2432.93 3017.37 2426.58 3005.78 2422.86 C 2996.15 2420.02 2987.84 2419.15 2883.5 2411.71 C 2852.22 2409.52 2845.22 2408.65 2833.19 2405.58 C 2788.12 2394.21 2762.53 2359.43 2760.56 2306.71 C 2758.59 2257.27 2773.9 2215.05 2806.94 2180.71 C 2837.78 2148.55 2882.62 2127.56 2933.81 2121.21 C 2948.25 2119.46 2980.4 2119.68 2993.53 2121.65 C 3023.71 2126.24 3066.15 2140.46 3088.03 2153.37 C 3098.31 2159.49 3112.96 2169.99 3112.96 2171.09 C 3112.96 2171.52 3084.31 2256.4 3081.9 2262.96 C 3081.68 2263.62 3077.74 2261.65 3072.28 2257.93 C 3067.24 2254.65 3056.09 2248.52 3047.34 2244.15 C 3000.31 2221.18 2957 2215.27 2904.93 2224.68 C 2862.93 2232.12 2835.81 2250.71 2831 2275.21 C 2829.69 2282.65 2830.34 2292.49 2832.75 2297.96 C 2836.25 2306.05 2844.56 2311.74 2855.5 2313.71 C 2858.34 2314.15 2889.4 2316.77 2924.4 2319.4 C 3010.15 2325.52 3010.15 2325.52 3021.09 2327.71 C 3064.18 2336.68 3089.34 2365.11 3095.46 2412.15 C 3096.78 2422.86 3096.12 2451.74 3093.93 2464.43 C 3079.93 2553.02 3016.93 2611.42 2922.43 2623.24 C 2908.65 2624.99 2876.5 2625.86 2866.22 2624.55 L 2866.22 2624.55 zM 3476.08 2624.55 C 3451.8 2621.71 3429.05 2610.77 3414.62 2595.02 C 3401.93 2581.24 3393.62 2563.08 3388.8 2539.24 C 3386.4 2527.21 3386.4 2490.24 3388.8 2475.8 C 3392.96 2449.77 3399.96 2432.05 3413.96 2411.27 C 3428.62 2388.96 3457.05 2365.33 3487.24 2350.24 L 3492.93 2347.4 L 3488.33 2336.46 C 3475.65 2306.49 3471.05 2278.05 3474.77 2249.62 C 3481.99 2192.52 3509.33 2151.4 3553.08 2131.27 C 3578.46 2119.46 3614.99 2116.4 3644.08 2123.18 C 3678.21 2131.49 3703.36 2154.9 3714.74 2188.59 C 3719.33 2202.15 3720.86 2212.65 3721.52 2230.59 C 3723.05 2275.65 3711.67 2307.15 3684.11 2334.71 C 3678.42 2340.4 3670.33 2347.4 3666.18 2350.24 C 3655.68 2357.68 3638.18 2367.52 3623.96 2373.86 C 3617.18 2376.93 3611.71 2379.55 3611.71 2379.99 C 3611.71 2380.86 3655.46 2451.08 3656.99 2452.61 C 3657.86 2453.71 3660.27 2452.4 3671.42 2444.74 C 3689.14 2432.71 3719.33 2411.27 3729.17 2403.61 C 3733.33 2400.33 3737.05 2397.71 3737.27 2397.93 C 3737.49 2398.15 3742.74 2418.05 3748.86 2442.55 L 3760.24 2486.74 L 3758.05 2488.49 C 3751.71 2493.52 3714.96 2521.08 3709.92 2524.58 C 3706.42 2526.99 3704.46 2529.18 3704.67 2529.83 C 3705.11 2530.27 3715.83 2547.55 3728.74 2568.11 C 3741.64 2588.67 3752.58 2605.96 3753.02 2606.61 C 3753.46 2607.49 3744.27 2607.71 3708.39 2607.71 L 3663.11 2607.92 L 3650.86 2589.55 C 3644.08 2579.71 3638.61 2571.39 3638.39 2571.39 C 3638.18 2571.39 3631.61 2575.11 3623.74 2579.49 C 3594.21 2595.89 3570.58 2606.83 3547.61 2614.71 C 3519.61 2624.11 3498.83 2627.17 3476.08 2624.55 L 3476.08 2624.55 zM 3526.61 2521.74 C 3531.65 2520.43 3539.74 2517.8 3544.99 2515.83 C 3556.8 2511.46 3588.52 2496.14 3588.08 2494.83 C 3587.21 2492.43 3531.65 2409.08 3530.99 2409.08 C 3529.02 2409.08 3499.27 2423.96 3492.93 2428.33 C 3469.74 2443.65 3458.58 2463.99 3459.68 2488.27 C 3460.12 2499.86 3463.18 2506.64 3470.4 2513.64 C 3479.15 2521.96 3488.99 2525.02 3506.71 2524.36 C 3514.58 2524.14 3520.27 2523.27 3526.61 2521.74 L 3526.61 2521.74 zM 3588.96 2308.02 C 3624.61 2293.8 3641.24 2281.99 3647.36 2266.24 C 3650.43 2258.15 3650.21 2248.52 3646.93 2241.74 C 3639.27 2226.43 3622.86 2219.43 3596.18 2220.74 C 3576.71 2221.4 3566.43 2225.34 3556.8 2234.96 C 3543.24 2248.74 3540.83 2266.02 3550.02 2282.43 C 3554.83 2291.18 3570.58 2314.58 3571.46 2314.58 C 3572.11 2314.58 3579.99 2311.74 3588.96 2308.02 L 3588.96 2308.02 L 3588.96 2308.02 zM 5694.18 2624.55 C 5658.31 2620.61 5614.78 2605.52 5588.53 2587.8 C 5577.59 2580.58 5565.34 2570.52 5565.12 2568.55 C 5564.9 2567.46 5591.81 2493.96 5598.81 2476.02 C 5599.46 2474.71 5601.21 2475.8 5609.53 2482.58 C 5637.31 2504.89 5672.53 2519.33 5710.37 2523.93 C 5721.53 2525.24 5748.65 2524.58 5764.18 2522.39 C 5796.56 2518.24 5819.31 2508.83 5835.71 2493.08 C 5849.27 2480.39 5856.27 2460.93 5853.21 2444.3 C 5850.59 2429.65 5841.4 2422.86 5820.4 2420.24 C 5810.34 2418.93 5773.15 2416.08 5737.06 2413.68 C 5676.9 2409.74 5664.21 2407.99 5648.25 2401.43 C 5610.84 2386.55 5590.28 2354.18 5588.53 2306.71 C 5586.78 2264.27 5597.71 2228.18 5621.56 2196.02 C 5651.96 2155.77 5702.93 2128.43 5761.78 2121.21 C 5776.21 2119.46 5808.37 2119.68 5821.71 2121.65 C 5851.68 2126.24 5894.12 2140.46 5915.99 2153.37 C 5926.27 2159.49 5940.93 2169.99 5940.93 2171.09 C 5941.15 2171.52 5912.27 2256.4 5909.87 2262.96 C 5909.65 2263.62 5905.71 2261.65 5900.24 2257.93 C 5895.21 2254.65 5884.05 2248.52 5875.3 2244.15 C 5828.27 2221.18 5784.96 2215.27 5732.9 2224.68 C 5691.56 2231.9 5664.21 2250.49 5659.18 2274.33 C 5655.25 2292.93 5661.37 2306.27 5676.68 2311.96 C 5682.81 2314.15 5686.31 2314.58 5752.37 2319.4 C 5832.87 2325.3 5838.99 2325.74 5849.06 2327.93 C 5892.15 2336.68 5917.3 2365.11 5923.43 2412.15 C 5924.74 2422.86 5924.09 2451.74 5921.9 2464.43 C 5907.9 2553.02 5844.9 2611.42 5750.4 2623.24 C 5736.62 2624.99 5704.46 2625.86 5694.18 2624.55 L 5694.18 2624.55 L 5694.18 2624.55 zM 5107.06 2622.58 C 5042.75 2616.46 4991.57 2574.46 4966.85 2507.52 C 4941.69 2439.71 4946.72 2345.21 4979.32 2268.43 C 5004.47 2209.8 5044.72 2164.3 5094.16 2139.37 C 5112.75 2129.74 5129.6 2124.49 5151.69 2120.77 C 5167 2118.37 5197.19 2118.59 5212.28 2121.21 C 5233.94 2125.15 5258.44 2135.43 5276.37 2148.34 C 5286.87 2155.77 5303.72 2172.18 5311.16 2182.24 C 5322.53 2197.55 5333.03 2217.46 5339.59 2236.49 C 5341.34 2241.09 5342.66 2245.24 5342.66 2245.68 C 5342.66 2246.34 5276.16 2297.52 5274.19 2298.4 C 5273.53 2298.62 5272.44 2296.65 5271.34 2293.37 C 5262.37 2266.02 5240.72 2239.99 5217.97 2229.71 C 5193.69 2218.55 5157.38 2217.46 5129.16 2226.43 C 5095.03 2237.59 5064.85 2264.71 5047.13 2300.58 C 5028.32 2338.21 5021.32 2384.36 5028.1 2424.83 C 5035.75 2470.77 5061.35 2503.58 5099.63 2516.27 C 5123.25 2524.14 5158.91 2523.49 5183.19 2514.74 C 5215.78 2503.14 5244 2476.46 5262.16 2439.93 C 5264.78 2434.68 5266.97 2430.3 5266.97 2430.08 C 5266.97 2429.65 5233.72 2429.43 5193.03 2429.43 L 5119.31 2429.43 L 5119.75 2426.58 C 5119.97 2424.83 5122.16 2404.93 5124.56 2382.4 C 5126.97 2359.86 5129.16 2340.4 5129.38 2339.08 L 5129.81 2337.12 L 5243.56 2337.12 L 5357.53 2337.12 L 5357.53 2342.58 C 5357.53 2345.65 5357.09 2353.52 5356.65 2360.08 C 5349.87 2442.11 5318.81 2514.3 5269.59 2562.86 C 5256.91 2575.33 5249.69 2581.24 5235.03 2590.86 C 5197.41 2616.24 5153 2627.17 5107.06 2622.58 zM 8003.5 2622.8 C 7987.31 2621.05 7965.65 2615.14 7952.75 2608.58 C 7898.5 2581.24 7865.03 2525.89 7855.41 2447.8 C 7852.13 2421.11 7853.44 2379.33 7858.69 2348.49 C 7868.53 2292.05 7889.31 2241.74 7919.94 2201.49 C 7929.12 2189.46 7950.78 2167.8 7962.15 2158.84 C 8005.03 2126.02 8054.9 2112.9 8105.22 2120.99 C 8170.84 2131.49 8220.93 2184.65 8238.21 2262.3 C 8243.68 2287.46 8244.78 2297.74 8244.78 2330.55 C 8244.78 2362.93 8243.9 2372.77 8239.09 2399.68 C 8221.59 2495.49 8170.62 2571.61 8101.06 2605.52 C 8070.87 2620.17 8038.06 2626.08 8003.5 2622.8 zM 8052.06 2521.52 C 8103.9 2513.64 8144.37 2470.33 8160.78 2405.8 C 8169.96 2368.83 8170.84 2329.46 8162.75 2297.52 C 8154.65 2266.24 8136.28 2241.52 8111.34 2229.27 C 8086.18 2216.8 8049.65 2216.15 8021.22 2227.74 C 7981.4 2244.15 7951.66 2283.3 7938.09 2337.55 C 7933.28 2356.36 7931.53 2369.93 7930.87 2389.4 C 7929.56 2435.11 7940.06 2470.55 7962.59 2494.39 C 7977.25 2510.14 7994.31 2518.46 8019.25 2522.18 C 8025.15 2523.05 8043.97 2522.83 8052.06 2521.52 L 8052.06 2521.52 zM 345.808 2606.17 C 345.808 2605.3 357.402 2498.77 371.183 2369.27 L 396.558 2134.12 L 531.525 2134.12 L 666.492 2134.12 L 675.461 2137.18 C 691.211 2142.65 701.71 2150.3 711.773 2163.65 C 730.366 2188.15 738.898 2225.34 736.273 2269.08 C 733.429 2312.18 726.429 2343.68 713.085 2371.24 C 694.492 2409.52 670.867 2432.71 640.242 2442.33 L 631.93 2444.96 L 533.712 2445.18 C 441.401 2445.4 435.495 2445.61 435.495 2447.15 C 435.495 2448.02 431.557 2483.68 426.964 2526.55 C 422.37 2569.21 418.651 2605.08 418.651 2606.17 C 418.651 2607.71 417.12 2607.92 382.121 2607.92 C 348.215 2607.92 345.808 2607.71 345.808 2606.17 zM 632.368 2340.62 C 642.867 2335.37 652.93 2322.9 657.524 2309.55 C 662.336 2295.77 664.086 2272.15 661.023 2260.55 C 657.742 2248.52 651.617 2240.43 643.086 2237.15 C 638.055 2235.4 636.524 2235.4 548.15 2235.62 L 458.245 2235.84 L 452.995 2284.4 C 450.151 2311.08 447.526 2335.37 447.307 2338.21 L 446.651 2343.68 L 536.556 2343.68 L 626.461 2343.68 L 632.368 2340.62 zM 777.397 2604.42 C 777.616 2602.46 788.991 2495.71 802.991 2367.08 L 827.928 2133.46 L 1002.49 2133.46 L 1176.83 2133.46 L 1176.39 2136.52 C 1175.95 2138.27 1173.77 2159.27 1171.14 2183.55 C 1168.52 2207.62 1166.33 2229.05 1165.89 2231.24 L 1165.45 2235.4 L 1027.43 2235.62 L 889.614 2235.84 L 885.24 2275.87 C 882.833 2297.96 880.865 2317.21 880.865 2318.74 L 880.865 2321.15 L 1002.05 2321.15 L 1123.46 2321.15 L 1123.02 2323.77 C 1122.8 2325.08 1120.61 2344.12 1118.42 2365.99 C 1116.02 2387.86 1114.05 2407.55 1113.61 2409.74 L 1113.17 2413.68 L 991.77 2413.68 C 925.052 2413.68 870.365 2413.9 870.365 2414.33 C 870.365 2414.77 868.177 2435.33 865.552 2460.27 L 860.521 2505.55 L 1003.8 2505.77 C 1082.55 2505.99 1146.86 2506.43 1146.86 2506.86 C 1146.86 2507.08 1144.46 2530.05 1141.61 2557.61 L 1136.14 2607.92 L 956.551 2607.92 L 776.96 2607.92 L 777.397 2604.42 L 777.397 2604.42 zM 1216.86 2606.17 C 1216.86 2605.3 1228.45 2498.77 1242.45 2369.27 L 1267.83 2134.12 L 1402.58 2134.12 L 1537.54 2134.12 L 1546.51 2137.18 C 1551.33 2138.71 1557.45 2141.34 1560.08 2142.87 C 1575.61 2151.84 1589.61 2169.55 1596.82 2189.46 C 1600.76 2199.96 1604.92 2216.15 1606.01 2225.12 C 1610.39 2257.27 1606.01 2305.4 1595.95 2340.62 C 1585.01 2378.24 1565.76 2408.43 1541.48 2426.8 C 1535.58 2431.4 1533.83 2432.93 1534.04 2434.46 C 1534.7 2437.74 1564.23 2602.46 1564.67 2605.3 L 1565.33 2607.92 L 1526.61 2607.92 L 1487.67 2607.92 L 1487.23 2605.3 C 1487.01 2603.77 1480.67 2568.33 1473.23 2526.11 C 1465.8 2484.11 1459.45 2448.68 1459.23 2447.58 L 1458.58 2445.4 L 1382.67 2445.4 C 1313.33 2445.4 1306.55 2445.61 1306.55 2446.93 C 1306.55 2447.8 1302.61 2483.46 1298.02 2526.33 C 1293.42 2569.21 1289.7 2605.08 1289.7 2605.96 C 1289.7 2607.71 1288.83 2607.92 1253.17 2607.92 C 1219.27 2607.92 1216.86 2607.71 1216.86 2606.17 L 1216.86 2606.17 zM 1503.42 2340.62 C 1513.92 2335.37 1524.2 2322.9 1528.79 2309.55 C 1533.39 2295.99 1535.14 2271.49 1532.08 2260.33 C 1528.79 2248.52 1522.45 2240.43 1514.14 2237.15 C 1509.11 2235.4 1507.58 2235.4 1419.2 2235.62 L 1329.3 2235.84 L 1324.27 2284.4 C 1321.2 2311.08 1318.58 2335.37 1318.36 2338.21 L 1317.7 2343.68 L 1407.61 2343.68 L 1497.51 2343.68 L 1503.42 2340.62 L 1503.42 2340.62 L 1503.42 2340.62 zM 1654.79 2606.17 C 1654.79 2605.3 1666.17 2498.77 1680.17 2369.27 L 1705.54 2134.12 L 1765.92 2133.68 L 1826.29 2133.46 L 1832.85 2172.62 C 1836.35 2194.05 1849.7 2272.37 1862.17 2346.52 C 1874.63 2420.9 1885.13 2481.49 1885.57 2481.05 C 1885.79 2480.61 1915.98 2402.3 1952.73 2306.93 L 2019.23 2133.46 L 2079.38 2133.46 L 2139.54 2133.46 L 2138.88 2138.06 C 2138.44 2141.77 2123.79 2276.96 2095.13 2544.27 L 2088.35 2607.27 L 2052.04 2607.71 L 2015.94 2607.92 L 2016.38 2603.77 C 2016.82 2601.58 2025.79 2517.58 2036.51 2416.96 C 2047.44 2316.33 2056.41 2232.55 2056.63 2231.02 C 2057.07 2229.27 2056.85 2228.84 2056.19 2229.71 C 2055.76 2230.59 2022.73 2314.15 1982.7 2415.43 C 1942.66 2516.93 1909.2 2601.58 1908.32 2603.77 L 1906.57 2607.92 L 1871.13 2607.92 C 1850.79 2607.92 1835.92 2607.49 1835.92 2607.05 C 1835.92 2605.74 1769.64 2233.21 1768.98 2230.59 C 1768.54 2229.27 1768.32 2228.84 1768.1 2229.71 C 1767.67 2231.68 1727.64 2604.21 1727.64 2606.17 C 1727.64 2607.71 1725.23 2607.92 1691.1 2607.92 C 1656.98 2607.92 1654.79 2607.71 1654.79 2606.17 L 1654.79 2606.17 zM 2179.57 2606.17 C 2179.57 2605.3 2190.94 2498.77 2204.94 2369.27 L 2230.32 2134.12 L 2266.41 2133.68 C 2298.79 2133.46 2302.72 2133.68 2302.72 2134.99 C 2302.72 2135.87 2291.35 2241.74 2277.57 2370.36 C 2263.57 2498.99 2252.19 2605.08 2252.19 2605.96 C 2252.19 2607.71 2251.32 2607.92 2215.88 2607.92 C 2181.76 2607.92 2179.35 2607.71 2179.57 2606.17 L 2179.57 2606.17 zM 2460.88 2603.77 C 2461.31 2600.71 2500.69 2236.49 2500.69 2235.62 C 2500.69 2235.4 2471.38 2235.4 2435.72 2235.4 L 2370.75 2235.4 L 2370.75 2233.21 C 2370.75 2231.9 2373.16 2209.59 2376 2183.55 C 2378.85 2157.52 2381.03 2135.65 2381.03 2134.99 C 2381.03 2133.68 2403.57 2133.46 2547.72 2133.46 L 2714.41 2133.46 L 2713.97 2136.09 C 2713.53 2138.27 2703.25 2233.65 2703.25 2234.96 C 2703.25 2235.18 2673.72 2235.4 2637.84 2235.4 L 2572.44 2235.4 L 2572.44 2237.8 C 2572.44 2239.34 2563.47 2322.9 2552.53 2423.96 L 2532.84 2607.27 L 2496.53 2607.71 L 2460.44 2607.92 L 2460.88 2603.77 L 2460.88 2603.77 L 2460.88 2603.77 zM 4064.51 2606.17 C 4064.51 2605.3 4075.89 2498.77 4089.89 2369.27 L 4115.26 2134.12 L 4250.23 2134.12 L 4385.2 2134.12 L 4393.95 2137.18 C 4398.98 2138.71 4405.1 2141.34 4407.73 2142.87 C 4423.26 2151.84 4437.26 2169.55 4444.48 2189.46 C 4448.2 2199.96 4452.57 2216.15 4453.67 2225.12 C 4458.04 2257.27 4453.67 2305.4 4443.38 2340.62 C 4432.45 2378.24 4413.42 2408.43 4388.92 2426.8 C 4383.23 2431.4 4381.48 2432.93 4381.7 2434.46 C 4382.14 2437.74 4411.67 2602.46 4412.32 2605.3 L 4412.76 2607.92 L 4374.04 2607.92 L 4335.32 2607.92 L 4334.89 2605.3 C 4334.45 2603.77 4328.1 2568.33 4320.67 2526.11 C 4313.23 2484.11 4306.89 2448.68 4306.67 2447.58 L 4306.23 2445.4 L 4230.11 2445.4 C 4159.89 2445.4 4153.98 2445.4 4153.98 2446.93 C 4153.98 2447.8 4150.26 2483.46 4145.67 2526.33 C 4141.08 2569.21 4137.36 2605.08 4137.36 2605.96 C 4137.36 2607.71 4136.26 2607.92 4100.83 2607.92 C 4066.7 2607.92 4064.51 2607.71 4064.51 2606.17 L 4064.51 2606.17 L 4064.51 2606.17 zM 4351.07 2340.62 C 4361.57 2335.37 4371.64 2322.9 4376.23 2309.55 C 4381.04 2295.99 4382.57 2271.49 4379.73 2260.33 C 4376.45 2248.52 4370.1 2240.43 4361.79 2237.15 C 4356.76 2235.4 4355.23 2235.4 4266.86 2235.62 L 4176.95 2235.84 L 4171.7 2284.4 C 4168.86 2311.08 4166.23 2335.37 4165.79 2338.21 L 4165.36 2343.68 L 4255.26 2343.68 L 4345.17 2343.68 L 4351.07 2340.62 L 4351.07 2340.62 zM 4502.45 2606.17 C 4502.45 2605.3 4513.82 2498.77 4527.82 2369.27 L 4553.2 2134.12 L 4727.54 2133.68 L 4902.1 2133.46 L 4901.44 2136.52 C 4901.22 2138.27 4898.82 2159.27 4896.41 2183.55 C 4893.79 2207.62 4891.38 2229.05 4891.16 2231.24 L 4890.5 2235.4 L 4752.69 2235.62 L 4614.88 2235.84 L 4610.51 2275.87 C 4608.1 2297.96 4606.13 2317.21 4605.91 2318.74 L 4605.91 2321.15 L 4727.32 2321.15 L 4848.72 2321.15 L 4848.29 2323.77 C 4848.07 2325.08 4845.88 2344.12 4843.47 2365.99 C 4841.29 2387.86 4839.1 2407.55 4838.88 2409.74 L 4838.22 2413.68 L 4717.04 2413.68 C 4650.32 2413.68 4595.63 2413.9 4595.63 2414.33 C 4595.63 2414.77 4593.45 2435.33 4590.82 2460.27 L 4585.79 2505.55 L 4728.85 2505.77 C 4807.6 2505.99 4872.13 2506.43 4872.13 2506.86 C 4872.13 2507.08 4869.72 2530.05 4866.66 2557.61 L 4861.41 2607.92 L 4681.82 2607.92 C 4511.41 2607.92 4502.23 2607.71 4502.45 2606.17 L 4502.45 2606.17 L 4502.45 2606.17 zM 5406.97 2606.17 C 5407.19 2605.3 5418.56 2498.77 5432.56 2369.27 L 5457.93 2134.12 L 5494.03 2133.68 C 5526.4 2133.46 5530.34 2133.68 5530.34 2134.99 C 5530.34 2135.87 5518.97 2241.74 5504.97 2370.36 C 5491.18 2498.99 5479.81 2605.08 5479.81 2605.96 C 5479.81 2607.71 5478.72 2607.92 5443.5 2607.92 C 5409.37 2607.92 5406.97 2607.71 5406.97 2606.17 L 5406.97 2606.17 L 5406.97 2606.17 zM 6100.18 2603.77 C 6100.61 2600.71 6139.99 2236.71 6139.99 2235.62 C 6139.99 2235.4 6110.68 2235.4 6075.02 2235.4 L 6010.05 2235.4 L 6010.05 2233.21 C 6010.05 2231.9 6012.46 2209.59 6015.3 2183.55 C 6018.15 2157.52 6020.33 2135.65 6020.33 2134.99 C 6020.33 2133.68 6042.87 2133.46 6187.02 2133.46 L 6353.71 2133.46 L 6353.27 2136.09 C 6352.83 2138.27 6342.55 2233.65 6342.55 2234.96 C 6342.55 2235.18 6313.02 2235.4 6277.14 2235.4 L 6211.74 2235.4 L 6211.74 2237.8 C 6211.74 2239.34 6202.77 2322.9 6191.83 2423.96 L 6172.15 2607.27 L 6135.83 2607.71 L 6099.74 2607.92 L 6100.18 2603.77 zM 6380.83 2607.05 C 6380.83 2606.61 6399.42 2432.93 6425.02 2196.02 L 6431.8 2134.12 L 6566.55 2134.12 L 6701.51 2134.12 L 6710.26 2137.18 C 6715.29 2138.71 6721.42 2141.34 6724.04 2142.87 C 6739.58 2151.84 6753.58 2169.55 6760.79 2189.46 C 6764.73 2199.96 6768.89 2216.15 6769.98 2225.12 C 6774.36 2257.27 6769.98 2305.4 6759.7 2340.62 C 6748.76 2378.24 6729.73 2408.43 6705.23 2426.8 C 6699.55 2431.4 6697.8 2432.93 6698.01 2434.46 C 6698.67 2437.74 6727.98 2602.46 6728.64 2605.3 L 6729.29 2607.92 L 6690.36 2607.92 L 6651.64 2607.92 L 6651.2 2605.3 C 6650.76 2603.77 6644.64 2568.33 6636.98 2526.11 C 6629.55 2484.11 6623.42 2448.68 6622.98 2447.58 L 6622.55 2445.4 L 6546.42 2445.4 C 6476.2 2445.4 6470.52 2445.4 6470.52 2446.93 C 6470.52 2447.8 6466.58 2483.46 6461.99 2526.33 C 6457.39 2569.21 6453.67 2605.08 6453.67 2605.96 C 6453.67 2607.71 6452.58 2607.92 6417.14 2607.92 C 6397.24 2607.92 6380.83 2607.49 6380.83 2607.05 L 6380.83 2607.05 zM 6667.39 2340.62 C 6677.89 2335.37 6687.95 2322.9 6692.55 2309.55 C 6697.36 2295.99 6699.11 2271.49 6696.05 2260.33 C 6692.76 2248.52 6686.42 2240.43 6678.11 2237.15 C 6673.08 2235.4 6671.55 2235.4 6583.17 2235.62 L 6493.27 2235.84 L 6488.02 2284.4 C 6485.17 2311.08 6482.55 2335.37 6482.33 2338.21 L 6481.67 2343.68 L 6571.58 2343.68 L 6661.48 2343.68 L 6667.39 2340.62 zM 6792.95 2604.86 C 6793.83 2603.11 6842.61 2496.58 6901.67 2367.96 L 7008.85 2134.12 L 7055.45 2134.12 L 7102.04 2134.12 L 7159.35 2370.58 L 7216.88 2607.27 L 7178.6 2607.71 C 7157.6 2607.71 7140.32 2607.71 7140.1 2607.49 C 7139.88 2607.27 7134.63 2585.83 7128.29 2560.02 L 7116.7 2512.99 L 7014.54 2512.77 L 6912.6 2512.55 L 6890.73 2560.24 L 6868.86 2607.92 L 6830.14 2607.92 L 6791.64 2607.92 L 6792.95 2604.86 L 6792.95 2604.86 zM 7088.92 2397.93 C 7077.32 2349.37 7046.26 2223.59 7046.04 2223.37 C 7045.82 2223.15 7045.17 2224.46 7044.29 2226.21 C 7043.63 2227.74 7024.82 2268.65 7002.51 2316.99 C 6980.42 2365.33 6961.6 2406.24 6960.95 2407.77 L 6959.64 2410.83 L 7025.92 2410.83 L 7091.98 2410.83 L 7088.92 2397.93 zM 7399.76 2603.77 C 7400.19 2600.71 7439.57 2236.71 7439.57 2235.62 C 7439.57 2235.4 7410.26 2235.4 7374.6 2235.4 L 7309.85 2235.4 L 7309.85 2233.21 C 7309.85 2231.9 7312.04 2209.59 7314.88 2183.55 C 7317.73 2157.52 7320.13 2135.65 7320.13 2134.99 C 7320.13 2133.68 7342.44 2133.46 7486.6 2133.46 L 7653.28 2133.46 L 7652.85 2136.09 C 7652.41 2138.27 7642.13 2233.65 7642.13 2234.96 C 7642.13 2235.18 7612.82 2235.4 7576.72 2235.4 L 7511.54 2235.4 L 7511.32 2237.8 C 7511.32 2239.34 7502.35 2322.9 7491.63 2423.96 L 7471.72 2607.27 L 7435.41 2607.71 L 7399.32 2607.92 L 7399.76 2603.77 zM 7680.41 2606.17 C 7680.41 2605.3 7692 2498.77 7706 2369.27 L 7731.38 2134.12 L 7767.47 2133.68 C 7799.84 2133.46 7803.56 2133.68 7803.56 2134.99 C 7803.56 2135.87 7792.41 2241.74 7778.41 2370.36 C 7764.63 2498.99 7753.25 2605.08 7753.25 2605.96 C 7753.25 2607.71 7752.16 2607.92 7716.94 2607.92 C 7682.81 2607.92 7680.41 2607.71 7680.41 2606.17 zM 8293.78 2606.17 C 8293.99 2605.3 8305.37 2498.77 8319.37 2369.27 L 8344.74 2134.12 L 8381.06 2133.9 L 8417.59 2133.46 L 8503.99 2298.83 C 8551.46 2389.61 8590.4 2463.99 8590.83 2463.99 C 8591.05 2463.99 8594.12 2437.52 8597.62 2404.93 C 8601.12 2372.55 8608.99 2298.18 8615.33 2239.99 L 8626.71 2134.12 L 8662.8 2133.68 L 8699.11 2133.46 L 8699.11 2135.65 C 8699.11 2136.74 8687.74 2243.05 8673.74 2371.68 C 8659.96 2500.3 8648.58 2605.96 8648.58 2606.61 C 8648.58 2607.71 8640.93 2607.71 8612.05 2607.71 L 8575.52 2607.27 L 8489.12 2442.33 C 8441.43 2351.55 8402.49 2277.62 8402.27 2277.83 C 8401.84 2278.27 8366.62 2601.8 8366.62 2605.74 L 8366.62 2607.92 L 8330.31 2607.92 C 8296.18 2607.92 8293.78 2607.71 8293.78 2606.17 L 8293.78 2606.17 z"/>
</g>

</svg>