<?xml version="1.0" encoding="UTF-8" ?>
<!-- Sure Cuts A Lot -->
<!DOCTYPE svg PUBLIC "-//W3C//DTD SVG 1.1//EN" "http://www.w3.org/Graphics/SVG/1.1/DTD/svg11.dtd">
<svg version="1.1" xmlns="http://www.w3.org/2000/svg" xmlns:xlink="http://www.w3.org/1999/xlink" xmlns:scal="http://www.craftedge.com/namespaces/surecutsalot" scal:dpi="300" x="0px" y="0px" width="9000px" height="3000px" viewBox="0 0 9000 3000" xml:space="preserve">
<g id="&lt;Merge&gt; &lt;break&gt;">
<path id="&lt;Merge&gt;" style="fill-rule:evenodd;fill:#676767;stroke:#676767;stroke-width:0.75;" d="M 8699.88 2461.17 C 8699.88 2478.54 8695.26 2494.91 8686.01 2510.29 C 8676.76 2525.66 8662.57 2539.1 8643.44 2550.6 C 8624.26 2562.16 8600.32 2571.16 8571.63 2577.66 C 8542.89 2584.22 8508.89 2587.47 8469.58 2587.47 C 8449.45 2587.47 8428.83 2585.79 8407.7 2582.41 C 8389.52 2579.79 8369.58 2575.54 8347.77 2569.85 C 8325.95 2564.16 8304.89 2555.97 8284.39 2545.29 L 8314.58 2475.1 C 8332.77 2484.48 8351.02 2491.66 8369.33 2496.85 C 8387.64 2502.1 8404.2 2505.85 8419.08 2508.1 C 8436.58 2510.85 8453.45 2512.29 8469.58 2512.66 C 8519.14 2512.66 8556.01 2508.1 8580.32 2499.1 C 8604.57 2490.1 8616.7 2478.16 8616.7 2463.48 C 8616.7 2454.17 8612.88 2447.29 8605.32 2442.92 C 8597.7 2438.54 8586.01 2436.04 8570.13 2435.42 C 8566.51 2435.04 8559.7 2434.67 8549.57 2434.17 C 8539.57 2433.73 8527.26 2433.1 8512.76 2432.48 C 8498.2 2431.85 8482.07 2431.17 8464.26 2430.54 C 8446.45 2429.85 8427.95 2429.04 8408.83 2428.04 C 8389.7 2427.1 8372.08 2424.42 8356.08 2420.04 C 8340.08 2415.73 8326.27 2409.48 8314.52 2401.29 C 8302.83 2393.1 8293.71 2383.11 8287.08 2371.29 C 8280.46 2359.42 8277.14 2345.54 8277.14 2329.48 C 8277.14 2313.48 8282.39 2298.36 8292.77 2284.23 C 8303.21 2270.05 8318.02 2257.67 8337.33 2247.23 C 8356.64 2236.67 8380.08 2228.42 8407.64 2222.42 C 8435.26 2216.42 8465.95 2213.42 8500.01 2213.42 C 8520.14 2213.42 8540.64 2214.92 8561.45 2217.99 C 8579.26 2220.61 8599.13 2224.48 8621.13 2229.48 C 8643.01 2234.55 8664.44 2241.92 8685.26 2251.61 L 8658.94 2320.79 C 8648.76 2316.42 8637.2 2312.23 8624.32 2308.29 C 8611.45 2304.29 8598.01 2300.8 8583.95 2297.73 C 8569.95 2294.8 8555.76 2292.42 8541.32 2290.73 C 8527.01 2289.11 8513.26 2288.23 8500.01 2288.23 C 8480.2 2288.23 8461.83 2289.17 8444.76 2290.98 C 8427.83 2292.8 8413.01 2295.55 8400.45 2299.23 C 8387.95 2302.92 8378.08 2307.42 8371.02 2312.73 C 8363.89 2318.04 8360.39 2324.04 8360.39 2330.73 C 8360.39 2339.36 8364.02 2345.86 8371.27 2350.17 C 8378.52 2354.48 8389.2 2356.98 8403.39 2357.67 C 8419.26 2358.29 8441.51 2359.29 8470.2 2360.61 C 8498.95 2361.92 8532.89 2363.36 8572.2 2365.04 C 8591.95 2366.04 8609.7 2368.67 8625.38 2372.98 C 8641.07 2377.36 8654.44 2383.54 8665.44 2391.54 C 8676.51 2399.54 8685.01 2409.42 8690.94 2421.17 C 8696.88 2432.79 8699.88 2446.17 8699.88 2461.17 zM 7769.78 2574.22 L 7769.78 2223.67 L 8187.21 2223.67 L 8187.21 2299.48 L 7856.91 2299.48 L 7856.91 2362.54 L 8147.58 2362.54 L 8147.58 2430.54 L 7856.91 2430.54 L 7856.91 2498.48 L 8200.08 2498.48 L 8200.08 2574.22 L 7769.78 2574.22 L 7769.78 2574.22 L 7769.78 2574.22 zM 7680.22 2482.23 C 7671.66 2497.23 7660.54 2510.98 7647.04 2523.54 C 7633.48 2536.1 7617.6 2547.04 7599.48 2556.41 C 7581.29 2565.72 7561.04 2573.04 7538.54 2578.22 C 7516.1 2583.35 7491.48 2585.97 7464.79 2585.97 C 7426.79 2585.97 7392.86 2580.97 7362.98 2570.97 C 7333.11 2560.97 7307.92 2547.48 7287.3 2530.41 C 7266.74 2513.41 7250.99 2493.6 7240.11 2471.1 C 7229.24 2448.54 7223.8 2424.6 7223.8 2399.23 C 7223.8 2373.86 7229.24 2349.92 7240.11 2327.36 C 7250.99 2304.86 7266.74 2285.05 7287.3 2268.05 C 7307.92 2251.05 7333.11 2237.48 7362.98 2227.48 C 7392.86 2217.49 7426.79 2212.49 7464.79 2212.49 C 7490.54 2212.49 7514.42 2214.86 7536.35 2219.73 C 7558.29 2224.61 7578.16 2231.42 7596.04 2240.3 C 7613.85 2249.17 7629.54 2259.55 7643.04 2271.36 C 7656.6 2283.23 7667.85 2296.17 7676.72 2310.23 L 7598.48 2350.29 C 7593.54 2341.92 7586.85 2334.11 7578.41 2326.73 C 7570.04 2319.42 7559.98 2313.04 7548.23 2307.73 C 7536.48 2302.42 7523.29 2298.11 7508.6 2294.92 C 7493.92 2291.8 7478.17 2290.17 7461.29 2290.17 C 7436.86 2290.17 7415.48 2293.11 7397.17 2298.92 C 7378.86 2304.79 7363.67 2312.73 7351.61 2322.67 C 7339.55 2332.67 7330.48 2344.29 7324.36 2357.48 C 7318.3 2370.61 7315.23 2384.54 7315.23 2399.23 C 7315.23 2413.6 7318.3 2427.29 7324.36 2440.48 C 7330.48 2453.6 7339.55 2465.23 7351.61 2475.23 C 7363.67 2485.23 7378.86 2493.29 7397.17 2499.23 C 7415.48 2505.23 7436.86 2508.23 7461.29 2508.23 C 7479.1 2508.23 7495.6 2506.48 7510.85 2503.04 C 7526.04 2499.48 7539.6 2494.73 7551.42 2488.73 C 7563.29 2482.73 7573.6 2475.66 7582.16 2467.73 C 7590.73 2459.67 7597.16 2451.17 7601.48 2442.17 L 7680.22 2482.23 L 7680.22 2482.23 L 7680.22 2482.23 zM 7044.87 2574.22 L 7044.87 2223.67 L 7131.93 2223.67 L 7131.93 2574.22 L 7044.87 2574.22 L 7044.87 2574.22 zM 6787.19 2574.22 L 6676.25 2574.22 L 6495.51 2223.67 L 6592.07 2223.67 L 6731.75 2500.16 L 6871.37 2223.67 L 6967.93 2223.67 L 6787.19 2574.22 L 6787.19 2574.22 zM 6428.76 2338.92 C 6428.76 2354.23 6426.76 2367.79 6422.76 2379.48 C 6418.82 2391.17 6413.64 2401.23 6407.2 2409.79 C 6400.76 2418.29 6393.51 2425.35 6385.39 2431.04 C 6377.33 2436.67 6369.14 2441.23 6360.89 2444.54 L 6421.32 2574.22 L 6328.26 2574.22 L 6272.83 2454.48 L 6091.15 2454.48 L 6091.15 2574.22 L 6004.09 2574.22 L 6004.09 2223.67 L 6315.39 2223.67 C 6324.64 2223.67 6335.76 2225.36 6348.76 2228.67 C 6361.83 2232.05 6374.26 2237.98 6386.2 2246.48 C 6398.07 2254.98 6408.14 2266.67 6416.39 2281.55 C 6424.64 2296.42 6428.76 2315.54 6428.76 2338.92 L 6428.76 2338.92 L 6428.76 2338.92 L 6428.76 2338.92 zM 6341.7 2338.86 C 6341.7 2330.54 6340.2 2323.79 6337.26 2318.67 C 6334.26 2313.48 6330.64 2309.54 6326.33 2306.73 C 6322.01 2303.92 6317.7 2301.98 6313.2 2300.98 C 6308.76 2299.98 6305.2 2299.48 6302.58 2299.48 L 6091.15 2299.48 L 6091.15 2378.67 L 6302.58 2378.67 C 6304.52 2378.67 6307.7 2378.11 6311.95 2376.98 C 6316.26 2375.79 6320.64 2373.73 6325.14 2370.73 C 6329.58 2367.73 6333.39 2363.67 6336.7 2358.48 C 6340.01 2353.36 6341.7 2346.79 6341.7 2338.86 L 6341.7 2338.86 L 6341.7 2338.86 zM 5476.91 2574.22 L 5476.91 2223.67 L 5894.28 2223.67 L 5894.28 2299.48 L 5563.97 2299.48 L 5563.97 2362.54 L 5854.72 2362.54 L 5854.72 2430.54 L 5563.97 2430.54 L 5563.97 2498.48 L 5907.21 2498.48 L 5907.21 2574.22 L 5476.91 2574.22 L 5476.91 2574.22 zM 5387.48 2461.17 C 5387.48 2478.54 5382.86 2494.91 5373.61 2510.29 C 5364.36 2525.66 5350.17 2539.1 5331.04 2550.6 C 5311.86 2562.16 5287.98 2571.16 5259.23 2577.66 C 5230.48 2584.22 5196.49 2587.47 5157.17 2587.47 C 5137.05 2587.47 5116.43 2585.79 5095.3 2582.41 C 5077.11 2579.79 5057.18 2575.54 5035.37 2569.85 C 5013.55 2564.16 4992.49 2555.97 4971.99 2545.29 L 5002.18 2475.1 C 5020.3 2484.48 5038.62 2491.66 5056.93 2496.85 C 5075.24 2502.1 5091.8 2505.85 5106.68 2508.1 C 5124.18 2510.85 5141.05 2512.29 5157.17 2512.66 C 5206.74 2512.66 5243.61 2508.1 5267.92 2499.1 C 5292.17 2490.1 5304.3 2478.16 5304.3 2463.48 C 5304.3 2454.17 5300.48 2447.29 5292.92 2442.92 C 5285.36 2438.54 5273.55 2436.04 5257.8 2435.42 C 5254.11 2435.04 5247.23 2434.67 5237.23 2434.17 C 5227.17 2433.73 5214.86 2433.1 5200.36 2432.48 C 5185.8 2431.85 5169.67 2431.17 5151.8 2430.54 C 5134.05 2429.85 5115.55 2429.04 5096.43 2428.04 C 5077.3 2427.1 5059.68 2424.42 5043.68 2420.04 C 5027.68 2415.73 5013.8 2409.48 5002.12 2401.29 C 4990.43 2393.1 4981.3 2383.11 4974.68 2371.29 C 4968.06 2359.42 4964.74 2345.54 4964.74 2329.48 C 4964.74 2313.48 4969.99 2298.36 4980.37 2284.23 C 4990.74 2270.05 5005.62 2257.67 5024.93 2247.23 C 5044.24 2236.67 5067.68 2228.42 5095.24 2222.42 C 5122.86 2216.42 5153.61 2213.42 5187.61 2213.42 C 5207.74 2213.42 5228.23 2214.92 5249.05 2217.99 C 5266.86 2220.61 5286.73 2224.48 5308.73 2229.48 C 5330.61 2234.55 5352.04 2241.92 5372.86 2251.61 L 5346.54 2320.79 C 5336.36 2316.42 5324.79 2312.23 5311.92 2308.29 C 5299.05 2304.29 5285.61 2300.8 5271.55 2297.73 C 5257.55 2294.8 5243.36 2292.42 5228.92 2290.73 C 5214.61 2289.11 5200.86 2288.23 5187.61 2288.23 C 5167.8 2288.23 5149.42 2289.17 5132.36 2290.98 C 5115.43 2292.8 5100.61 2295.55 5088.05 2299.23 C 5075.55 2302.92 5065.74 2307.42 5058.61 2312.73 C 5051.49 2318.04 5047.99 2324.04 5047.99 2330.73 C 5047.99 2339.36 5051.62 2345.86 5058.86 2350.17 C 5066.11 2354.48 5076.8 2356.98 5090.99 2357.67 C 5106.86 2358.29 5129.11 2359.29 5157.8 2360.61 C 5186.55 2361.92 5220.55 2363.36 5259.8 2365.04 C 5279.55 2366.04 5297.3 2368.67 5312.98 2372.98 C 5328.67 2377.36 5342.04 2383.54 5353.04 2391.54 C 5364.11 2399.54 5372.61 2409.42 5378.54 2421.17 C 5384.48 2432.79 5387.48 2446.17 5387.48 2461.17 zM 4170.14 2574.22 L 4170.14 2223.67 L 4587.57 2223.67 L 4587.57 2299.48 L 4257.2 2299.48 L 4257.2 2362.54 L 4547.94 2362.54 L 4547.94 2430.54 L 4257.2 2430.54 L 4257.2 2498.48 L 4600.44 2498.48 L 4600.44 2574.22 L 4170.14 2574.22 L 4170.14 2574.22 zM 4080.52 2482.23 C 4071.96 2497.23 4060.89 2510.98 4047.4 2523.54 C 4033.83 2536.1 4017.96 2547.04 3999.83 2556.41 C 3981.65 2565.72 3961.4 2573.04 3938.9 2578.22 C 3916.46 2583.35 3891.84 2585.97 3865.09 2585.97 C 3827.15 2585.97 3793.22 2580.97 3763.34 2570.97 C 3733.47 2560.97 3708.22 2547.48 3687.66 2530.41 C 3667.09 2513.41 3651.34 2493.6 3640.47 2471.1 C 3629.6 2448.54 3624.16 2424.6 3624.16 2399.23 C 3624.16 2373.86 3629.6 2349.92 3640.47 2327.36 C 3651.34 2304.86 3667.09 2285.05 3687.66 2268.05 C 3708.22 2251.05 3733.47 2237.48 3763.34 2227.48 C 3793.22 2217.49 3827.15 2212.49 3865.09 2212.49 C 3890.84 2212.49 3914.77 2214.86 3936.65 2219.73 C 3958.65 2224.55 3978.52 2231.42 3996.33 2240.3 C 4014.21 2249.17 4029.9 2259.55 4043.4 2271.42 C 4056.9 2283.23 4068.14 2296.17 4077.08 2310.23 L 3998.83 2350.29 C 3993.9 2341.92 3987.15 2334.11 3978.77 2326.73 C 3970.34 2319.42 3960.27 2313.11 3948.59 2307.73 C 3936.84 2302.42 3923.59 2298.11 3908.96 2294.92 C 3894.27 2291.8 3878.46 2290.17 3861.65 2290.17 C 3837.21 2290.17 3815.84 2293.11 3797.53 2298.92 C 3779.15 2304.79 3764.03 2312.73 3751.9 2322.67 C 3739.9 2332.67 3730.84 2344.29 3724.72 2357.48 C 3718.59 2370.61 3715.59 2384.54 3715.59 2399.23 C 3715.59 2413.6 3718.59 2427.29 3724.72 2440.48 C 3730.84 2453.67 3739.9 2465.23 3751.9 2475.23 C 3764.03 2485.23 3779.15 2493.29 3797.53 2499.23 C 3815.84 2505.23 3837.21 2508.23 3861.65 2508.23 C 3879.46 2508.23 3895.96 2506.54 3911.21 2503.04 C 3926.34 2499.48 3939.9 2494.73 3951.77 2488.73 C 3963.65 2482.73 3973.9 2475.66 3982.46 2467.73 C 3991.08 2459.67 3997.46 2451.17 4001.83 2442.17 L 4080.52 2482.23 L 4080.52 2482.23 L 4080.52 2482.23 zM 3445.23 2574.22 L 3194.67 2329.36 L 3194.67 2574.22 L 3107.61 2574.22 L 3107.61 2223.67 L 3194.67 2223.67 L 3445.23 2468.6 L 3445.23 2223.67 L 3532.29 2223.67 L 3532.29 2574.22 L 3445.23 2574.22 L 3445.23 2574.22 L 3445.23 2574.22 zM 2937.99 2574.22 L 2897.93 2504.29 L 2653.75 2504.29 L 2613.63 2574.22 L 2521 2574.22 L 2720.12 2223.67 L 2831.49 2223.67 L 3030.61 2574.22 L 2937.99 2574.22 L 2937.99 2574.22 L 2937.99 2574.22 zM 2776.06 2289.36 L 2696.81 2428.54 L 2855.31 2428.54 L 2776.06 2289.36 L 2776.06 2289.36 L 2776.06 2289.36 zM 2454.26 2338.92 C 2454.26 2354.23 2452.26 2367.79 2448.26 2379.48 C 2444.38 2391.17 2439.13 2401.23 2432.69 2409.79 C 2426.26 2418.29 2419.01 2425.35 2410.94 2431.04 C 2402.82 2436.67 2394.69 2441.23 2386.38 2444.54 L 2446.82 2574.22 L 2353.76 2574.22 L 2298.32 2454.48 L 2116.7 2454.48 L 2116.7 2574.22 L 2029.58 2574.22 L 2029.58 2223.67 L 2340.95 2223.67 C 2350.13 2223.67 2361.32 2225.36 2374.32 2228.67 C 2387.38 2232.05 2399.76 2237.98 2411.69 2246.48 C 2423.57 2254.98 2433.63 2266.67 2441.88 2281.55 C 2450.13 2296.42 2454.26 2315.54 2454.26 2338.92 L 2454.26 2338.92 L 2454.26 2338.92 zM 2367.2 2338.86 C 2367.2 2330.54 2365.7 2323.79 2362.76 2318.67 C 2359.76 2313.48 2356.13 2309.54 2351.88 2306.73 C 2347.51 2303.92 2343.2 2301.98 2338.7 2300.98 C 2334.26 2299.98 2330.7 2299.48 2328.07 2299.48 L 2116.7 2299.48 L 2116.7 2378.67 L 2328.07 2378.67 C 2330.01 2378.67 2333.2 2378.11 2337.45 2376.98 C 2341.76 2375.79 2346.13 2373.73 2350.63 2370.73 C 2355.07 2367.73 2358.95 2363.67 2362.26 2358.48 C 2365.51 2353.36 2367.2 2346.79 2367.2 2338.86 L 2367.2 2338.86 L 2367.2 2338.86 zM 1928.08 2399.1 C 1928.08 2424.48 1923.27 2448.48 1913.71 2470.98 C 1904.08 2493.54 1890.34 2513.35 1872.52 2530.35 C 1854.65 2547.41 1833.02 2560.97 1807.59 2570.97 C 1782.15 2580.97 1753.53 2585.97 1721.78 2585.97 C 1690.03 2585.97 1661.47 2580.97 1636.03 2570.97 C 1610.53 2560.97 1588.84 2547.41 1570.84 2530.35 C 1552.78 2513.35 1538.97 2493.54 1529.41 2470.98 C 1519.78 2448.48 1515.03 2424.48 1515.03 2399.1 L 1515.03 2223.67 L 1602.09 2223.67 L 1602.09 2398.98 C 1602.09 2414.04 1604.47 2428.29 1609.28 2441.85 C 1614.09 2455.35 1621.41 2467.29 1631.16 2477.6 C 1640.91 2487.98 1653.34 2496.16 1668.4 2502.16 C 1683.47 2508.16 1701.22 2511.23 1721.78 2511.23 C 1742.28 2511.23 1760.03 2508.16 1774.96 2502.16 C 1789.84 2496.16 1802.21 2487.98 1811.96 2477.6 C 1821.71 2467.29 1828.96 2455.35 1833.84 2441.85 C 1838.65 2428.29 1840.96 2414.04 1840.96 2398.98 L 1840.96 2223.67 L 1928.08 2223.67 L 1928.08 2399.1 L 1928.08 2399.1 L 1928.08 2399.1 L 1928.08 2399.1 zM 1433.29 2461.17 C 1433.29 2478.54 1428.66 2494.91 1419.41 2510.29 C 1410.22 2525.66 1396.04 2539.1 1376.85 2550.6 C 1357.66 2562.16 1333.73 2571.16 1305.04 2577.66 C 1276.35 2584.22 1242.35 2587.47 1203.04 2587.47 C 1182.92 2587.47 1162.29 2585.79 1141.11 2582.41 C 1122.98 2579.79 1102.98 2575.54 1081.23 2569.85 C 1059.42 2564.16 1038.3 2555.97 1017.86 2545.29 L 1047.99 2475.1 C 1066.17 2484.48 1084.42 2491.66 1102.73 2496.85 C 1121.05 2502.1 1137.67 2505.85 1152.54 2508.1 C 1169.98 2510.85 1186.86 2512.29 1203.04 2512.66 C 1252.54 2512.66 1289.42 2508.1 1313.73 2499.1 C 1337.98 2490.1 1350.1 2478.16 1350.1 2463.48 C 1350.1 2454.17 1346.35 2447.29 1338.73 2442.92 C 1331.1 2438.54 1319.41 2436.04 1303.6 2435.42 C 1299.98 2435.04 1293.1 2434.67 1283.04 2434.17 C 1272.98 2433.73 1260.73 2433.1 1246.23 2432.48 C 1231.67 2431.85 1215.54 2431.17 1197.67 2430.54 C 1179.86 2429.85 1161.42 2429.04 1142.23 2428.04 C 1123.11 2427.1 1105.55 2424.42 1089.55 2420.04 C 1073.55 2415.73 1059.67 2409.48 1047.99 2401.29 C 1036.24 2393.1 1027.11 2383.11 1020.49 2371.29 C 1013.92 2359.42 1010.61 2345.54 1010.61 2329.48 C 1010.61 2313.48 1015.8 2298.36 1026.17 2284.23 C 1036.61 2270.05 1051.49 2257.67 1070.73 2247.23 C 1090.05 2236.67 1113.55 2228.42 1141.05 2222.42 C 1168.67 2216.42 1199.42 2213.42 1233.48 2213.42 C 1253.6 2213.42 1274.04 2214.92 1294.85 2217.99 C 1312.73 2220.61 1332.54 2224.48 1354.54 2229.48 C 1376.48 2234.55 1397.85 2241.92 1418.66 2251.61 L 1392.41 2320.79 C 1382.16 2316.42 1370.66 2312.23 1357.73 2308.29 C 1344.91 2304.29 1331.41 2300.8 1317.41 2297.73 C 1303.35 2294.8 1289.17 2292.42 1274.79 2290.73 C 1260.42 2289.11 1246.67 2288.23 1233.48 2288.23 C 1213.67 2288.23 1195.23 2289.17 1178.23 2290.98 C 1161.23 2292.8 1146.42 2295.55 1133.92 2299.23 C 1121.36 2302.92 1111.48 2307.42 1104.42 2312.73 C 1097.3 2318.04 1093.8 2324.04 1093.8 2330.73 C 1093.8 2339.36 1097.42 2345.86 1104.73 2350.17 C 1111.92 2354.48 1122.67 2356.98 1136.86 2357.67 C 1152.67 2358.29 1174.98 2359.29 1203.67 2360.61 C 1232.35 2361.92 1266.35 2363.36 1305.67 2365.04 C 1325.41 2366.04 1343.16 2368.67 1358.85 2372.98 C 1374.48 2377.36 1387.85 2383.54 1398.91 2391.54 C 1409.97 2399.54 1418.47 2409.42 1424.41 2421.17 C 1430.35 2432.79 1433.29 2446.17 1433.29 2461.17 zM 834.054 2574.22 L 583.562 2329.36 L 583.562 2574.22 L 496.502 2574.22 L 496.502 2223.67 L 583.562 2223.67 L 834.054 2468.6 L 834.054 2223.67 L 921.177 2223.67 L 921.177 2574.22 L 834.054 2574.22 L 834.054 2574.22 zM 300.133 2574.22 L 300.133 2223.67 L 387.193 2223.67 L 387.193 2574.22 L 300.133 2574.22 L 300.133 2574.22 z"/>
<path id="&lt;Merge&gt;" style="fill-rule:evenodd;fill:#354C75;stroke:#354C75;stroke-width:0.75;" d="M 8589.26 1786.81 C 8589.26 1819.18 8580.51 1849.81 8563.07 1878.5 C 8545.64 1907.12 8518.89 1932.24 8482.76 1953.74 C 8446.58 1975.24 8401.51 1992.12 8347.27 2004.24 C 8293.08 2016.43 8228.89 2022.49 8154.71 2022.49 C 8116.77 2022.49 8077.84 2019.37 8037.9 2013.12 C 8003.65 2008.18 7965.97 2000.3 7924.78 1989.68 C 7883.72 1979.05 7843.78 1963.74 7805.22 1943.81 L 7862.22 1812.81 C 7896.47 1830.18 7930.9 1843.75 7965.47 1853.37 C 8000.03 1863.12 8031.4 1870.12 8059.4 1874.43 C 8092.4 1879.5 8124.27 1882.18 8154.71 1882.87 C 8248.14 1882.87 8317.77 1874.43 8363.64 1857.56 C 8409.39 1840.75 8432.26 1818.56 8432.26 1791.06 C 8432.26 1773.62 8425.14 1760.81 8410.83 1752.75 C 8396.51 1744.56 8374.33 1739.87 8344.52 1738.69 C 8337.64 1738 8324.7 1737.25 8305.71 1736.37 C 8286.71 1735.5 8263.58 1734.44 8236.21 1733.19 C 8208.77 1732 8178.27 1730.75 8144.58 1729.56 C 8111.02 1728.31 8076.15 1726.81 8040.03 1725 C 8003.9 1723.12 7970.72 1718.19 7940.53 1710 C 7910.4 1701.94 7884.22 1690.25 7862.09 1675.06 C 7840.03 1659.75 7822.78 1641.06 7810.28 1618.94 C 7797.85 1596.88 7791.6 1570.88 7791.6 1541.01 C 7791.6 1511.13 7801.47 1482.88 7821.03 1456.51 C 7840.66 1430.01 7868.72 1406.95 7905.15 1387.38 C 7941.53 1367.7 7985.84 1352.32 8037.84 1341.14 C 8089.9 1329.95 8147.9 1324.32 8212.15 1324.32 C 8250.14 1324.32 8288.77 1327.14 8328.02 1332.76 C 8361.7 1337.76 8399.14 1344.95 8440.64 1354.26 C 8482.01 1363.7 8522.39 1377.45 8561.63 1395.57 L 8512.07 1524.76 C 8492.82 1516.57 8471.01 1508.76 8446.64 1501.38 C 8422.45 1493.88 8397.01 1487.38 8370.52 1481.69 C 8344.08 1476.13 8317.27 1471.76 8290.14 1468.7 C 8263.08 1465.57 8237.08 1464.01 8212.15 1464.01 C 8174.77 1464.01 8140.02 1465.63 8107.9 1469.07 C 8075.9 1472.44 8047.96 1477.63 8024.28 1484.44 C 8000.65 1491.32 7982.15 1499.69 7968.72 1509.63 C 7955.28 1519.57 7948.65 1530.76 7948.65 1543.26 C 7948.65 1559.38 7955.47 1571.44 7969.15 1579.57 C 7982.78 1587.63 8003.03 1592.32 8029.84 1593.57 C 8059.71 1594.75 8101.77 1596.57 8155.9 1599 C 8210.08 1601.44 8274.14 1604.19 8348.33 1607.32 C 8385.64 1609.13 8419.14 1614.13 8448.7 1622.19 C 8478.32 1630.25 8503.51 1641.81 8524.32 1656.81 C 8545.2 1671.75 8561.26 1690.13 8572.45 1712.06 C 8583.63 1733.81 8589.26 1758.75 8589.26 1786.81 L 8589.26 1786.81 L 8589.26 1786.81 L 8589.26 1786.81 L 8589.26 1786.81 zM 7458.48 1997.87 L 6985.81 1540.69 L 6985.81 1997.87 L 6821.44 1997.87 L 6821.44 1343.45 L 6985.81 1343.45 L 7458.48 1800.62 L 7458.48 1343.45 L 7622.85 1343.45 L 7622.85 1997.87 L 7458.48 1997.87 L 7458.48 1997.87 L 7458.48 1997.87 L 7458.48 1997.87 zM 6648.13 1671.13 C 6648.13 1718.44 6638.07 1763.12 6618.26 1805.31 C 6598.26 1847.37 6569.44 1884.25 6531.76 1915.99 C 6494.13 1947.81 6448.14 1972.99 6394.01 1991.68 C 6339.89 2010.43 6278.58 2019.74 6210.08 2019.74 C 6141.52 2019.74 6080.21 2010.43 6026.09 1991.68 C 5971.84 1972.99 5926.03 1947.81 5888.34 1915.99 C 5850.53 1884.25 5821.84 1847.37 5801.91 1805.31 C 5781.91 1763.12 5771.97 1718.44 5771.97 1671.13 C 5771.97 1623.75 5781.91 1579.07 5801.91 1537.01 C 5821.84 1494.94 5850.53 1458.07 5888.34 1426.2 C 5925.9 1394.51 5971.84 1369.26 6026.09 1350.57 C 6080.21 1331.89 6141.52 1322.57 6210.08 1322.57 C 6278.58 1322.57 6339.83 1331.89 6394.01 1350.57 C 6448.14 1369.26 6494.13 1394.51 6531.76 1426.2 C 6569.44 1458.07 6598.26 1494.94 6618.26 1537.01 C 6638.19 1579.07 6648.13 1623.75 6648.13 1671.13 zM 6475.63 1671.13 C 6475.63 1643.13 6470.14 1616.57 6459.26 1591.32 C 6448.39 1566.19 6431.82 1543.94 6409.7 1524.63 C 6387.51 1505.38 6359.76 1490.07 6326.45 1478.88 C 6293.08 1467.7 6254.33 1462.13 6210.08 1462.13 C 6165.77 1462.13 6127.02 1467.7 6093.65 1478.88 C 6060.21 1490.07 6032.52 1505.38 6010.4 1524.63 C 5988.27 1543.94 5971.78 1566.19 5960.84 1591.32 C 5949.96 1616.57 5944.53 1643.13 5944.53 1671.13 C 5944.53 1699.06 5949.96 1725.69 5960.84 1750.87 C 5971.78 1776.06 5988.27 1798.31 6010.4 1817.68 C 6032.52 1836.93 6060.21 1852.12 6093.65 1863.31 C 6127.02 1874.5 6165.77 1880.12 6210.08 1880.12 C 6254.33 1880.12 6293.08 1874.5 6326.45 1863.31 C 6359.76 1852.12 6387.51 1836.93 6409.7 1817.68 C 6431.82 1798.31 6448.39 1776.06 6459.26 1750.87 C 6470.14 1725.69 6475.63 1699.06 6475.63 1671.13 zM 5636.04 1786.81 C 5636.04 1819.18 5627.29 1849.81 5609.85 1878.5 C 5592.41 1907.12 5565.66 1932.24 5529.54 1953.74 C 5493.35 1975.24 5448.23 1992.12 5394.04 2004.24 C 5339.79 2016.43 5275.67 2022.49 5201.49 2022.49 C 5163.49 2022.49 5124.55 2019.37 5084.68 2013.12 C 5050.43 2008.18 5012.74 2000.3 4971.62 1989.68 C 4930.49 1979.05 4890.68 1963.74 4852 1943.81 L 4908.93 1812.81 C 4943.24 1830.18 4977.68 1843.75 5012.24 1853.37 C 5046.8 1863.12 5078.11 1870.12 5106.18 1874.43 C 5139.18 1879.5 5170.99 1882.18 5201.49 1882.87 C 5294.92 1882.87 5364.54 1874.43 5410.42 1857.56 C 5456.17 1840.75 5479.04 1818.56 5479.04 1791.06 C 5479.04 1773.62 5471.92 1760.81 5457.6 1752.75 C 5443.17 1744.56 5421.1 1739.87 5391.23 1738.69 C 5384.42 1738 5371.42 1737.25 5352.48 1736.37 C 5333.48 1735.5 5310.29 1734.44 5282.98 1733.19 C 5255.48 1732 5225.05 1730.75 5191.36 1729.56 C 5157.8 1728.31 5122.93 1726.81 5086.8 1725 C 5050.68 1723.12 5017.49 1718.19 4987.3 1710 C 4957.12 1701.94 4930.93 1690.25 4908.87 1675.06 C 4886.75 1659.75 4869.56 1641.06 4857.06 1618.94 C 4844.62 1596.88 4838.37 1570.88 4838.37 1541.01 C 4838.37 1511.13 4848.18 1482.88 4867.81 1456.51 C 4887.43 1430.01 4915.49 1406.95 4951.87 1387.38 C 4988.3 1367.7 5032.62 1352.32 5084.55 1341.14 C 5136.68 1329.95 5194.67 1324.32 5258.92 1324.32 C 5296.86 1324.32 5335.54 1327.14 5374.73 1332.76 C 5408.42 1337.76 5445.92 1344.95 5487.41 1354.26 C 5528.79 1363.7 5569.16 1377.45 5608.41 1395.57 L 5558.85 1524.76 C 5539.54 1516.57 5517.79 1508.76 5493.41 1501.38 C 5469.17 1493.88 5443.79 1487.38 5417.29 1481.69 C 5390.79 1476.13 5364.04 1471.76 5336.92 1468.7 C 5309.86 1465.57 5283.86 1464.01 5258.92 1464.01 C 5221.55 1464.01 5186.8 1465.63 5154.67 1469.07 C 5122.61 1472.44 5094.68 1477.63 5071.05 1484.44 C 5047.37 1491.32 5028.8 1499.69 5015.43 1509.63 C 5001.99 1519.57 4995.43 1530.76 4995.43 1543.26 C 4995.43 1559.38 5002.24 1571.44 5015.93 1579.57 C 5029.55 1587.63 5049.8 1592.32 5076.61 1593.57 C 5106.49 1594.75 5148.55 1596.57 5202.67 1599 C 5256.86 1601.44 5320.92 1604.19 5395.1 1607.32 C 5432.42 1609.13 5465.85 1614.13 5495.48 1622.19 C 5525.04 1630.25 5550.29 1641.81 5571.1 1656.81 C 5591.91 1671.75 5607.97 1690.13 5619.22 1712.06 C 5630.41 1733.81 5636.04 1758.75 5636.04 1786.81 L 5636.04 1786.81 L 5636.04 1786.81 L 5636.04 1786.81 L 5636.04 1786.81 zM 3968.77 1997.87 L 3904.21 1947.43 C 3878.15 1957.37 3851.46 1966.87 3824.4 1975.87 C 3797.22 1984.87 3770.15 1992.87 3743.09 1999.8 C 3716.03 2006.68 3689.59 2012.24 3663.78 2016.37 C 3637.97 2020.43 3613.53 2022.49 3590.6 2022.49 C 3545.66 2022.49 3506.35 2017.8 3472.48 2008.43 C 3438.54 1999.12 3410.1 1985.87 3387.04 1968.74 C 3364.04 1951.62 3346.6 1931.06 3334.73 1906.99 C 3322.98 1883 3317.04 1856.37 3317.04 1827.12 C 3317.04 1801.5 3322.48 1779.12 3333.35 1759.75 C 3344.17 1740.44 3358.98 1723.31 3377.6 1708.31 C 3396.29 1693.31 3417.98 1680.13 3442.79 1668.63 C 3467.73 1657 3493.79 1646.88 3521.16 1638.25 C 3503.04 1620.13 3487.66 1600.07 3474.91 1578 C 3462.16 1555.82 3455.73 1532.07 3455.73 1506.44 C 3455.73 1484.76 3460.6 1462.95 3470.23 1441.13 C 3479.91 1419.32 3495.72 1399.63 3517.85 1382.2 C 3539.97 1364.82 3568.78 1350.76 3604.28 1340.2 C 3639.72 1329.64 3683.03 1324.32 3734.03 1324.32 C 3782.65 1324.32 3824.46 1329.64 3859.71 1340.2 C 3894.9 1350.76 3923.96 1364.82 3947.02 1382.2 C 3970.15 1399.63 3987.08 1419.88 3997.96 1442.95 C 4008.83 1466.01 4014.33 1489.69 4014.33 1513.94 C 4014.33 1538.26 4008.21 1559.32 3996.08 1577 C 3983.96 1594.75 3967.9 1610.19 3948.02 1623.25 C 3928.09 1636.31 3904.9 1647.69 3878.53 1657.31 C 3852.03 1666.94 3824.46 1675.5 3795.84 1683 L 3919.21 1785.75 C 3937.34 1777.62 3956.02 1769.25 3975.27 1760.5 C 3991.52 1753.12 4009.46 1744.62 4029.02 1735.31 C 4048.71 1725.94 4067.46 1716.63 4085.58 1707.38 L 4159.39 1830.62 C 4147.58 1836.81 4134.96 1843.37 4121.52 1850.18 C 4108.14 1857 4095.52 1863.18 4083.71 1868.87 C 4070.02 1875.68 4056.27 1882.31 4042.52 1888.43 L 4174.33 1998.12 L 3968.77 1997.87 L 3968.77 1997.87 L 3968.77 1997.87 L 3968.77 1997.87 L 3968.77 1997.87 zM 3852.71 1514.44 C 3852.71 1501.38 3842.9 1489.69 3823.34 1479.38 C 3803.65 1469.07 3773.97 1464.01 3734.03 1464.01 C 3691.72 1464.01 3661.53 1469.44 3643.41 1480.32 C 3625.41 1491.26 3616.35 1503.19 3616.35 1516.26 C 3616.35 1528.13 3622.6 1539.63 3635.03 1550.82 L 3689.28 1594.82 C 3712.28 1589.19 3733.78 1583.75 3753.72 1578.44 C 3773.65 1573.13 3790.9 1567.38 3805.59 1561.13 C 3820.21 1554.94 3831.71 1547.88 3840.15 1540.13 C 3848.53 1532.32 3852.71 1523.76 3852.71 1514.44 L 3852.71 1514.44 L 3852.71 1514.44 zM 3623.16 1723.12 C 3602.72 1728.75 3583.53 1734.5 3565.85 1740.44 C 3548.1 1746.37 3532.85 1753 3520.1 1760.5 C 3507.35 1768 3497.22 1776.56 3489.79 1786.19 C 3482.35 1795.94 3478.6 1806.93 3478.6 1819.43 C 3478.6 1839.93 3488.35 1855.75 3507.91 1866.5 C 3527.6 1877.43 3555.16 1882.87 3590.6 1882.87 C 3615.47 1882.87 3643.72 1879.06 3675.47 1871.68 C 3707.22 1864.18 3739.9 1854.56 3773.47 1842.75 L 3623.16 1723.12 L 3623.16 1723.12 zM 7714.6 432.226 L 7714.6 1097.39 L 7947.59 1097.39 L 7947.59 682.469 L 8357.89 1097.39 L 8699.88 1097.39 L 8699.88 432.226 L 8470.08 432.226 L 8470.08 833.964 L 8045.03 432.226 L 7714.6 432.226 L 7714.6 432.226 L 7714.6 432.226 L 7714.6 432.226 zM 7096.49 588.909 C 7052.56 588.909 7010.06 596.846 6969 612.658 C 6927.93 628.533 6895.75 650.782 6872.5 679.344 C 6849.31 707.905 6837.69 737.967 6837.69 769.716 C 6837.69 801.09 6849 830.964 6871.81 859.401 C 6894.56 887.712 6926.62 909.962 6968 925.899 C 7009.49 941.961 7052.24 950.023 7096.49 950.023 C 7140.8 950.023 7183.61 941.961 7224.99 925.899 C 7266.42 909.962 7298.42 887.712 7320.92 859.401 C 7343.55 830.964 7354.86 801.09 7354.86 769.716 C 7354.86 737.967 7343.17 707.905 7319.8 679.344 C 7296.36 650.782 7264.17 628.533 7223.11 612.658 C 7181.99 596.846 7139.8 588.909 7096.49 588.909 L 7096.49 588.909 L 7096.49 588.909 zM 7089.37 418.602 C 7182.68 418.602 7273.24 433.539 7361.11 463.538 C 7449.04 493.537 7517.92 536.098 7567.91 591.471 C 7617.98 646.907 7642.91 704.968 7642.91 765.529 C 7642.91 825.839 7618.66 883.338 7570.04 938.211 C 7521.48 993.147 7453.17 1035.83 7365.17 1066.52 C 7277.11 1097.14 7185.24 1112.52 7089.37 1112.52 C 6994.18 1112.52 6902.56 1097.14 6814.75 1066.52 C 6726.81 1035.83 6658.57 993.147 6609.88 938.211 C 6561.13 883.338 6536.82 825.839 6536.82 765.529 C 6536.82 704.968 6561.57 646.907 6610.94 591.471 C 6660.5 536.098 6729.38 493.537 6817.62 463.538 C 6905.75 433.539 6996.43 418.602 7089.37 418.602 L 7089.37 418.602 L 7089.37 418.602 zM 6170.89 622.908 L 6464.7 622.908 C 6457.32 588.721 6439.32 558.847 6410.7 532.973 C 6382.01 507.224 6349.83 485.912 6314.2 468.975 C 6278.52 452.163 6221.96 438.538 6144.64 428.539 C 6067.27 418.352 6011.9 413.352 5978.46 413.352 C 5934.53 410.539 5874.4 414.914 5798.41 426.414 C 5722.28 437.851 5659.97 456.413 5611.35 481.787 C 5562.85 507.224 5529.6 534.286 5511.79 563.097 C 5493.98 591.846 5485.1 623.283 5485.1 657.407 C 5485.1 691.468 5501.73 723.592 5534.91 753.466 C 5568.22 783.466 5615.1 804.777 5675.66 817.215 C 5736.16 829.839 5844.9 838.276 6001.77 842.901 C 6020.65 842.214 6038.65 844.651 6056.02 850.464 C 6073.4 856.276 6086.96 864.401 6096.83 874.963 C 6106.71 885.65 6111.71 896.462 6111.71 907.649 C 6111.71 918.462 6106.83 929.149 6097.15 939.836 C 6087.4 950.461 6073.83 958.46 6056.27 963.835 C 6038.77 969.272 6011.9 974.835 5975.59 980.897 C 5948.21 980.085 5925.09 978.772 5906.34 976.647 C 5887.59 974.522 5871.15 969.835 5857.09 962.46 C 5843.15 955.21 5830.22 944.523 5818.4 930.399 C 5806.66 916.337 5799.53 902.649 5796.97 889.337 L 5485.1 889.337 C 5485.1 913.774 5492.16 935.274 5506.29 953.898 C 5520.48 972.522 5541.04 992.584 5567.91 1013.96 C 5594.85 1035.4 5623.04 1051.77 5652.72 1063.14 C 5682.35 1074.39 5717.6 1083.52 5758.78 1090.58 C 5799.84 1097.46 5860.28 1103.83 5940.28 1109.39 C 6012.15 1109.39 6065.46 1107.96 6100.02 1105.21 C 6134.52 1102.39 6169.21 1096.71 6203.83 1088.21 C 6238.58 1079.64 6278.39 1062.58 6323.45 1036.96 C 6368.58 1011.4 6400.2 985.897 6418.32 960.46 C 6436.45 935.086 6447.95 909.524 6452.95 883.9 C 6457.82 858.276 6455.32 832.839 6445.32 807.652 C 6435.2 782.341 6421.76 761.591 6404.95 745.467 C 6388.08 729.155 6364.2 714.093 6333.33 699.968 C 6302.39 685.781 6277.39 677.344 6258.33 674.344 C 6239.2 671.406 6212.21 668.407 6177.14 665.532 C 6142.08 662.532 6087.71 659.844 6013.84 657.407 C 5977.46 657.407 5949.4 657.469 5929.78 657.594 C 5909.96 657.844 5891.34 655.032 5873.84 649.22 C 5856.28 643.532 5842.84 635.532 5833.47 625.283 C 5824.09 614.908 5819.22 604.221 5818.9 593.034 C 5819.22 581.909 5824.22 571.097 5833.97 560.41 C 5843.65 549.785 5857.28 541.785 5875.03 536.41 C 5892.65 530.973 5923.53 526.973 5967.46 524.161 C 6013.59 527.286 6047.65 531.661 6069.46 537.223 C 6091.27 542.785 6109.21 551.16 6123.33 562.285 C 6137.52 573.409 6153.39 593.596 6170.89 622.908 L 6170.89 622.908 zM 5047.05 574.784 C 5090.36 574.784 5117.49 599.846 5128.3 650.032 C 5122.86 695.406 5096.8 718.03 5049.93 718.03 L 4698 718.03 L 4698 574.784 L 5047.05 574.784 L 5047.05 574.784 L 5047.05 574.784 zM 4438.2 431.664 L 4438.2 1097.39 L 4698 1097.39 L 4698 864.838 L 4987.87 864.838 C 5028.3 865.838 5049.62 883.025 5051.87 916.337 C 5054.12 949.586 5057.8 983.46 5062.86 1017.9 C 5067.99 1052.46 5096.3 1078.89 5147.86 1097.39 L 5404.79 1097.39 C 5389.23 1082.02 5381.29 1064.46 5380.98 1044.52 C 5402.29 883.65 5333.17 800.528 5173.61 795.278 L 5173.61 793.278 C 5311.92 780.653 5386.17 721.78 5396.67 616.596 C 5387.79 508.224 5306.61 446.601 5153.17 431.664 L 4438.2 431.664 L 4438.2 431.664 L 4438.2 431.664 zM 3544.1 432.226 L 3544.1 1097.39 L 4366.45 1097.39 L 4366.45 930.711 L 3806.78 931.149 L 3806.78 827.152 L 4302.45 828.277 L 4303.89 688.281 L 3806.78 688.281 L 3806.78 688.281 L 3806.78 687.718 L 3806.78 588.909 L 4366.45 588.909 L 4366.45 432.226 L 3544.1 432.226 L 3544.1 432.226 zM 3133.8 827.152 C 3187.92 827.964 3214.98 847.214 3214.98 885.213 C 3214.98 923.149 3187.92 942.523 3133.8 943.211 L 2785.12 943.211 L 2785.12 827.152 L 3133.8 827.152 L 3133.8 827.152 L 3133.8 827.152 L 3133.8 827.152 L 3133.8 827.152 zM 3133.8 572.784 C 3187.92 573.409 3214.98 592.721 3214.98 630.72 C 3214.98 668.719 3187.92 688.031 3133.8 688.718 L 2785.12 688.718 L 2785.12 572.784 L 3133.8 572.784 L 3133.8 572.784 L 3133.8 572.784 L 3133.8 572.784 zM 2524.88 432.226 L 2525.82 1097.39 L 3239.86 1097.39 C 3394.91 1093.14 3472.48 1037.71 3472.48 931.149 C 3472.48 820.027 3401.73 764.529 3260.36 764.529 L 3260.36 764.529 C 3401.73 764.529 3472.48 709.093 3472.48 598.284 C 3472.48 487.599 3394.91 432.226 3239.86 432.226 L 2524.88 432.226 zM 1906.77 588.909 C 1862.9 588.909 1820.4 596.846 1779.34 612.658 C 1738.28 628.533 1706.09 650.782 1682.84 679.344 C 1659.59 707.905 1647.97 737.967 1647.97 769.716 C 1647.97 801.09 1659.28 830.964 1682.15 859.401 C 1704.84 887.712 1736.96 909.962 1778.34 925.899 C 1819.77 941.961 1862.59 950.023 1906.77 950.023 C 1951.08 950.023 1993.89 941.961 2035.27 925.899 C 2076.77 909.962 2108.77 887.712 2131.27 859.401 C 2153.89 830.964 2165.2 801.09 2165.2 769.716 C 2165.2 737.967 2153.45 707.905 2130.14 679.344 C 2106.7 650.782 2074.52 628.533 2033.46 612.658 C 1992.27 596.846 1950.08 588.909 1906.77 588.909 L 1906.77 588.909 L 1906.77 588.909 L 1906.77 588.909 zM 1899.65 418.602 C 1993.02 418.602 2083.58 433.539 2171.39 463.538 C 2259.32 493.537 2328.2 536.098 2378.26 591.471 C 2428.26 646.907 2453.26 704.968 2453.26 765.529 C 2453.26 825.839 2429.01 883.338 2380.38 938.211 C 2331.76 993.147 2263.51 1035.83 2175.45 1066.52 C 2087.45 1097.14 1995.52 1112.52 1899.65 1112.52 C 1804.46 1112.52 1712.9 1097.14 1625.09 1066.52 C 1537.16 1035.83 1468.85 993.147 1420.16 938.211 C 1371.48 883.338 1347.1 825.839 1347.1 765.529 C 1347.1 704.968 1371.85 646.907 1421.29 591.471 C 1470.79 536.098 1539.66 493.537 1627.91 463.538 C 1716.03 433.539 1806.71 418.602 1899.65 418.602 L 1899.65 418.602 L 1899.65 418.602 L 1899.65 418.602 zM 909.114 574.784 C 952.363 574.784 979.487 599.846 990.3 650.032 C 984.862 695.406 958.8 718.03 911.927 718.03 L 560 718.03 L 560 574.784 L 909.114 574.784 L 909.114 574.784 zM 300.195 431.664 L 300.195 1097.39 L 560 1097.39 L 560 864.838 L 849.866 864.838 C 890.365 865.838 911.614 883.025 913.864 916.337 C 916.114 949.586 919.802 983.46 924.864 1017.9 C 929.989 1052.46 958.301 1078.89 1009.86 1097.39 L 1266.79 1097.39 C 1251.23 1082.02 1243.29 1064.46 1242.98 1044.52 C 1264.29 883.65 1195.17 800.528 1035.61 795.278 L 1035.61 793.278 C 1173.92 780.653 1248.17 721.78 1258.67 616.596 C 1249.79 508.224 1168.61 446.601 1015.17 431.664 L 300.195 431.664 L 300.195 431.664 L 300.195 431.664 zM 1504.91 1497.32 C 1503.78 1497.82 1501.72 1500.26 1499.97 1503.19 C 1497.03 1508.32 1494.47 1512.51 1492.97 1514.76 C 1492.1 1516.19 1491.03 1517.94 1490.72 1518.57 C 1490.41 1519.19 1489.47 1520.76 1488.72 1522.01 C 1487.91 1523.32 1486.72 1525.26 1486.03 1526.38 C 1484.41 1529.19 1482.66 1532.07 1479.97 1536.57 C 1478.66 1538.69 1477.1 1541.32 1476.47 1542.38 C 1474.22 1546.19 1465.41 1560.69 1463.85 1563.13 C 1462.97 1564.5 1461.91 1566.38 1461.41 1567.32 C 1460.91 1568.32 1459.35 1570.94 1457.91 1573.13 C 1456.47 1575.38 1454.91 1578 1454.41 1578.94 C 1453.91 1579.94 1451.16 1584.5 1448.29 1589.13 C 1445.41 1593.75 1442.91 1597.88 1442.72 1598.32 C 1442.47 1598.75 1440.91 1601.38 1439.22 1604.13 C 1437.54 1606.88 1435.6 1610.07 1434.91 1611.19 C 1433.72 1613.25 1433.22 1614.07 1428.85 1621.38 C 1424.66 1628.25 1423.97 1629.44 1422.47 1632.25 C 1420.66 1635.63 1420.66 1636.44 1422.41 1638.25 C 1423.85 1639.63 1424.04 1639.69 1433.35 1639.69 C 1442.1 1639.69 1443.04 1639.75 1444.41 1640.88 C 1445.22 1641.5 1446.04 1642.5 1446.22 1643.06 C 1446.6 1644.13 1444.72 1648.5 1442.29 1652.5 C 1441.6 1653.63 1439.35 1657.56 1437.29 1661.13 C 1435.16 1664.75 1432.91 1668.63 1432.16 1669.81 C 1431.47 1670.94 1430.6 1672.44 1430.29 1673.06 C 1429.97 1673.69 1428.97 1675.44 1428.1 1677 C 1427.22 1678.5 1425.16 1682.13 1423.47 1685.13 C 1421.79 1688.06 1420.16 1690.88 1419.85 1691.38 C 1419.54 1691.88 1417.16 1696 1414.47 1700.63 C 1411.85 1705.19 1408.97 1710.19 1408.1 1711.63 C 1407.29 1713.13 1406.22 1714.94 1405.72 1715.75 C 1405.29 1716.56 1404.29 1718.25 1403.54 1719.56 C 1399.66 1726.25 1399.35 1727.5 1401.22 1729.87 C 1402.41 1731.31 1402.6 1731.37 1410.91 1731.56 C 1418.97 1731.75 1419.41 1731.81 1420.47 1733.12 C 1421.85 1734.81 1421.85 1736.37 1420.54 1738.81 C 1419.97 1739.81 1418.97 1741.62 1418.35 1742.87 C 1417.66 1744.06 1415.35 1748.12 1413.16 1751.81 C 1410.97 1755.44 1408.29 1760.19 1407.22 1762.25 C 1406.1 1764.31 1404.91 1766.31 1404.6 1766.75 C 1403.91 1767.62 1402.16 1770.5 1400.91 1773 C 1400.41 1773.94 1399.41 1775.69 1398.72 1776.87 C 1398.04 1778.06 1395.22 1782.81 1392.54 1787.5 C 1389.79 1792.19 1387.04 1797 1386.29 1798.19 C 1385.6 1799.31 1384.6 1801.06 1384.1 1802 C 1383.6 1803 1382.6 1804.75 1381.91 1805.87 C 1379.79 1809.43 1370.85 1824.87 1369.1 1828 C 1367.98 1830.06 1367.54 1831.56 1367.66 1833.06 C 1367.91 1836.18 1369.6 1836.56 1383.41 1836.56 C 1394.16 1836.5 1394.97 1836.56 1396.6 1837.75 C 1398.22 1838.93 1398.66 1839.81 1398.35 1841.75 C 1398.29 1842.43 1396.16 1846.18 1386.16 1863.5 C 1385.41 1864.81 1384.29 1866.68 1383.73 1867.68 C 1383.16 1868.62 1382.41 1869.93 1382.16 1870.62 C 1381.85 1871.25 1380.98 1872.81 1380.16 1874 C 1379.35 1875.18 1378.1 1877.25 1377.41 1878.56 C 1376.04 1881.25 1375.48 1882.18 1369.66 1892.18 C 1367.48 1895.93 1365.16 1899.93 1364.54 1901.06 C 1363.91 1902.18 1362.79 1904.12 1362.04 1905.43 C 1361.29 1906.68 1360.23 1908.56 1359.73 1909.49 C 1359.23 1910.43 1358.23 1912.18 1357.54 1913.37 C 1356.79 1914.49 1355.1 1917.43 1353.73 1919.87 C 1352.35 1922.31 1350.98 1924.31 1350.66 1924.31 C 1350.35 1924.31 1350.1 1925.43 1350.1 1926.81 C 1350.1 1931.12 1347.73 1930.93 1403.54 1930.81 C 1457.72 1930.68 1456.79 1930.62 1460.29 1934.31 L 1461.97 1935.99 L 1462.22 1966.62 C 1462.47 1988.05 1462.72 1997.68 1463.22 1998.74 C 1463.6 1999.55 1464.72 2000.93 1465.72 2001.74 C 1467.85 2003.55 1463.54 2003.43 1512.78 2003.49 C 1548.53 2003.49 1547.1 2003.68 1549.28 1999.05 C 1550.53 1996.62 1550.53 1995.8 1550.53 1968.06 C 1550.53 1945.93 1550.35 1939.43 1549.78 1938.93 C 1549.41 1938.62 1548.03 1938.18 1546.78 1937.93 C 1540.41 1936.74 1533.03 1930.06 1530.85 1923.43 C 1528.16 1915.12 1529.66 1909.24 1538.35 1894.68 C 1539.28 1893.06 1543.85 1885.12 1544.28 1884.25 C 1544.6 1883.75 1545.47 1882.12 1546.35 1880.68 C 1547.22 1879.18 1550.66 1873.25 1554.03 1867.43 C 1557.35 1861.62 1560.72 1855.87 1561.41 1854.68 C 1562.09 1853.56 1563.03 1851.81 1563.53 1850.81 C 1564.03 1849.87 1565.03 1848.12 1565.78 1847 C 1566.47 1845.81 1568.78 1841.93 1570.84 1838.37 C 1572.97 1834.75 1575.22 1830.87 1575.91 1829.68 C 1576.59 1828.56 1577.59 1826.81 1578.09 1825.87 C 1578.53 1824.87 1579.59 1823.06 1580.41 1821.75 C 1581.22 1820.5 1582.28 1818.68 1582.78 1817.68 C 1583.72 1815.87 1584.47 1814.62 1586.16 1812.06 C 1587.97 1809.31 1586.91 1808.81 1579.72 1808.87 C 1572.84 1808.93 1569.47 1808.12 1564.03 1805.06 C 1560.28 1802.93 1557.53 1799.81 1555.16 1794.87 C 1553.41 1791.25 1553.35 1790.87 1553.53 1784.94 C 1553.78 1779 1553.85 1778.62 1556.41 1773.56 C 1557.85 1770.69 1559.91 1767.06 1560.91 1765.44 C 1561.84 1763.81 1563.09 1761.75 1563.59 1760.81 C 1564.09 1759.81 1565.16 1758 1565.97 1756.75 C 1566.72 1755.44 1567.78 1753.62 1568.28 1752.62 C 1568.78 1751.69 1569.78 1749.94 1570.47 1748.81 C 1571.16 1747.62 1572.91 1744.69 1574.34 1742.19 C 1575.78 1739.75 1577.53 1736.75 1578.22 1735.62 C 1578.91 1734.44 1579.91 1732.69 1580.41 1731.75 C 1580.97 1730.81 1581.91 1729.06 1582.66 1727.87 C 1583.34 1726.69 1584.78 1724.19 1585.84 1722.37 C 1586.91 1720.5 1588.03 1718.56 1588.34 1718.06 C 1588.59 1717.63 1589.22 1716.56 1589.59 1715.75 C 1589.97 1714.94 1591.97 1711.63 1593.97 1708.31 C 1598.03 1701.63 1598.34 1699.88 1596.28 1696.63 C 1594.66 1694.13 1594.78 1694.31 1588.84 1684.13 C 1586.28 1679.63 1583.91 1675.56 1583.66 1675.13 C 1583.03 1674.13 1577.47 1664.44 1576.09 1661.88 C 1575.59 1661 1573.84 1658 1572.16 1655.19 C 1565.72 1644.38 1565.41 1643.19 1568.34 1640.81 C 1569.72 1639.75 1570.72 1639.69 1579.59 1639.69 L 1589.34 1639.69 L 1590.59 1638.13 C 1591.22 1637.31 1591.78 1636.19 1591.78 1635.75 C 1591.78 1634.32 1585.91 1624.19 1573.34 1603.75 C 1572.66 1602.57 1571.47 1600.63 1570.72 1599.38 C 1570.03 1598.13 1569.16 1596.69 1568.84 1596.19 C 1568.47 1595.63 1566.91 1593.07 1565.34 1590.44 C 1563.72 1587.75 1561.78 1584.5 1560.97 1583.25 C 1560.22 1581.94 1559.03 1580 1558.35 1578.94 C 1552.47 1569.19 1551.28 1567.25 1548.78 1563 C 1548.1 1561.88 1547.03 1560 1546.28 1558.82 C 1545.6 1557.63 1544.03 1555.07 1542.78 1553 C 1541.6 1551.01 1540.03 1548.38 1539.35 1547.26 C 1534.66 1539.63 1530.35 1532.44 1529.35 1530.76 C 1528.72 1529.69 1527.1 1527.07 1525.85 1524.94 C 1524.53 1522.82 1523.1 1520.38 1522.66 1519.51 C 1522.16 1518.69 1520.78 1516.44 1519.6 1514.63 C 1518.41 1512.76 1517.41 1511.13 1517.41 1510.94 C 1517.41 1510.82 1516.41 1509.13 1515.16 1507.26 C 1513.91 1505.32 1512.72 1503.32 1512.53 1502.76 C 1511.97 1501.13 1508.53 1497.51 1507.28 1497.13 C 1506.6 1497.01 1505.6 1497.07 1504.91 1497.32 L 1504.91 1497.32 L 1504.91 1497.32 L 1504.91 1497.32 zM 1758.46 1324.76 C 1757.28 1326.01 1755.21 1328.95 1753.9 1331.32 C 1752.59 1333.64 1749.15 1339.39 1746.28 1344.01 C 1743.4 1348.64 1740.9 1352.76 1740.71 1353.2 C 1740.46 1353.64 1738.9 1356.2 1737.21 1359.01 C 1733.28 1365.45 1728.71 1373.07 1728.15 1374.2 C 1727.9 1374.7 1725.34 1378.89 1722.53 1383.51 C 1719.65 1388.13 1715.72 1394.63 1713.78 1398.01 C 1710.34 1403.95 1704.47 1413.7 1703.34 1415.45 C 1703.03 1415.95 1702.22 1417.26 1701.53 1418.32 C 1700.9 1419.45 1699.84 1421.13 1699.28 1422.13 C 1698.65 1423.07 1697.09 1425.7 1695.78 1427.95 C 1694.47 1430.2 1691.03 1435.82 1688.15 1440.45 C 1685.34 1445.07 1682.72 1449.38 1682.4 1450.01 C 1682.09 1450.63 1680.53 1453.26 1678.97 1455.82 C 1677.4 1458.38 1675.03 1462.32 1673.72 1464.51 C 1672.4 1466.76 1671.03 1469.13 1670.59 1469.69 C 1667.15 1475.26 1665.72 1477.51 1664.97 1478.88 C 1663.78 1481.07 1660.34 1486.76 1656.53 1492.94 C 1654.78 1495.76 1653.34 1498.19 1653.34 1498.32 C 1653.34 1498.51 1649.53 1504.69 1647.65 1507.57 C 1645.03 1511.63 1644.53 1515.51 1646.34 1517.76 C 1647.4 1519.13 1647.59 1519.13 1661.28 1519.44 C 1673.03 1519.69 1675.4 1519.88 1677.03 1520.76 C 1681.09 1522.94 1680.97 1525.76 1676.53 1533.19 C 1673.03 1539.19 1672.59 1539.94 1668.22 1547.57 C 1666.4 1550.82 1664.65 1553.82 1664.4 1554.25 C 1664.09 1554.75 1662.72 1557.07 1661.34 1559.44 C 1659.97 1561.75 1658.28 1564.63 1657.59 1565.82 C 1656.9 1567 1655.9 1568.69 1655.4 1569.69 C 1654.9 1570.63 1653.84 1572.44 1653.03 1573.75 C 1652.28 1575 1651.4 1576.44 1651.22 1576.94 C 1650.72 1577.82 1646.22 1585.75 1645.22 1587.38 C 1644.9 1587.88 1643.03 1591.13 1641.03 1594.57 C 1639.03 1598.07 1636.78 1601.88 1636.09 1603 C 1635.41 1604.19 1634.28 1606 1633.72 1607.13 C 1632.53 1609.25 1631.47 1611.13 1629.34 1614.82 C 1622.09 1627.25 1616.16 1637.94 1615.84 1639.25 C 1615.34 1641.25 1616.53 1644.13 1618.16 1645.06 C 1618.91 1645.5 1623.47 1645.88 1630.41 1646.06 C 1641.34 1646.38 1642.84 1646.63 1644.9 1648.69 C 1646.97 1650.81 1646.09 1653.06 1637.84 1667.56 C 1633.41 1675.25 1629.28 1682.5 1628.53 1683.69 C 1627.84 1684.88 1626.78 1686.69 1626.22 1687.69 C 1624.41 1690.94 1613.03 1710.5 1611.72 1712.75 C 1610.97 1713.94 1609.97 1715.69 1609.47 1716.63 C 1608.97 1717.63 1607.97 1719.44 1607.16 1720.69 C 1606.41 1722 1605.34 1723.81 1604.84 1724.75 C 1604.34 1725.75 1603.34 1727.5 1602.66 1728.69 C 1601.91 1729.81 1598.59 1735.56 1595.28 1741.31 C 1591.91 1747.12 1588.53 1752.94 1587.72 1754.31 C 1570.78 1783.44 1569.66 1785.87 1571.59 1788.44 C 1573.47 1790.81 1574.66 1791 1592.78 1791.31 C 1609.28 1791.56 1610.34 1791.62 1611.91 1792.75 C 1612.78 1793.44 1613.72 1794.69 1614.03 1795.5 C 1614.53 1797.12 1613.53 1799.69 1609.91 1805.87 C 1609.03 1807.37 1604.53 1815.18 1599.91 1823.25 C 1591.72 1837.43 1590.34 1839.87 1587.59 1844.62 C 1586.84 1845.87 1582.97 1852.56 1578.97 1859.5 C 1575.03 1866.43 1571.16 1873.06 1570.47 1874.25 C 1569.78 1875.43 1568.97 1876.75 1568.72 1877.25 C 1568.22 1878.25 1563.53 1886.37 1562.72 1887.68 C 1562.22 1888.56 1556.91 1897.74 1552.66 1905.06 C 1551.47 1907.18 1549.72 1910.56 1548.78 1912.56 C 1547.1 1916.06 1547.1 1916.18 1548.03 1918.18 C 1548.72 1919.62 1549.6 1920.43 1551.03 1920.87 C 1552.6 1921.43 1571.16 1921.62 1622.84 1921.62 C 1701.47 1921.74 1695.53 1921.37 1699.4 1926.24 L 1701.28 1928.62 L 1701.59 1971.05 L 1701.84 2013.49 L 1703.47 2016.18 C 1704.34 2017.68 1705.97 2019.43 1707.09 2020.18 C 1708.22 2020.87 1709.09 2021.68 1709.09 2021.93 C 1709.09 2022.24 1730.59 2022.49 1762.78 2022.49 C 1810.21 2022.49 1816.52 2022.37 1816.77 2021.62 C 1816.96 2021.12 1817.71 2020.49 1818.46 2020.18 C 1819.21 2019.93 1820.59 2018.55 1821.52 2017.24 L 1823.27 2014.74 L 1823.52 1972.55 C 1823.84 1927.24 1823.77 1928.62 1826.9 1925.24 C 1830.52 1921.49 1825.46 1921.74 1902.52 1921.68 C 1941.02 1921.62 1973.21 1921.37 1974.02 1921.12 C 1974.77 1920.87 1976.02 1920.12 1976.77 1919.49 C 1979.14 1917.31 1978.46 1914.68 1973.15 1905.49 C 1965.21 1891.93 1961.96 1886.24 1961.21 1884.93 C 1959.02 1880.87 1954.65 1873.31 1953.65 1871.75 C 1953.08 1870.75 1951.96 1868.93 1951.21 1867.62 C 1949.65 1864.75 1942.58 1852.62 1941.77 1851.25 C 1941.4 1850.68 1940.4 1848.93 1939.52 1847.31 C 1938.65 1845.75 1937.33 1843.37 1936.52 1842.12 C 1935.77 1840.81 1934.83 1839.25 1934.52 1838.62 C 1934.21 1838 1933.21 1836.25 1932.33 1834.75 C 1930.52 1831.68 1916.71 1807.75 1915.27 1805.18 C 1914.77 1804.25 1914.02 1803.12 1913.65 1802.68 C 1912.15 1800.87 1911.21 1796.94 1911.83 1795 C 1913.02 1791.5 1914.33 1791.31 1932.71 1791.31 C 1951.46 1791.31 1953.08 1791 1954.27 1787.44 C 1954.77 1785.87 1954.77 1785 1954.21 1783.56 C 1953.65 1782.06 1945.27 1767.12 1941.4 1760.62 C 1939.65 1757.62 1937.77 1754.37 1936.71 1752.37 C 1936.15 1751.25 1935.02 1749.37 1934.33 1748.25 C 1933.65 1747.06 1931.33 1743.19 1929.27 1739.62 C 1927.21 1736 1924.9 1732.12 1924.21 1730.94 C 1923.52 1729.81 1922.52 1728.06 1922.02 1727.06 C 1921.52 1726.12 1920.46 1724.31 1919.65 1723 C 1918.9 1721.75 1917.9 1719.94 1917.4 1718.94 C 1916.96 1718 1916.4 1717 1916.08 1716.75 C 1915.83 1716.5 1914.71 1714.63 1913.58 1712.63 C 1912.46 1710.56 1910.4 1706.94 1908.96 1704.44 C 1907.52 1702 1905.96 1699.25 1905.46 1698.44 C 1903.33 1694.63 1898.9 1686.88 1897.96 1685.25 C 1893.65 1678.06 1881.96 1657.69 1880.59 1654.94 C 1879.15 1652.06 1879.21 1650.5 1880.9 1648.44 C 1882.4 1646.56 1885.52 1646.06 1895.77 1646.06 C 1903.15 1646.06 1905.27 1645.88 1906.77 1645.06 C 1909.21 1643.88 1910.08 1642.69 1910.08 1640.63 C 1910.08 1639.25 1902.71 1625.69 1892.83 1609 C 1892.15 1607.82 1891.21 1606.07 1890.71 1605.13 C 1890.21 1604.13 1889.21 1602.38 1888.46 1601.25 C 1887.34 1599.32 1876.96 1581.5 1873.77 1575.88 C 1873.09 1574.69 1871.9 1572.69 1871.15 1571.38 C 1870.34 1570.07 1866.46 1563.32 1862.46 1556.38 C 1858.46 1549.44 1854.65 1542.82 1853.96 1541.63 C 1853.21 1540.44 1852.46 1539.07 1852.21 1538.57 C 1852.02 1538.13 1851.4 1537.07 1850.84 1536.26 C 1848.46 1532.82 1845.65 1526.82 1845.65 1525.32 C 1845.65 1524.44 1846.02 1523.13 1846.59 1522.38 C 1848.4 1519.76 1850.46 1519.44 1864.15 1519.44 L 1876.9 1519.44 L 1878.71 1517.94 C 1880.09 1516.76 1880.46 1515.94 1880.46 1514.38 C 1880.46 1512.32 1879.77 1510.82 1875.09 1503.13 C 1873.59 1500.76 1871.34 1496.94 1870.02 1494.76 C 1868.71 1492.51 1867.02 1489.63 1866.21 1488.32 C 1865.46 1487.07 1863.9 1484.44 1862.71 1482.51 C 1859.9 1477.76 1859.46 1477.01 1858.09 1475.01 C 1857.46 1474.01 1856.59 1472.57 1856.09 1471.69 C 1855.09 1469.94 1851.59 1464.01 1849.34 1460.45 C 1848.59 1459.2 1847.59 1457.51 1847.21 1456.7 C 1846.59 1455.45 1844.77 1452.51 1841.71 1447.63 C 1841.34 1447.01 1840.46 1445.63 1839.84 1444.51 C 1839.15 1443.38 1838.4 1442.07 1838.09 1441.57 C 1837.02 1440.01 1831.21 1430.32 1828.77 1426.2 C 1827.52 1423.95 1825.27 1420.32 1823.84 1418.07 C 1822.4 1415.82 1820.96 1413.45 1820.65 1412.82 C 1820.34 1412.2 1818.77 1409.57 1817.21 1407.01 C 1815.65 1404.45 1813.27 1400.51 1811.96 1398.32 C 1810.65 1396.07 1809.34 1393.82 1809.02 1393.38 C 1808.09 1392.01 1802.21 1382.26 1800.9 1380.01 C 1800.21 1378.89 1799.09 1376.95 1798.28 1375.64 C 1797.46 1374.39 1795.78 1371.51 1794.46 1369.26 C 1793.15 1367.01 1791.59 1364.39 1791.03 1363.45 C 1790.4 1362.51 1789.34 1360.82 1788.71 1359.7 C 1788.03 1358.57 1786.96 1356.89 1786.34 1355.89 C 1785.71 1354.95 1784.84 1353.39 1784.34 1352.39 C 1783.84 1351.45 1782.65 1349.51 1781.71 1348.07 C 1780.78 1346.64 1779.78 1344.95 1779.46 1344.26 C 1779.21 1343.64 1777.96 1341.57 1776.71 1339.64 C 1773.9 1335.2 1773.53 1334.57 1771.03 1330.32 C 1769.96 1328.45 1768.15 1325.89 1767.03 1324.7 C 1765.4 1322.89 1764.59 1322.51 1762.84 1322.51 C 1761.03 1322.51 1760.21 1322.89 1758.46 1324.76 L 1758.46 1324.76 zM 665.122 1822.18 C 665.247 1836.56 665.559 1886.93 665.684 1934.24 L 665.997 2020.18 L 672.997 2020.24 C 676.871 2020.24 697.871 2020.49 719.745 2020.8 C 752.494 2021.3 759.494 2021.49 759.806 2022.05 C 760.181 2022.62 769.181 2022.55 819.617 2021.93 C 852.304 2021.49 887.053 2020.99 896.802 2020.8 L 914.614 2020.49 L 914.927 1934.62 C 915.114 1887.37 915.364 1837.06 915.552 1822.75 L 915.864 1796.81 L 843.241 1796.87 C 803.305 1796.94 746.807 1796.75 717.745 1796.56 L 664.809 1796.19 L 665.122 1822.18 L 665.122 1822.18 L 665.122 1822.18 L 665.122 1822.18 zM 891.802 1592.88 C 892.115 1593.19 891.303 1687.69 890.99 1688.69 C 890.803 1689.19 871.866 1689.25 790.431 1689 C 735.245 1688.88 689.934 1688.56 689.809 1688.38 C 689.496 1688.06 688.434 1592.88 688.746 1592.32 C 688.996 1591.88 891.365 1592.44 891.802 1592.88 L 891.802 1592.88 zM 788.368 1384.89 C 783.993 1387.2 765.619 1397.88 755.807 1403.7 C 742.744 1411.51 746.494 1409.32 681.746 1446.63 L 627.81 1477.63 L 574.125 1572.07 L 520.501 1666.5 L 520.876 1820.93 C 521.376 2009.37 521.376 2001.68 520.876 2012.3 L 520.501 2020.99 L 542.5 2021.3 C 554.563 2021.49 581.937 2021.74 603.249 2021.93 L 642.06 2022.24 L 641.748 1939.31 C 641.56 1893.74 641.31 1839.5 641.123 1818.87 L 640.81 1781.31 L 790.118 1781.62 C 872.241 1781.81 939.489 1782 939.551 1782.06 C 939.614 1782.12 939.426 1836.12 939.114 1902.12 C 938.801 1968.12 938.739 2022.24 938.864 2022.43 C 939.239 2022.74 1059.61 2021.74 1059.98 2021.37 C 1060.11 2021.24 1059.98 2016.99 1059.73 2011.87 C 1059.42 2006.05 1059.42 1940.49 1059.73 1834.81 L 1060.17 1667 L 1006.49 1572.57 L 952.801 1478.13 L 905.115 1450.63 C 878.928 1435.51 856.054 1422.38 854.304 1421.51 C 852.616 1420.7 848.741 1418.45 845.679 1416.63 C 842.679 1414.76 837.304 1411.57 833.742 1409.51 C 830.179 1407.45 827.054 1405.51 826.742 1405.2 C 825.617 1403.82 791.993 1383.82 790.868 1383.82 C 790.556 1383.82 789.431 1384.32 788.368 1384.89 zM 748.932 1346.89 C 726.682 1360.32 677.996 1390.07 640.748 1413.07 L 573 1454.88 L 506.627 1574.25 C 470.128 1639.94 440.191 1693.94 440.129 1694.25 C 440.004 1694.88 466.94 1710 467.44 1709.5 C 467.565 1709.38 496.127 1656.75 530.876 1592.69 C 565.625 1528.57 594.311 1475.88 594.624 1475.57 C 595.061 1475.07 786.868 1355.82 789.181 1354.57 C 789.868 1354.2 809.367 1366.07 887.74 1414.82 C 941.489 1448.2 985.737 1475.76 986.05 1476.07 C 986.3 1476.38 1014.99 1529.07 1049.74 1593.19 C 1084.48 1657.25 1113.05 1709.81 1113.23 1710 C 1113.67 1710.5 1140.61 1695.38 1140.48 1694.69 C 1140.42 1694.38 1110.48 1640.44 1073.98 1574.75 L 1007.61 1455.38 L 949.113 1419.26 C 916.927 1399.38 889.553 1382.51 888.178 1381.76 C 886.865 1381.01 864.678 1367.39 838.929 1351.45 C 804.055 1329.82 791.805 1322.45 790.743 1322.51 C 789.806 1322.51 776.556 1330.26 748.932 1346.89 L 748.932 1346.89 L 748.932 1346.89 zM 2589.13 1808 C 2594.88 1810.75 2595.31 1818.93 2589.94 1822.56 L 2587.94 1823.93 L 2532.69 1823.93 L 2477.44 1823.93 L 2477.44 1815.5 L 2477.44 1807.06 L 2532.32 1807.06 C 2581.75 1807.06 2587.38 1807.18 2589.13 1808 L 2589.13 1808 zM 2430.19 1815.5 L 2430.19 1823.93 L 2374.95 1823.93 L 2319.7 1823.93 L 2317.63 1822.56 C 2312.32 1818.93 2312.76 1810.81 2318.38 1808 C 2320.07 1807.18 2325.76 1807.12 2375.2 1807.12 L 2430.19 1807.06 L 2430.19 1815.5 L 2430.19 1815.5 L 2430.19 1815.5 L 2430.19 1815.5 zM 2589.69 1776.19 C 2591.63 1776.81 2593.81 1781.12 2593.81 1784.06 C 2593.81 1786.69 2592.19 1789.56 2589.94 1791.06 L 2587.94 1792.44 L 2532.69 1792.56 L 2477.44 1792.75 L 2477.44 1784.19 L 2477.44 1775.56 L 2532.69 1775.56 C 2569.5 1775.56 2588.56 1775.81 2589.69 1776.19 L 2589.69 1776.19 zM 2430.19 1784.19 L 2430.19 1792.75 L 2374.95 1792.56 L 2319.7 1792.44 L 2317.7 1791.06 C 2315.38 1789.56 2313.76 1786.69 2313.76 1784.06 C 2313.76 1781.31 2316.01 1776.81 2317.7 1776.19 C 2318.57 1775.87 2341.26 1775.69 2374.63 1775.62 L 2430.19 1775.56 L 2430.19 1784.19 L 2430.19 1784.19 zM 2589.13 1738.81 C 2594.88 1741.56 2595.31 1749.75 2589.94 1753.44 L 2587.94 1754.81 L 2532.69 1754.81 L 2477.44 1754.81 L 2477.44 1746.37 L 2477.44 1737.94 L 2532.32 1737.94 C 2581.75 1737.94 2587.38 1738 2589.13 1738.81 L 2589.13 1738.81 zM 2430.19 1746.37 L 2430.19 1754.81 L 2374.95 1754.81 L 2319.7 1754.81 L 2317.63 1753.44 C 2312.32 1749.81 2312.76 1741.62 2318.38 1738.87 C 2320.07 1738.06 2325.76 1737.94 2375.2 1737.94 L 2430.19 1737.94 L 2430.19 1746.37 L 2430.19 1746.37 zM 2589.94 1707.81 C 2591.5 1708.44 2592.06 1709.19 2592.88 1711.31 C 2593.38 1712.81 2593.81 1714.75 2593.81 1715.63 C 2593.81 1718.06 2592.19 1721 2589.94 1722.5 L 2587.94 1723.87 L 2532.69 1723.87 L 2477.44 1723.87 L 2477.44 1715.44 L 2477.44 1707 L 2532.75 1707 C 2579.25 1707 2588.38 1707.13 2589.94 1707.81 zM 2430.19 1715.44 L 2430.19 1723.87 L 2374.95 1723.87 L 2319.7 1723.87 L 2317.63 1722.5 C 2315.32 1720.87 2313.76 1718 2313.82 1715.31 C 2313.88 1712.25 2315.63 1708.63 2317.51 1707.81 C 2318.76 1707.25 2330.7 1707.06 2374.63 1707.06 L 2430.19 1707 L 2430.19 1715.44 L 2430.19 1715.44 zM 2589.13 1669.13 C 2594.88 1671.81 2595.31 1680.06 2589.94 1683.69 L 2587.94 1685.06 L 2532.69 1685.06 L 2477.44 1685.06 L 2477.44 1676.63 L 2477.44 1668.19 L 2532.32 1668.19 C 2581.75 1668.19 2587.38 1668.25 2589.13 1669.13 L 2589.13 1669.13 zM 2430.19 1676.63 L 2430.19 1685.06 L 2374.95 1685.06 L 2319.7 1685.06 L 2317.63 1683.69 C 2312.32 1680.06 2312.76 1671.94 2318.38 1669.13 C 2320.07 1668.31 2325.76 1668.19 2375.2 1668.19 L 2430.19 1668.19 L 2430.19 1676.63 L 2430.19 1676.63 zM 2339.07 1640.63 L 2333.76 1644.5 L 2317.57 1644.56 L 2301.45 1644.56 L 2297.82 1646.06 C 2294.64 1647.38 2294.01 1647.88 2293.26 1649.75 C 2292.51 1651.69 2292.39 1662.31 2292.39 1744.62 C 2292.39 1834.5 2292.45 1837.43 2293.51 1839.87 C 2295.32 1844.18 2300.95 1847.87 2307.64 1849.18 C 2313.01 1850.25 2370.07 1850.93 2453.82 1850.93 C 2537.57 1850.93 2594.56 1850.25 2599.94 1849.18 C 2606.69 1847.87 2612.25 1844.18 2614.13 1839.87 C 2615.13 1837.43 2615.19 1834.5 2615.19 1744.62 C 2615.19 1662.31 2615.06 1651.69 2614.31 1649.75 C 2613.56 1647.88 2613 1647.38 2609.81 1646.06 L 2606.19 1644.56 L 2590.13 1644.56 L 2574.06 1644.56 L 2568.5 1640.63 L 2562.94 1636.69 L 2453.69 1636.75 L 2344.45 1636.75 L 2339.07 1640.63 L 2339.07 1640.63 zM 2690.44 1886.06 C 2691.25 1886.49 2692.5 1887.43 2693.19 1888.18 C 2693.87 1888.93 2696.25 1890.37 2698.37 1891.43 L 2702.37 1893.31 L 2702.37 1907.18 C 2702.37 1920.56 2702.31 1921.12 2701.19 1922.12 C 2700 1923.18 2695.12 1923.18 2453.82 1923.18 C 2212.51 1923.18 2207.58 1923.18 2206.45 1922.12 C 2205.33 1921.12 2205.26 1920.56 2205.26 1907.18 L 2205.26 1893.31 L 2208.76 1891.68 C 2210.7 1890.74 2213.14 1889.24 2214.26 1888.31 C 2215.33 1887.31 2216.7 1886.24 2217.33 1885.93 C 2218.2 1885.43 2280.45 1885.25 2453.69 1885.25 C 2654.62 1885.25 2689.12 1885.37 2690.44 1886.06 zM 2687.56 1830.93 L 2689.12 1832.31 L 2689.31 1845 L 2689.5 1857.75 L 2687.5 1859.68 L 2685.56 1861.68 L 2666.62 1861.5 L 2647.69 1861.37 L 2646.37 1859.75 C 2645 1858.18 2645 1858.12 2645 1845.43 L 2645 1832.75 L 2646.5 1831.12 L 2648 1829.56 L 2667 1829.56 L 2686 1829.56 L 2687.56 1830.93 L 2687.56 1830.93 zM 2261.01 1831.06 L 2262.64 1832.62 L 2262.64 1845.37 C 2262.64 1858.12 2262.64 1858.18 2261.26 1859.75 L 2259.89 1861.37 L 2241.01 1861.5 L 2222.08 1861.68 L 2220.08 1859.68 L 2218.14 1857.75 L 2218.33 1845 L 2218.45 1832.31 L 2220.08 1830.93 L 2221.64 1829.56 L 2240.57 1829.56 L 2259.45 1829.56 L 2261.01 1831.06 L 2261.01 1831.06 zM 2499.38 1612.19 C 2568.75 1612.82 2585.13 1614.07 2600.88 1619.94 C 2605.25 1621.63 2605.56 1621.88 2614.81 1631 C 2622.94 1639.06 2624.69 1641.13 2627.63 1646.13 C 2630.56 1651.06 2631.31 1652.94 2632.94 1659.31 L 2634.81 1666.81 L 2634.88 1747.5 L 2634.88 1828.25 L 2633.25 1833 C 2630.25 1841.93 2626.19 1849.06 2619.88 1856.62 C 2616.44 1860.68 2615.94 1861.06 2607.88 1865.18 L 2599.44 1869.5 L 2453.82 1869.5 L 2308.14 1869.5 L 2299.7 1865.18 C 2291.7 1861.06 2291.14 1860.68 2287.76 1856.62 C 2281.39 1849.06 2277.39 1841.93 2274.32 1833 L 2272.76 1828.25 L 2272.76 1747.5 L 2272.76 1666.81 L 2274.64 1659.31 C 2276.26 1652.94 2277.01 1651.06 2279.95 1646.13 C 2282.95 1641.13 2284.64 1639.13 2292.82 1631 C 2301.39 1622.5 2302.57 1621.57 2306.01 1620.19 C 2320.7 1614.5 2341.45 1612.63 2392.51 1612.44 C 2408.76 1612.44 2428.01 1612.19 2435.26 1612 C 2442.51 1611.82 2451.13 1611.69 2454.38 1611.75 C 2457.63 1611.82 2477.88 1612 2499.38 1612.19 L 2499.38 1612.19 L 2499.38 1612.19 L 2499.38 1612.19 zM 2677.31 1532.44 C 2676.69 1532.88 2675.75 1533.57 2675.19 1533.94 C 2674.25 1534.57 2674.19 1536.69 2674 1565.75 L 2673.81 1596.88 L 2669.12 1601.57 C 2666.56 1604.19 2663.75 1606.57 2662.87 1606.88 L 2661.31 1607.38 L 2661.31 1571.25 C 2661.31 1551.32 2661.44 1534.26 2661.62 1533.32 L 2662 1531.57 L 2670.25 1531.57 C 2677.69 1531.57 2678.31 1531.69 2677.31 1532.44 L 2677.31 1532.44 zM 2245.95 1533.32 C 2246.14 1534.26 2246.32 1551.32 2246.32 1571.25 L 2246.32 1607.38 L 2244.76 1606.88 C 2243.89 1606.57 2241.01 1604.19 2238.45 1601.57 L 2233.76 1596.82 L 2233.57 1565.75 C 2233.39 1536.76 2233.32 1534.57 2232.39 1533.94 C 2228.76 1531.51 2228.57 1531.57 2237.39 1531.57 L 2245.57 1531.57 L 2245.95 1533.32 L 2245.95 1533.32 L 2245.95 1533.32 zM 2478 1489.38 C 2493.82 1489.82 2505 1490.51 2526.88 1492.44 C 2542.5 1493.82 2561.94 1495.32 2570.06 1495.82 C 2584.13 1496.69 2585 1496.82 2588.31 1498.32 C 2593.88 1500.82 2596.38 1503.01 2598.31 1506.82 L 2600.06 1510.19 L 2599.88 1547.44 C 2599.69 1589.13 2599.94 1586.88 2595.63 1589.32 C 2593.38 1590.63 2593.19 1590.63 2569.69 1590.63 C 2543.32 1590.57 2533.32 1589.88 2501.32 1585.69 L 2485.57 1583.63 L 2453.82 1583.63 L 2422.01 1583.63 L 2406.26 1585.69 C 2374.26 1589.88 2364.32 1590.57 2337.95 1590.63 C 2314.38 1590.63 2314.26 1590.63 2312.01 1589.32 C 2307.7 1586.88 2307.89 1589.13 2307.7 1547.44 L 2307.57 1510.19 L 2309.26 1506.82 C 2311.2 1503.01 2313.76 1500.82 2319.26 1498.32 C 2322.57 1496.82 2323.51 1496.69 2337.51 1495.82 C 2345.63 1495.32 2365.07 1493.82 2380.7 1492.44 C 2418.76 1489.07 2441.57 1488.38 2478 1489.38 L 2478 1489.38 L 2478 1489.38 zM 2530.63 1418.51 L 2551 1419.01 L 2554.07 1421.07 C 2556.94 1423.01 2557.25 1423.38 2558.32 1426.88 C 2560.81 1435.13 2558.32 1443.45 2552.63 1446.13 L 2549.82 1447.45 L 2453.82 1447.45 L 2357.76 1447.45 L 2355.01 1446.13 C 2349.26 1443.45 2346.76 1435.13 2349.26 1426.88 C 2350.32 1423.38 2350.63 1423.01 2353.57 1421.01 L 2356.7 1418.95 L 2373.63 1418.57 C 2398.88 1417.95 2507.32 1417.95 2530.63 1418.51 zM 2275.26 1322.95 C 2269.64 1323.76 2267.45 1324.64 2264.95 1327.07 C 2260.2 1331.64 2260.39 1330.51 2260.39 1357.07 L 2260.39 1380.64 L 2257.45 1382.82 C 2253.89 1385.57 2249.57 1390.7 2247.57 1394.51 L 2246.14 1397.45 L 2246.26 1453.38 C 2246.32 1484.13 2246.2 1512.07 2246.01 1515.38 L 2245.57 1521.44 L 2221.76 1521.44 L 2198.01 1521.44 L 2196.58 1523.51 L 2195.14 1525.63 L 2195.14 1558.38 L 2195.14 1591.19 L 2196.83 1594.5 C 2197.7 1596.32 2198.95 1597.94 2199.58 1598.19 C 2200.2 1598.38 2205.26 1598.57 2210.89 1598.57 L 2221.08 1598.63 L 2224.89 1603.19 C 2230.14 1609.38 2236.14 1615.07 2241.57 1618.88 L 2246.14 1622.07 L 2246.45 1675.06 C 2246.7 1719.62 2246.64 1729.12 2245.95 1734.5 C 2244.7 1744.06 2245.39 1742.94 2219.89 1778.06 C 2214.33 1785.81 2208.7 1794 2207.39 1796.31 L 2205.08 1800.5 L 2205.2 1832.06 L 2205.33 1863.68 L 2203.45 1865.12 C 2201.26 1866.75 2199.08 1867.56 2193.89 1868.43 L 2190.08 1869.06 L 2190.08 1902.56 L 2190.08 1935.99 L 2194.83 1941.24 L 2199.64 1946.43 L 2199.26 1977.55 C 2199.08 1994.68 2199.08 2009.93 2199.33 2011.43 C 2199.83 2014.93 2203.01 2018.43 2207.7 2020.8 L 2211.2 2022.49 L 2247.07 2022.49 C 2271.51 2022.43 2283.76 2022.24 2285.45 2021.8 C 2287.01 2021.43 2288.45 2020.55 2289.32 2019.55 L 2290.7 2017.87 L 2290.76 1993.87 L 2290.76 1969.87 L 2293.89 1965.93 C 2296.51 1962.62 2297.39 1961.93 2299.57 1961.37 C 2302.57 1960.56 2304.51 1958.87 2305.39 1956.31 C 2305.7 1955.31 2306.45 1954.31 2307.01 1954.12 C 2307.57 1953.93 2330.76 1953.87 2358.45 1953.93 L 2408.88 1954.12 L 2410.94 1955.87 C 2414.32 1958.74 2420.32 1960.62 2426.13 1960.62 L 2431.07 1960.62 L 2432.13 1962.43 C 2432.76 1963.43 2434.01 1965.06 2435.07 1966.06 L 2436.88 1967.93 L 2453.82 1967.93 L 2470.69 1967.93 L 2472.57 1966.06 C 2473.57 1965.06 2474.88 1963.43 2475.44 1962.43 L 2476.57 1960.62 L 2481.44 1960.62 C 2487.25 1960.62 2493.32 1958.74 2496.63 1955.87 L 2498.69 1954.12 L 2549.13 1953.93 C 2576.88 1953.87 2600 1953.93 2600.63 1954.12 C 2601.19 1954.31 2601.88 1955.31 2602.25 1956.31 C 2603.06 1958.87 2605 1960.56 2608.06 1961.37 C 2610.19 1961.93 2611.06 1962.62 2613.75 1965.93 L 2616.88 1969.87 L 2616.88 1993.87 L 2616.88 2017.87 L 2618.25 2019.55 C 2619.13 2020.55 2620.63 2021.43 2622.13 2021.8 C 2623.88 2022.24 2636.13 2022.43 2660.5 2022.49 L 2696.44 2022.49 L 2699.87 2020.8 C 2704.62 2018.43 2707.75 2014.93 2708.31 2011.43 C 2708.5 2009.93 2708.56 1994.68 2708.31 1977.55 L 2708 1946.43 L 2712.75 1941.24 L 2717.56 1935.99 L 2717.56 1902.56 L 2717.56 1869.06 L 2713.75 1868.43 C 2708.56 1867.56 2706.31 1866.75 2704.12 1865.12 L 2702.25 1863.68 L 2702.37 1832.06 L 2702.5 1800.5 L 2700.19 1796.31 C 2698.94 1794 2693.31 1785.81 2687.69 1778.06 C 2662.12 1742.81 2662.87 1744.06 2661.62 1734.19 C 2660.87 1728.31 2660.81 1721.06 2661.25 1674.75 C 2661.5 1645.69 2662 1621.75 2662.25 1621.57 C 2662.5 1621.32 2664.87 1619.63 2667.5 1617.75 C 2672 1614.5 2679.06 1607.69 2684.06 1601.69 L 2686.31 1599 L 2696.75 1598.69 C 2702.44 1598.57 2707.56 1598.32 2708.12 1598.13 C 2708.69 1597.94 2709.87 1596.32 2710.81 1594.5 L 2712.5 1591.19 L 2712.5 1558.38 L 2712.5 1525.63 L 2711.06 1523.51 L 2709.62 1521.44 L 2685.81 1521.44 L 2662 1521.44 L 2661.62 1515.38 C 2661.37 1512.07 2661.25 1484.13 2661.37 1453.38 L 2661.5 1397.45 L 2660 1394.51 C 2658 1390.7 2653.69 1385.57 2650.12 1382.82 L 2647.25 1380.64 L 2647.25 1357.07 C 2647.25 1330.51 2647.44 1331.64 2642.62 1327.01 C 2640.13 1324.57 2637 1323.45 2630.5 1322.7 C 2626 1322.14 2620.44 1324.07 2617.31 1327.26 L 2614.94 1329.7 L 2614.75 1347.14 C 2614.63 1356.7 2614.38 1364.51 2614.13 1364.51 C 2613.94 1364.51 2605.81 1361.39 2596.06 1357.57 L 2578.38 1350.64 L 2562.31 1347.76 C 2542.75 1344.26 2522.75 1342.57 2500.13 1342.57 L 2486 1342.64 L 2485.38 1340.39 C 2484.13 1336.26 2479.25 1333.89 2475.01 1335.26 C 2472.51 1336.07 2469.57 1339.32 2469.57 1341.2 C 2469.57 1342.57 2469.38 1342.64 2466.01 1342.64 L 2462.44 1342.64 L 2461.44 1340.39 C 2460.01 1337.07 2457.57 1335.57 2453.69 1335.57 C 2449.88 1335.57 2447.88 1336.82 2446.19 1340.26 C 2445.07 1342.57 2445.07 1342.64 2442.01 1342.57 C 2438.94 1342.57 2438.88 1342.57 2437.76 1340.2 C 2435.63 1335.64 2430.01 1333.89 2425.88 1336.39 C 2424.07 1337.51 2422.32 1340.14 2422.32 1341.76 C 2422.32 1342.51 2420.57 1342.57 2407.82 1342.57 C 2384.76 1342.57 2364.95 1344.26 2345.26 1347.76 L 2329.26 1350.64 L 2312.07 1357.39 C 2302.7 1361.07 2294.51 1364.26 2294.01 1364.39 C 2293.14 1364.64 2293.01 1363.26 2292.89 1347.2 L 2292.7 1329.7 L 2290.32 1327.26 C 2288.51 1325.45 2286.95 1324.51 2284.07 1323.57 C 2280.01 1322.26 2279.7 1322.26 2275.26 1322.95 L 2275.26 1322.95 zM 300.133 1252.51 L 8699.82 1252.51 L 8699.82 2092.49 L 300.133 2092.49 L 300.133 1252.51 L 300.133 1252.51 L 300.133 1252.51 L 300.133 1252.51 z"/>
</g>

</svg>