<?xml version="1.0" encoding="UTF-8" standalone="no"?>
<!DOCTYPE svg PUBLIC "-//W3C//DTD SVG 1.1//EN" "http://www.w3.org/Graphics/SVG/1.1/DTD/svg11.dtd">
<svg xmlns="http://www.w3.org/2000/svg" version="1.1" viewBox="0 0 350 113" width="350.0pt" height="113.0pt">
<path d="M 0.00 0.00 L 233.30 0.00 C 228.22 0.60 222.59 1.10 218.35 4.30 C 216.05 5.96 214.76 9.29 215.87 11.97 C 217.02 13.84 218.87 15.42 221.00 16.03 C 226.62 17.85 233.41 17.18 238.97 17.97 C 240.19 18.16 241.94 19.62 241.33 20.95 C 239.68 23.27 235.52 23.38 232.98 23.12 C 230.47 22.96 229.45 21.35 228.13 19.49 C 223.89 19.50 219.65 19.48 215.41 19.51 C 215.27 21.64 217.12 23.13 218.54 24.44 C 222.27 27.57 227.34 28.01 232.00 28.42 C 238.33 28.56 244.11 29.09 249.85 25.87 C 253.03 24.36 256.36 20.96 255.58 17.17 C 254.78 13.29 251.00 11.57 247.51 10.76 C 242.71 10.10 237.80 10.02 232.97 9.98 C 231.56 10.00 230.13 9.14 229.30 8.04 C 228.93 6.60 230.75 5.24 232.04 5.08 C 236.75 4.41 241.33 4.28 244.07 8.81 C 248.08 8.77 252.08 8.78 256.09 8.81 C 255.26 5.18 252.15 3.34 248.95 2.00 C 245.45 0.74 241.40 0.65 237.73 0.10 L 236.95 0.00 L 350.00 0.00 L 350.00 113.00 L 0.00 113.00 L 0.00 0.00 Z" fill="#ffffff" />
<path d="M 233.30 0.00 L 236.95 0.00 L 237.73 0.10 C 241.40 0.65 245.45 0.74 248.95 2.00 C 252.15 3.34 255.26 5.18 256.09 8.81 C 252.08 8.78 248.08 8.77 244.07 8.81 C 241.33 4.28 236.75 4.41 232.04 5.08 C 230.75 5.24 228.93 6.60 229.30 8.04 C 230.13 9.14 231.56 10.00 232.97 9.98 C 237.80 10.02 242.71 10.10 247.51 10.76 C 251.00 11.57 254.78 13.29 255.58 17.17 C 256.36 20.96 253.03 24.36 249.85 25.87 C 244.11 29.09 238.33 28.56 232.00 28.42 C 227.34 28.01 222.27 27.57 218.54 24.44 C 217.12 23.13 215.27 21.64 215.41 19.51 C 219.65 19.48 223.89 19.50 228.13 19.49 C 229.45 21.35 230.47 22.96 232.98 23.12 C 235.52 23.38 239.68 23.27 241.33 20.95 C 241.94 19.62 240.19 18.16 238.97 17.97 C 233.41 17.18 226.62 17.85 221.00 16.03 C 218.87 15.42 217.02 13.84 215.87 11.97 C 214.76 9.29 216.05 5.96 218.35 4.30 C 222.59 1.10 228.22 0.60 233.30 0.00 Z" fill="#45597c" />
<path d="M 1.56 0.71 C 10.71 0.71 19.85 0.72 29.00 0.71 C 32.59 0.82 37.19 1.44 39.64 4.38 C 41.94 6.89 41.50 10.84 39.04 13.06 C 37.08 14.87 34.74 15.28 32.18 15.49 C 35.26 15.94 38.85 16.75 40.05 20.04 C 41.40 22.78 40.03 25.34 41.07 28.01 C 37.44 27.93 33.78 28.14 30.15 27.91 C 26.10 26.20 27.46 22.87 26.65 19.35 C 25.97 19.05 25.28 18.78 24.58 18.53 C 20.50 18.43 16.40 18.54 12.32 18.50 C 12.24 21.66 12.33 24.83 12.26 28.00 C 8.69 28.00 5.13 28.00 1.57 28.01 C 1.45 18.92 1.46 9.80 1.56 0.71 Z" fill="#45597c" />
<path d="M 59.17 1.22 C 65.94 -0.38 73.05 0.07 79.57 2.46 C 83.14 3.98 86.65 5.89 88.73 9.31 C 90.67 12.18 90.87 16.07 89.13 19.08 C 87.06 22.91 82.89 25.49 78.85 26.80 C 70.33 29.80 60.70 29.32 52.54 25.43 C 49.21 23.69 45.88 20.76 44.83 17.03 C 43.95 14.10 44.71 10.93 46.58 8.55 C 49.61 4.36 54.31 2.45 59.17 1.22 Z" fill="#45597c" />
<path d="M 93.57 0.99 C 104.04 1.00 114.54 1.00 125.01 0.99 C 127.54 1.08 130.42 1.92 131.89 4.15 C 133.44 6.85 132.94 10.57 130.72 12.75 C 129.30 13.76 127.71 14.07 126.05 14.46 C 128.27 14.95 130.29 15.38 131.71 17.35 C 133.03 19.50 133.21 22.60 131.83 24.76 C 130.19 27.13 126.74 28.04 124.01 28.01 C 113.86 27.99 103.71 28.00 93.57 28.01 C 93.45 19.03 93.45 9.97 93.57 0.99 Z" fill="#45597c" />
<path d="M 135.57 0.99 C 146.86 1.00 158.14 1.00 169.43 0.99 C 169.56 3.10 169.54 5.18 169.43 7.29 C 161.73 7.30 154.02 7.26 146.31 7.30 C 146.29 8.52 146.27 9.73 146.24 10.94 C 152.99 11.57 160.14 11.05 166.96 11.19 C 167.01 13.13 167.03 15.06 167.00 17.00 C 160.08 17.04 153.16 16.91 146.25 17.07 C 146.27 18.37 146.27 19.66 146.27 20.96 C 153.82 21.52 161.74 21.11 169.36 21.15 C 169.67 23.46 169.50 25.69 169.43 28.01 C 158.14 28.00 146.86 28.00 135.57 28.01 C 135.45 19.03 135.45 9.97 135.57 0.99 Z" fill="#45597c" />
<path d="M 172.56 0.71 C 181.71 0.71 190.85 0.72 200.00 0.71 C 203.59 0.82 208.19 1.44 210.64 4.38 C 212.94 6.89 212.50 10.84 210.04 13.07 C 208.20 14.80 206.02 15.09 203.62 15.47 C 206.68 16.24 209.79 16.73 211.05 20.04 C 212.40 22.78 211.03 25.34 212.07 28.01 C 208.44 27.93 204.78 28.14 201.15 27.91 C 197.10 26.20 198.46 22.87 197.65 19.35 C 196.97 19.05 196.28 18.78 195.58 18.53 C 191.50 18.43 187.40 18.54 183.32 18.50 C 183.24 21.66 183.33 24.83 183.26 28.00 C 179.69 28.00 176.13 28.00 172.57 28.01 C 172.45 18.92 172.46 9.80 172.56 0.71 Z" fill="#45597c" />
<path d="M 274.17 1.22 C 282.56 -0.75 292.51 0.29 299.76 5.21 C 303.58 7.82 306.31 12.26 305.00 17.00 C 303.53 21.96 298.54 25.30 293.84 26.80 C 285.33 29.80 275.69 29.32 267.54 25.43 C 264.21 23.69 260.88 20.76 259.83 17.03 C 258.95 14.10 259.71 10.93 261.58 8.55 C 264.61 4.36 269.32 2.45 274.17 1.22 Z" fill="#45597c" />
<path d="M 308.57 0.99 C 313.14 1.18 318.21 0.64 322.66 1.25 C 328.39 6.51 333.92 12.00 339.78 17.11 C 339.67 11.74 339.69 6.37 339.74 1.00 C 342.91 1.00 346.09 1.00 349.26 1.00 C 349.31 10.00 349.31 19.00 349.26 28.00 C 344.54 28.00 339.81 28.00 335.09 28.01 C 329.47 22.42 323.87 16.81 318.27 11.19 C 318.28 16.79 318.33 22.40 318.26 28.00 C 315.03 28.00 311.80 28.00 308.57 28.01 C 308.45 19.03 308.45 9.97 308.57 0.99 Z" fill="#45597c" />
<path d="M 12.49 6.76 C 17.63 6.92 22.83 6.58 27.96 6.93 C 30.38 8.14 30.92 11.24 28.08 12.45 C 22.85 12.59 17.60 12.43 12.37 12.52 C 12.31 10.56 12.09 8.71 12.49 6.76 Z" fill="#ffffff" />
<path d="M 64.49 7.66 C 68.84 6.62 74.60 7.82 77.37 11.61 C 79.14 14.39 78.18 17.74 75.61 19.63 C 71.16 22.73 64.64 22.81 60.09 19.88 C 57.79 18.39 56.49 15.85 57.13 13.10 C 58.47 10.05 61.30 8.28 64.49 7.66 Z" fill="#ffffff" />
<path d="M 104.37 6.47 C 109.55 6.72 114.92 6.08 120.04 6.86 C 122.81 6.95 122.69 10.98 120.03 11.16 C 114.87 11.31 109.69 11.13 104.51 11.25 C 104.22 9.70 104.17 8.11 104.37 6.47 Z" fill="#ffffff" />
<path d="M 183.49 6.76 C 188.63 6.92 193.83 6.58 198.96 6.93 C 201.38 8.14 201.92 11.24 199.08 12.45 C 193.85 12.59 188.60 12.43 183.37 12.52 C 183.31 10.55 183.08 8.71 183.49 6.76 Z" fill="#ffffff" />
<path d="M 279.49 7.66 C 283.84 6.62 289.60 7.82 292.37 11.61 C 294.14 14.39 293.18 17.74 290.60 19.63 C 286.16 22.73 279.64 22.81 275.09 19.88 C 272.79 18.39 271.49 15.84 272.13 13.10 C 273.47 10.05 276.30 8.28 279.49 7.66 Z" fill="#ffffff" />
<path d="M 104.27 17.10 C 109.17 16.91 114.12 17.00 119.03 17.04 C 120.11 17.06 122.08 17.68 122.00 19.04 C 122.33 20.85 120.54 21.72 119.02 21.71 C 114.12 21.72 109.22 21.72 104.32 21.70 C 104.29 20.17 104.22 18.63 104.27 17.10 Z" fill="#ffffff" />
<path d="M 0.97 34.66 C 1.94 34.39 2.95 34.28 4.00 34.33 C 119.18 34.40 234.51 34.27 349.68 34.40 C 349.43 45.99 349.34 57.53 349.69 69.12 L 349.28 69.89 C 233.30 69.75 117.11 69.96 1.14 69.79 C 1.36 58.05 1.68 46.40 0.97 34.66 Z" fill="#45597c" />
<path d="M 21.65 37.21 C 23.93 39.68 27.36 40.85 30.09 42.92 C 32.85 46.15 33.96 50.31 37.01 53.42 L 34.92 53.59 C 33.44 50.87 32.10 48.06 30.61 45.34 C 28.53 42.33 24.93 41.25 21.92 38.80 C 19.06 40.53 15.82 42.13 13.33 44.33 C 11.81 47.11 10.39 49.96 8.96 52.78 L 7.68 53.49 L 7.39 52.00 C 9.66 49.47 10.74 46.33 12.69 43.61 C 15.11 40.91 19.40 40.06 21.65 37.21 Z" fill="#ffffff" />
<path d="M 97.89 37.27 C 99.75 42.82 99.41 49.23 99.22 55.02 C 99.85 56.34 100.76 57.34 101.01 58.86 C 100.11 58.54 99.23 58.17 98.38 57.74 C 98.31 55.79 98.44 53.84 98.45 51.89 C 97.03 48.64 94.48 49.58 91.66 49.53 C 88.79 49.81 85.24 48.50 83.21 51.17 C 81.54 53.93 84.05 55.39 83.07 58.14 L 80.48 58.43 C 80.38 57.40 80.78 56.47 81.67 55.62 C 81.86 52.97 81.14 50.62 82.34 48.09 C 81.84 44.26 82.34 41.12 83.10 37.40 C 83.71 37.93 84.06 38.71 84.16 39.74 C 86.03 38.64 87.93 38.89 90.01 38.82 C 92.44 38.87 94.65 38.59 96.92 39.64 C 97.16 38.80 97.48 38.02 97.89 37.27 Z" fill="#ffffff" />
<path d="M 61.55 38.34 L 62.42 38.54 C 63.64 40.87 64.89 43.12 66.56 45.17 C 66.10 45.66 65.63 46.15 65.17 46.63 C 66.04 47.84 66.93 49.03 67.81 50.23 C 67.25 50.73 66.87 51.21 66.67 51.67 C 67.49 53.26 68.64 54.72 69.72 56.15 C 69.14 56.71 68.56 57.27 67.97 57.83 C 68.94 59.26 69.79 60.71 70.53 62.27 C 68.45 62.34 66.36 62.36 64.28 62.34 C 64.08 63.69 64.09 65.06 64.31 66.46 C 62.79 66.70 61.24 66.71 59.67 66.48 C 59.83 65.06 59.84 63.68 59.70 62.32 C 57.66 62.36 55.62 62.35 53.58 62.28 C 54.20 60.68 55.07 59.26 56.02 57.85 C 55.46 57.26 54.91 56.68 54.36 56.09 C 55.22 54.99 56.01 53.86 56.73 52.67 C 56.60 51.79 56.49 50.91 56.37 50.03 C 57.12 48.88 57.89 47.74 58.67 46.60 C 58.25 46.12 57.84 45.65 57.43 45.17 C 59.03 42.98 60.40 40.79 61.55 38.34 Z" fill="#ffffff" />
<path d="M 146.03 38.04 C 149.26 38.32 152.87 39.45 154.82 42.23 C 156.13 44.05 155.69 46.21 155.43 48.27 C 153.00 50.85 150.25 51.81 146.86 52.51 C 148.64 53.45 150.14 55.20 152.00 55.84 C 154.57 55.14 156.32 53.25 159.13 53.24 C 160.05 55.06 161.44 56.44 161.81 58.35 C 160.18 58.90 158.61 59.52 157.07 60.26 C 158.75 61.88 160.66 63.20 162.18 64.96 C 157.91 64.64 154.28 66.26 150.94 63.05 C 144.49 65.29 137.01 67.69 130.46 64.51 C 127.08 62.71 125.72 59.39 126.62 55.68 C 128.54 52.70 131.31 51.40 134.60 50.44 C 131.50 48.05 131.39 42.95 134.52 40.55 C 137.81 38.03 142.04 37.81 146.03 38.04 Z" fill="#ffffff" />
<path d="M 221.65 40.82 C 221.91 42.71 220.31 44.70 220.11 46.66 C 213.59 44.20 206.67 43.33 199.81 44.82 C 198.21 45.14 197.23 45.78 196.14 46.98 C 196.76 47.73 197.45 48.30 198.22 48.67 C 203.82 48.81 209.45 48.57 215.04 48.77 C 217.94 49.58 220.70 49.94 222.41 52.74 C 223.88 54.92 223.62 57.96 222.09 60.04 C 220.13 62.89 217.22 64.09 214.01 65.01 C 206.03 67.01 197.65 66.04 190.14 62.77 C 190.84 60.89 191.61 59.04 192.33 57.17 C 199.37 59.72 208.88 61.59 215.74 57.71 C 215.81 56.60 215.69 55.53 215.40 54.52 C 209.26 54.07 203.07 54.52 196.92 54.28 C 193.79 53.21 191.43 52.04 189.57 49.19 C 189.11 45.24 190.36 42.65 193.85 40.82 C 202.11 36.53 213.18 37.52 221.65 40.82 Z" fill="#ffffff" />
<path d="M 240.47 38.57 C 248.75 36.75 259.87 38.73 263.95 47.10 C 265.22 50.65 265.11 55.49 262.43 58.43 C 258.45 63.33 252.10 65.13 246.00 65.02 C 240.99 65.12 235.57 63.58 231.73 60.27 C 227.87 56.89 226.05 51.39 228.72 46.73 C 231.04 42.10 235.59 39.67 240.47 38.57 Z" fill="#ffffff" />
<path d="M 271.22 38.07 C 273.48 38.15 276.55 37.55 278.59 38.39 C 284.98 44.27 291.27 50.27 297.62 56.15 C 297.40 50.08 297.77 44.08 297.90 38.01 C 300.20 37.99 302.50 37.99 304.80 38.05 C 304.79 40.72 304.64 43.35 305.13 45.99 C 305.90 52.43 304.80 58.59 304.80 64.95 C 302.55 64.98 300.29 65.08 298.04 64.96 C 291.23 59.41 284.89 52.59 278.35 46.80 C 278.60 52.87 278.34 58.92 278.13 64.99 C 275.82 65.01 273.51 65.01 271.20 64.95 C 271.21 62.95 271.31 60.98 270.96 58.99 C 269.97 51.82 271.35 45.14 271.22 38.07 Z" fill="#ffffff" />
<path d="M 343.97 41.09 C 343.29 42.91 342.58 44.72 342.12 46.62 C 335.54 44.26 328.71 43.30 321.81 44.82 C 320.21 45.14 319.23 45.78 318.14 46.98 C 318.76 47.74 319.45 48.30 320.22 48.67 C 325.82 48.82 331.45 48.57 337.04 48.77 C 339.96 49.58 342.68 49.93 344.41 52.74 C 345.87 54.93 345.62 57.96 344.09 60.04 C 342.13 62.90 339.21 64.09 336.00 65.01 C 328.02 67.01 319.64 66.04 312.14 62.77 C 312.85 60.89 313.61 59.03 314.34 57.16 C 321.37 59.73 330.88 61.58 337.74 57.71 C 337.81 56.60 337.69 55.53 337.40 54.52 C 331.26 54.07 325.07 54.52 318.93 54.28 C 315.79 53.21 313.45 52.05 311.57 49.19 C 311.10 44.71 312.60 42.43 316.49 40.48 C 324.92 36.64 335.60 37.43 343.97 41.09 Z" fill="#ffffff" />
<path d="M 21.95 40.78 C 25.41 42.81 28.69 43.77 30.23 47.87 C 34.39 53.18 32.14 60.25 32.54 66.55 C 31.07 66.58 29.60 66.61 28.13 66.65 C 28.14 63.01 28.33 59.85 27.63 56.22 C 24.74 56.37 21.88 56.62 18.98 56.41 C 17.53 56.42 16.35 56.02 15.18 57.10 C 15.21 60.31 15.27 63.47 14.95 66.66 C 13.66 66.58 12.37 66.57 11.09 66.63 C 10.70 61.80 10.82 56.77 10.46 51.88 C 12.55 49.69 13.57 46.77 15.27 44.31 C 17.42 43.21 19.65 41.31 21.95 40.78 Z" fill="#ffffff" />
<path d="M 86.24 41.37 C 88.79 41.11 91.38 41.11 93.93 41.29 C 94.99 41.22 95.43 41.77 95.25 42.93 C 92.15 42.94 89.05 42.97 85.94 42.90 L 86.24 41.37 Z" fill="#45597c" />
<path d="M 96.77 45.09 C 96.70 46.34 96.77 47.63 96.37 48.82 C 92.25 48.13 88.51 48.43 84.40 48.78 C 84.51 47.48 84.26 45.94 84.75 44.71 C 88.49 44.47 93.21 43.89 96.77 45.09 Z" fill="#45597c" />
<path d="M 144.01 44.11 C 145.80 44.17 148.96 44.18 148.73 46.74 C 145.48 48.51 142.04 50.13 139.21 46.71 C 139.04 44.08 142.16 44.15 144.01 44.11 Z" fill="#45597c" />
<path d="M 241.47 44.71 C 245.66 43.59 251.72 43.76 255.05 46.94 C 257.35 48.62 256.73 51.92 256.41 54.38 C 253.48 58.89 247.84 59.18 243.00 58.63 C 239.29 57.95 234.99 55.36 235.48 51.02 C 235.55 47.60 238.51 45.64 241.47 44.71 Z" fill="#45597c" />
<path d="M 51.09 45.44 C 52.57 46.15 53.19 48.63 54.36 49.87 C 54.42 51.17 54.47 52.47 54.70 53.76 C 54.19 54.55 53.67 55.33 53.14 56.11 C 53.39 56.96 53.65 57.81 53.93 58.65 C 53.25 59.78 52.55 60.89 51.86 62.01 C 52.65 63.35 53.47 63.95 52.76 65.59 C 51.90 65.68 51.04 65.75 50.18 65.80 C 49.91 64.69 49.58 63.60 49.19 62.52 C 47.84 62.66 46.49 62.78 45.13 62.87 C 45.69 61.86 46.26 60.85 46.87 59.87 C 46.63 59.29 46.38 58.71 46.13 58.14 C 47.98 55.98 47.10 53.93 48.54 51.70 C 47.94 49.37 50.11 47.46 51.09 45.44 Z" fill="#ffffff" />
<path d="M 80.13 46.26 C 81.47 45.67 81.65 49.43 80.21 48.76 C 79.63 47.96 79.61 47.12 80.13 46.26 Z" fill="#ffffff" />
<path d="M 100.33 46.13 C 101.83 45.71 101.80 49.31 100.32 48.93 C 100.11 48.04 100.11 47.10 100.33 46.13 Z" fill="#ffffff" />
<path d="M 17.13 49.15 C 20.16 49.90 22.34 48.21 25.37 48.36 C 25.84 49.72 25.70 51.32 25.77 52.75 C 23.01 52.65 20.26 52.64 17.50 52.71 C 17.44 51.51 17.31 50.32 17.13 49.15 Z" fill="#45597c" />
<path d="M 84.35 51.26 C 86.03 51.41 87.34 51.34 88.95 50.76 C 91.78 50.20 94.17 51.27 96.91 51.30 C 96.50 53.91 96.79 56.49 96.72 59.11 L 95.57 59.48 C 95.66 57.00 95.64 54.52 95.65 52.04 C 93.67 51.88 92.37 50.43 92.05 53.41 C 93.03 53.36 94.02 53.32 95.00 53.28 C 95.33 55.08 92.45 54.13 91.45 54.20 C 91.64 55.87 91.40 57.50 91.77 59.15 L 89.42 59.28 C 89.51 57.59 89.61 55.89 89.69 54.19 C 88.69 54.39 87.75 54.35 86.88 54.06 C 87.46 52.91 89.35 53.20 89.97 52.03 C 88.66 51.29 86.86 52.28 85.45 52.47 C 85.02 53.13 84.61 53.78 84.21 54.45 C 84.25 53.39 84.30 52.32 84.35 51.26 Z" fill="#ffffff" />
<path d="M 139.03 54.19 C 141.14 55.62 143.30 57.07 145.15 58.85 C 141.79 59.53 138.68 60.23 135.22 59.66 C 134.11 59.46 133.25 58.62 133.48 57.43 C 134.63 55.24 136.91 55.08 139.03 54.19 Z" fill="#45597c" />
<path d="M 84.42 55.28 L 85.24 55.23 L 85.71 55.99 L 85.32 56.76 L 84.50 56.73 L 84.07 56.01 L 84.42 55.28 Z" fill="#ffffff" />
<path d="M 16.67 57.70 C 19.90 57.40 23.09 57.62 26.33 57.63 C 26.81 60.45 26.68 63.24 26.31 66.07 C 24.03 67.25 19.79 66.05 17.04 66.60 C 16.96 63.63 16.85 60.67 16.67 57.70 Z" fill="#ffffff" />
<path d="M 79.81 60.09 L 80.67 60.00 L 80.75 60.76 L 79.90 60.86 L 79.81 60.09 Z" fill="#ffffff" />
<path d="M 82.33 60.07 L 83.07 59.64 L 83.87 60.01 L 83.90 60.83 L 83.12 61.22 L 82.37 60.85 L 82.33 60.07 Z" fill="#ffffff" />
<path d="M 97.07 59.78 C 98.59 59.97 100.11 60.19 101.63 60.40 C 101.44 62.51 101.16 64.58 100.67 66.64 C 99.73 66.64 98.78 66.64 97.84 66.64 C 97.71 65.73 97.57 64.82 97.44 63.92 C 92.89 63.93 88.38 63.92 83.82 63.90 C 83.68 64.82 83.53 65.73 83.40 66.65 C 82.43 66.66 81.47 66.63 80.50 66.57 C 80.32 65.32 80.18 64.06 80.07 62.80 C 86.89 63.09 93.92 63.29 100.72 62.73 C 101.64 59.77 98.73 60.80 97.06 60.98 L 97.07 59.78 Z" fill="#ffffff" />
<path d="M 1.62 75.03 C 2.82 75.05 4.02 75.07 5.22 75.08 C 5.27 80.02 5.28 84.98 5.22 89.92 C 4.02 89.93 2.82 89.95 1.62 89.96 C 1.53 85.00 1.53 80.00 1.62 75.03 Z" fill="#45597c" />
<path d="M 9.62 75.02 C 10.99 75.20 13.20 74.61 14.12 75.88 C 17.32 79.02 20.41 82.43 23.88 85.26 C 23.92 81.86 23.82 78.46 23.92 75.06 C 25.15 75.07 26.38 75.10 27.62 75.13 C 27.52 80.04 27.52 84.96 27.62 89.87 C 26.43 89.94 25.24 89.95 24.06 89.91 C 20.26 86.80 17.10 82.76 13.21 79.78 C 13.23 83.16 13.31 86.54 13.22 89.92 C 12.02 89.93 10.82 89.95 9.62 89.96 C 9.53 84.99 9.53 80.00 9.62 75.02 Z" fill="#45597c" />
<path d="M 47.84 76.31 C 47.48 77.42 47.88 79.34 46.06 78.86 C 42.89 78.04 36.18 76.74 34.06 79.90 L 34.92 80.97 C 38.19 81.34 41.57 80.78 44.82 81.23 C 46.69 81.52 48.91 82.81 48.56 85.01 C 48.58 87.95 44.94 89.32 42.50 89.68 C 39.07 90.23 34.09 90.07 31.19 88.13 L 32.01 85.62 C 35.95 86.95 41.05 88.08 44.86 85.87 L 44.82 84.20 C 41.65 83.57 38.25 84.15 35.02 83.86 C 33.36 83.54 31.43 82.73 30.94 80.95 C 30.14 79.31 31.53 77.68 32.79 76.77 C 37.66 74.12 42.73 74.94 47.84 76.31 Z" fill="#45597c" />
<path d="M 51.79 75.07 C 52.97 75.07 54.15 75.06 55.33 75.05 C 55.53 78.07 55.08 81.27 55.66 84.24 C 57.28 88.06 63.67 88.02 65.35 84.24 C 65.87 81.26 65.38 78.07 65.62 75.03 C 66.82 75.05 68.02 75.07 69.22 75.08 C 69.06 78.82 70.07 83.57 67.74 86.70 C 64.50 91.07 56.49 91.08 53.26 86.70 C 50.84 83.64 51.98 78.81 51.79 75.07 Z" fill="#45597c" />
<path d="M 73.05 75.05 C 77.97 75.18 82.93 74.90 87.84 75.19 C 92.14 76.92 91.89 82.52 88.16 84.76 C 89.03 86.47 89.96 88.13 90.65 89.91 C 89.44 89.92 88.22 89.94 87.01 89.98 C 85.71 88.64 85.53 85.80 83.93 84.99 C 81.53 84.83 79.11 84.95 76.71 84.93 C 76.68 86.58 76.66 88.24 76.73 89.89 C 75.51 89.92 74.28 89.95 73.06 89.98 C 73.07 85.00 73.09 80.02 73.05 75.05 Z" fill="#45597c" />
<path d="M 106.73 75.16 C 109.43 80.11 112.17 85.08 115.05 89.94 C 113.75 89.94 112.46 89.93 111.16 89.93 C 110.65 89.04 110.15 88.13 109.68 87.22 C 106.27 86.56 102.51 87.08 99.02 86.94 C 98.53 87.85 98.06 88.76 97.61 89.68 C 96.25 89.94 94.88 90.03 93.47 89.96 C 96.21 85.19 98.91 80.38 101.60 75.58 C 102.53 74.50 105.34 75.28 106.73 75.16 Z" fill="#45597c" />
<path d="M 117.62 75.02 C 118.99 75.20 121.20 74.61 122.12 75.88 C 125.32 79.02 128.42 82.43 131.88 85.26 C 131.92 81.86 131.82 78.46 131.92 75.06 C 133.15 75.07 134.38 75.10 135.62 75.13 C 135.52 80.04 135.52 84.96 135.62 89.87 C 134.43 89.94 133.24 89.95 132.05 89.91 C 128.26 86.79 125.10 82.77 121.21 79.78 C 121.23 83.16 121.30 86.54 121.22 89.92 C 120.02 89.93 118.82 89.95 117.62 89.96 C 117.53 84.99 117.53 80.00 117.62 75.02 Z" fill="#45597c" />
<path d="M 155.53 76.48 C 156.43 77.08 157.89 77.80 158.03 78.97 C 157.08 79.42 156.13 79.87 155.19 80.32 C 152.31 77.55 147.64 77.05 144.37 79.36 C 142.43 80.95 142.35 84.06 144.39 85.60 C 147.78 88.06 152.54 87.42 155.37 84.39 C 156.32 84.98 158.34 85.27 157.87 86.78 C 153.90 90.70 146.55 91.00 142.04 87.91 C 138.49 85.62 138.22 80.18 141.47 77.51 C 145.27 74.46 151.29 74.30 155.53 76.48 Z" fill="#45597c" />
<path d="M 161.61 75.05 C 167.48 75.10 173.35 75.06 179.23 75.07 C 179.24 76.02 179.24 76.98 179.22 77.93 C 174.56 78.01 169.86 77.75 165.21 78.07 C 165.22 79.02 165.22 79.98 165.21 80.93 C 169.34 81.29 173.49 80.90 177.63 81.16 C 177.62 82.05 177.62 82.95 177.63 83.85 C 173.48 84.10 169.34 83.71 165.21 84.07 C 165.22 85.02 165.22 85.98 165.21 86.93 C 170.07 87.26 174.98 86.97 179.86 87.09 C 179.85 88.03 179.85 88.97 179.85 89.91 C 173.77 89.96 167.69 89.89 161.61 89.95 C 161.54 84.99 161.53 80.01 161.61 75.05 Z" fill="#45597c" />
<path d="M 211.13 76.17 C 211.78 76.64 211.69 77.59 210.84 79.01 C 206.37 78.20 202.49 76.87 198.09 79.15 C 197.69 81.79 200.33 80.85 202.00 81.09 C 205.39 81.24 208.57 80.34 211.44 82.51 C 213.46 84.72 211.99 87.53 209.63 88.63 C 205.00 90.69 199.94 90.14 195.24 88.64 C 195.02 87.12 195.07 85.97 196.98 86.06 C 200.69 87.12 204.29 87.66 208.02 86.28 C 208.59 85.89 208.84 85.21 208.76 84.23 C 204.33 83.15 199.21 85.22 195.55 82.48 C 193.72 80.36 194.49 78.08 196.65 76.66 C 201.36 74.24 206.20 74.90 211.13 76.17 Z" fill="#45597c" />
<path d="M 215.78 75.07 C 221.64 75.06 227.51 75.11 233.37 75.04 C 233.45 76.03 233.45 77.00 233.37 77.96 C 228.72 78.03 223.98 77.65 219.36 78.15 C 219.37 79.05 219.37 79.95 219.36 80.85 C 223.48 81.36 227.71 80.93 231.85 81.09 C 231.85 82.03 231.85 82.97 231.85 83.91 C 227.71 84.07 223.48 83.64 219.36 84.15 C 219.37 85.05 219.37 85.95 219.36 86.85 C 224.23 87.37 229.22 86.92 234.11 87.08 C 234.10 88.03 234.10 88.97 234.11 89.92 C 228.00 89.94 221.89 89.92 215.78 89.93 C 215.73 84.98 215.73 80.02 215.78 75.07 Z" fill="#45597c" />
<path d="M 237.61 75.05 C 242.08 75.12 246.56 75.03 251.03 75.08 C 253.69 75.15 255.76 77.28 255.50 80.01 C 255.67 82.33 254.04 83.29 252.73 84.88 C 253.60 86.54 254.40 88.24 255.16 89.95 C 253.86 89.94 252.55 89.92 251.25 89.90 C 250.51 88.23 249.72 86.59 248.91 84.96 C 246.35 84.90 243.79 84.85 241.23 85.04 C 241.27 86.66 241.24 88.29 241.22 89.92 C 240.02 89.93 238.82 89.95 237.62 89.96 C 237.53 85.00 237.54 80.01 237.61 75.05 Z" fill="#45597c" />
<path d="M 257.99 75.04 C 259.32 75.05 260.65 75.07 261.97 75.08 C 264.04 78.87 265.67 82.93 267.94 86.60 C 270.25 82.91 271.75 78.75 274.01 75.04 C 275.34 75.06 276.68 75.07 278.02 75.05 C 275.40 79.84 272.79 84.72 270.58 89.71 C 268.87 90.04 267.14 90.06 265.43 89.71 C 263.05 84.78 260.47 79.92 257.99 75.04 Z" fill="#45597c" />
<path d="M 280.62 75.04 C 281.82 75.05 283.02 75.07 284.22 75.08 C 284.27 80.02 284.27 84.98 284.22 89.92 C 283.02 89.93 281.82 89.95 280.62 89.96 C 280.53 85.00 280.53 80.00 280.62 75.04 Z" fill="#45597c" />
<path d="M 304.53 76.48 C 305.43 77.08 306.89 77.80 307.03 78.97 C 306.08 79.42 305.13 79.87 304.19 80.32 C 301.30 77.55 296.64 77.05 293.37 79.36 C 291.43 80.95 291.35 84.06 293.39 85.60 C 296.78 88.06 301.54 87.42 304.37 84.39 C 305.32 84.98 307.33 85.27 306.87 86.78 C 302.90 90.70 295.55 91.00 291.04 87.91 C 287.49 85.62 287.22 80.18 290.47 77.51 C 294.27 74.46 300.29 74.30 304.53 76.48 Z" fill="#45597c" />
<path d="M 310.61 75.05 C 316.48 75.10 322.36 75.06 328.23 75.07 C 328.24 76.02 328.24 76.98 328.22 77.93 C 323.56 78.01 318.86 77.75 314.21 78.07 C 314.22 79.02 314.22 79.98 314.21 80.93 C 318.34 81.29 322.49 80.90 326.63 81.16 C 326.62 82.05 326.62 82.95 326.63 83.84 C 322.48 84.10 318.34 83.72 314.21 84.07 C 314.22 85.02 314.22 85.98 314.21 86.93 C 319.07 87.26 323.98 86.97 328.86 87.09 C 328.85 88.03 328.85 88.97 328.85 89.91 C 322.77 89.96 316.69 89.89 310.61 89.95 C 310.54 84.99 310.53 80.01 310.61 75.05 Z" fill="#45597c" />
<path d="M 348.13 76.17 C 348.78 76.64 348.69 77.59 347.84 79.01 C 343.37 78.21 339.49 76.87 335.09 79.15 C 334.69 81.78 337.33 80.85 339.00 81.09 C 342.39 81.24 345.57 80.34 348.44 82.51 C 350.46 84.72 348.99 87.53 346.63 88.63 C 342.00 90.69 336.94 90.14 332.24 88.64 C 332.03 87.12 332.07 85.96 333.98 86.06 C 337.69 87.12 341.29 87.66 345.02 86.28 C 345.59 85.89 345.84 85.21 345.76 84.23 C 341.33 83.15 336.21 85.22 332.55 82.48 C 330.72 80.36 331.49 78.08 333.65 76.66 C 338.36 74.24 343.20 74.90 348.13 76.17 Z" fill="#45597c" />
<path d="M 76.72 77.92 C 79.78 77.98 82.88 77.79 85.94 78.02 C 88.04 77.92 87.92 81.92 85.92 81.98 C 82.87 82.22 79.78 82.01 76.72 82.08 C 76.67 80.69 76.67 79.31 76.72 77.92 Z" fill="#ffffff" />
<path d="M 104.43 78.18 C 105.45 80.16 106.52 82.08 107.73 83.94 C 105.45 84.13 103.18 84.11 100.90 84.03 C 102.01 82.09 102.98 79.89 104.43 78.18 Z" fill="#ffffff" />
<path d="M 241.25 78.08 C 244.38 77.81 247.77 77.86 250.91 78.02 C 252.42 78.78 251.95 81.01 250.95 82.07 C 247.68 82.04 244.49 82.20 241.23 81.95 C 241.21 80.66 241.22 79.37 241.25 78.08 Z" fill="#ffffff" />
<path d="M 7.00 93.00 C 118.67 93.00 230.34 93.00 342.00 93.00 L 342.00 94.00 C 230.33 94.00 118.67 94.00 7.00 94.00 L 7.00 93.00 Z" fill="#45597c" />
<path d="M 5.14 97.37 C 7.41 96.92 10.24 96.63 12.39 97.62 C 14.18 98.54 13.75 100.29 14.01 101.98 C 15.18 102.35 16.38 102.53 17.62 102.52 C 17.68 103.61 17.07 104.78 15.79 106.03 L 17.04 106.07 C 18.34 103.54 19.78 101.70 22.91 101.99 C 23.02 103.10 23.14 104.20 23.26 105.30 C 25.38 104.75 25.09 101.71 27.85 102.43 C 27.36 103.98 26.12 104.81 25.10 105.98 C 27.48 105.66 28.83 102.92 31.02 101.86 C 31.90 103.47 29.72 105.01 28.92 106.27 C 29.57 106.79 30.25 107.29 30.94 107.75 C 29.93 108.25 28.92 108.75 27.91 109.25 C 27.51 108.57 27.13 107.88 26.78 107.18 C 26.18 107.52 25.57 107.86 24.97 108.20 C 24.52 107.55 24.07 106.90 23.61 106.25 C 22.34 106.84 21.07 107.43 19.85 108.11 C 18.93 107.81 18.06 107.43 17.24 106.98 C 16.56 107.41 15.85 107.79 15.12 108.12 C 13.13 107.12 14.30 106.09 14.79 104.61 C 13.69 104.99 13.02 104.71 11.96 104.37 C 9.53 105.71 7.83 106.10 5.03 106.06 C 3.73 107.24 4.42 109.15 1.84 109.14 C 2.44 107.39 3.21 105.90 2.90 103.98 C 5.32 102.80 6.25 102.04 7.37 99.51 C 5.64 99.73 3.94 100.10 2.26 100.63 C 2.20 98.91 3.53 97.67 5.14 97.37 Z" fill="#45597c" />
<path d="M 347.91 97.12 C 348.19 100.20 343.91 103.29 344.96 106.92 C 344.84 107.59 344.18 107.94 342.99 107.99 C 342.97 104.25 344.40 101.22 345.93 97.91 C 346.08 97.10 346.74 96.84 347.91 97.12 Z" fill="#45597c" />
<path d="M 40.56 98.49 C 40.40 101.27 37.11 103.40 36.93 106.17 C 37.78 106.40 38.54 106.05 39.21 105.12 C 40.26 102.15 41.93 99.19 45.01 97.97 C 45.59 102.02 41.40 103.08 40.93 106.20 C 44.53 107.09 44.77 101.41 48.22 102.20 C 47.45 103.50 46.67 104.81 45.87 106.12 C 47.56 105.16 48.83 103.43 50.28 102.13 C 51.37 103.45 49.88 104.27 51.60 105.73 C 49.49 107.43 47.86 110.76 45.25 111.44 C 45.47 110.35 45.78 109.28 46.18 108.23 C 45.37 107.81 44.55 107.40 43.74 106.97 C 42.76 107.32 41.82 107.72 40.92 108.19 C 40.26 107.74 39.60 107.29 38.94 106.84 C 38.04 107.32 37.10 107.75 36.13 108.14 C 35.53 107.29 34.86 106.49 34.12 105.75 C 34.64 105.14 35.14 104.52 35.61 103.88 C 34.70 104.22 33.81 104.64 32.94 105.13 C 33.60 105.71 34.25 106.28 34.90 106.85 C 33.53 107.49 32.01 107.59 30.34 107.15 C 30.56 104.80 33.60 102.34 35.98 102.06 C 38.19 102.01 38.16 97.74 40.56 98.49 Z" fill="#45597c" />
<path d="M 63.24 97.81 C 63.53 100.50 59.15 102.72 58.07 105.01 C 59.50 104.18 60.72 102.81 62.44 102.82 C 62.48 103.90 61.97 104.97 60.90 106.04 C 62.53 106.58 62.83 104.70 63.81 103.80 C 64.89 102.42 66.38 102.12 68.03 101.87 C 68.33 102.87 68.63 103.87 68.93 104.87 C 69.67 104.11 70.40 103.34 71.13 102.56 C 71.63 102.88 72.13 103.20 72.63 103.51 C 73.67 102.79 74.77 102.28 75.93 101.98 C 76.01 103.25 75.39 104.32 74.08 105.20 C 74.45 105.76 74.82 106.31 75.19 106.86 C 74.44 107.32 73.69 107.79 72.95 108.27 C 72.36 107.69 71.94 106.95 71.68 106.07 C 71.17 106.65 70.65 107.22 70.13 107.79 C 67.89 105.57 67.16 107.27 64.94 108.22 C 64.18 107.75 63.46 107.23 62.78 106.66 C 61.82 107.08 60.89 107.57 60.01 108.11 C 58.39 106.67 57.95 107.07 55.97 107.56 C 55.89 105.66 56.00 104.64 57.20 103.15 C 58.75 101.18 60.74 98.51 63.24 97.81 Z" fill="#45597c" />
<path d="M 314.97 97.92 C 315.71 99.93 314.42 100.92 313.54 102.54 C 312.25 104.54 311.19 106.55 310.64 108.89 C 307.12 107.31 310.24 103.80 311.59 101.80 C 311.50 100.97 311.40 100.14 311.30 99.31 C 312.50 98.76 313.71 98.31 314.97 97.92 Z" fill="#45597c" />
<path d="M 323.89 98.00 C 325.86 99.23 324.32 100.18 324.96 101.97 C 322.87 104.28 320.94 107.74 318.00 108.94 C 317.77 106.51 319.87 107.02 320.31 105.22 C 318.45 104.99 316.88 104.15 316.98 102.07 C 317.94 99.68 321.41 97.85 323.89 98.00 Z" fill="#45597c" />
<path d="M 334.09 98.06 C 334.23 99.05 333.78 100.05 332.76 101.06 C 330.75 100.49 328.90 99.08 327.87 101.87 L 330.98 101.40 C 330.28 103.11 330.29 103.97 330.68 105.67 C 329.97 107.88 326.32 109.08 324.89 106.92 L 325.88 104.40 C 326.62 105.13 327.28 105.88 327.86 106.74 C 328.68 106.22 329.02 105.68 328.89 105.11 C 327.73 103.87 325.88 102.33 326.42 100.42 C 327.49 97.94 331.85 97.88 334.09 98.06 Z" fill="#45597c" />
<path d="M 340.91 98.00 C 342.50 98.62 341.99 101.36 341.64 102.63 C 339.63 104.65 337.85 107.93 335.12 108.91 C 334.92 106.64 336.97 106.95 337.44 105.21 C 335.43 104.93 334.17 104.27 334.04 102.11 C 335.24 99.75 338.27 97.89 340.91 98.00 Z" fill="#45597c" />
<path d="M 9.27 99.20 C 10.31 99.35 11.34 99.62 12.34 100.03 C 13.02 102.28 8.98 104.23 7.08 104.05 C 7.57 102.30 8.09 100.63 9.27 99.20 Z" fill="#ffffff" />
<path d="M 92.97 100.17 C 93.59 101.98 92.17 102.96 90.73 101.78 C 91.28 100.28 92.03 99.74 92.97 100.17 Z" fill="#45597c" />
<path d="M 174.72 99.85 L 175.11 102.26 C 176.65 102.04 177.96 100.85 179.31 100.07 C 181.07 105.55 176.26 102.04 175.94 107.12 C 178.69 106.46 179.46 104.28 181.14 102.31 C 181.64 102.76 182.14 103.22 182.64 103.67 C 183.61 103.09 184.70 101.84 185.89 101.98 L 186.28 104.05 C 187.36 102.77 188.47 102.22 189.64 102.39 C 189.57 103.48 189.03 104.43 188.02 105.26 C 188.43 105.79 188.83 106.32 189.24 106.84 C 187.21 107.76 186.24 109.35 185.67 106.04 C 184.69 106.95 183.86 107.90 182.50 108.23 C 182.51 107.22 182.52 106.20 182.55 105.19 C 181.95 106.11 181.33 107.01 180.73 107.93 C 179.91 107.68 179.10 107.41 178.30 107.11 C 177.26 107.88 176.21 108.56 175.00 109.05 C 174.58 108.39 174.16 107.74 173.73 107.08 C 172.91 107.49 172.06 107.83 171.17 108.12 C 170.46 107.39 169.73 106.67 168.98 105.96 C 170.50 104.58 171.58 101.96 173.92 102.29 C 173.43 103.63 172.65 104.87 171.57 106.02 C 172.70 106.18 173.82 105.82 174.93 104.95 C 174.87 103.94 174.87 102.94 174.94 101.94 L 172.83 102.13 C 172.97 100.96 173.60 100.19 174.72 99.85 Z" fill="#45597c" />
<path d="M 207.84 100.12 C 208.14 100.97 208.43 101.83 208.71 102.69 C 206.86 104.46 204.95 103.82 204.94 107.13 C 206.05 106.66 207.03 105.99 208.01 105.29 C 208.17 107.23 205.14 108.86 203.44 108.77 C 203.18 107.91 202.86 107.07 202.48 106.25 C 201.76 107.12 200.94 107.76 200.02 108.16 C 199.31 107.89 198.90 107.10 198.77 105.79 C 198.13 106.41 197.47 107.03 196.82 107.65 C 194.38 106.13 193.45 108.39 191.19 107.94 C 190.43 107.31 189.68 106.66 188.96 105.98 C 190.22 104.61 191.39 102.94 193.11 102.15 C 194.67 101.68 195.53 101.97 195.70 103.02 C 194.89 104.88 192.71 104.58 191.88 106.24 C 195.29 106.61 195.64 103.87 198.05 102.38 C 198.57 102.78 199.09 103.17 199.61 103.57 C 200.63 102.64 201.76 102.14 202.99 102.08 C 202.66 103.40 201.94 104.72 200.84 106.05 C 201.84 105.63 202.83 105.21 203.81 104.77 C 201.77 102.00 206.29 101.61 207.84 100.12 Z" fill="#45597c" />
<path d="M 217.97 100.04 C 217.92 101.55 218.14 102.74 216.66 103.62 C 214.88 104.08 214.10 105.34 213.94 107.11 C 214.69 106.83 215.42 106.52 216.14 106.16 C 217.72 103.74 218.86 102.08 222.00 101.85 C 222.44 103.36 222.77 104.68 223.86 105.88 C 222.57 106.52 221.29 107.17 220.01 107.83 C 219.60 106.65 219.48 105.38 219.66 104.04 C 218.89 104.93 218.73 106.04 218.10 106.99 C 216.37 107.23 215.27 107.81 213.82 108.70 C 212.44 109.45 212.07 107.41 211.48 106.59 C 212.69 105.27 213.32 104.33 213.63 102.51 C 215.03 101.63 216.59 101.00 217.97 100.04 Z" fill="#45597c" />
<path d="M 256.92 100.03 L 257.02 101.06 C 255.26 102.48 254.92 104.55 253.09 105.98 L 254.99 106.09 C 256.72 103.86 258.27 102.05 261.31 101.88 C 261.94 105.84 258.55 103.61 257.07 105.81 C 261.45 108.26 263.73 100.05 267.63 102.37 C 267.64 104.90 264.93 104.38 263.86 106.17 C 265.00 106.15 266.13 106.10 267.27 106.04 C 266.72 107.56 264.48 108.09 263.04 108.07 C 262.61 107.37 262.17 106.69 261.71 106.00 C 259.48 107.50 258.32 109.18 255.77 106.88 C 254.88 107.33 253.99 107.77 253.09 108.20 C 252.29 107.51 251.57 106.73 250.94 105.84 C 251.96 104.52 253.07 103.37 254.30 102.25 C 255.14 101.35 255.42 99.82 256.92 100.03 Z" fill="#45597c" />
<path d="M 282.02 100.17 L 282.93 100.02 C 283.35 101.90 280.46 104.34 279.60 106.06 C 283.26 106.45 282.47 103.58 285.08 102.45 C 287.20 104.76 287.21 102.05 289.96 102.03 C 289.98 103.28 289.36 104.34 288.08 105.21 C 288.46 105.76 288.83 106.31 289.21 106.86 C 288.51 107.34 287.78 107.77 287.03 108.15 C 286.32 107.91 285.90 107.12 285.78 105.79 C 285.10 106.42 284.42 107.06 283.74 107.68 C 283.15 107.45 282.55 107.22 281.96 106.99 C 281.06 107.50 280.11 107.85 279.14 108.06 C 278.56 107.46 277.98 106.87 277.38 106.29 C 275.71 109.33 269.87 107.86 272.04 104.40 C 272.93 105.09 273.90 105.63 274.93 106.02 C 275.09 105.08 274.79 104.14 274.05 103.20 C 274.69 102.47 275.33 101.73 275.97 100.99 C 276.89 102.15 277.26 103.67 277.09 105.54 C 279.16 104.27 280.55 101.88 282.02 100.17 Z" fill="#45597c" />
<path d="M 323.04 101.75 C 321.72 102.51 320.58 103.46 319.06 103.64 C 319.07 102.77 319.34 102.19 319.88 101.90 C 321.20 101.43 322.79 99.15 323.04 101.75 Z" fill="#ffffff" />
<path d="M 340.36 101.59 C 339.45 102.39 337.41 103.80 336.16 103.56 C 335.37 102.08 340.65 99.05 340.36 101.59 Z" fill="#ffffff" />
<path d="M 81.10 101.91 C 81.44 103.79 82.81 106.32 80.58 107.47 C 78.94 106.59 78.12 106.11 78.63 104.01 C 78.02 104.62 77.78 105.30 77.91 106.04 C 77.14 106.49 76.29 106.77 75.35 106.87 C 74.96 104.24 78.67 101.81 81.10 101.91 Z" fill="#45597c" />
<path d="M 87.66 102.57 C 87.88 103.57 87.31 104.48 85.97 105.31 C 86.37 105.85 86.77 106.39 87.17 106.93 C 86.52 107.61 85.83 107.98 85.10 108.02 C 83.04 107.34 84.48 105.71 84.82 104.36 C 83.95 104.98 83.07 105.59 82.19 106.20 L 82.39 104.07 C 83.77 101.08 85.12 102.49 87.66 102.57 Z" fill="#45597c" />
<path d="M 104.81 101.95 C 106.73 103.77 105.26 104.82 105.80 106.87 C 103.55 108.30 102.23 111.44 99.71 112.16 C 99.06 110.18 102.31 108.75 103.19 107.16 C 102.19 107.57 101.17 107.85 100.13 107.99 C 99.78 106.97 99.57 105.93 99.48 104.89 C 101.15 103.61 102.58 102.07 104.81 101.95 Z" fill="#45597c" />
<path d="M 116.94 102.00 C 117.02 103.13 117.09 104.26 117.13 105.40 C 118.52 104.19 119.58 101.77 121.73 102.49 C 121.21 104.09 119.76 104.76 118.88 106.09 C 121.23 105.72 122.76 102.88 124.91 101.87 C 126.19 103.81 122.93 104.89 122.88 107.04 C 126.01 106.33 124.92 103.56 127.05 102.07 C 128.27 102.28 129.49 102.45 130.73 102.58 C 130.64 103.70 130.06 104.73 128.98 105.70 C 130.00 105.63 131.03 105.59 132.06 105.56 C 130.95 106.14 128.60 108.91 127.37 107.74 L 126.82 105.13 C 125.43 106.70 124.06 108.39 122.02 109.14 C 121.34 108.93 120.94 108.20 120.82 106.97 C 118.96 108.13 118.44 108.90 117.67 106.19 C 115.95 106.78 113.14 109.42 111.85 106.95 C 110.54 103.95 114.34 101.60 116.94 102.00 Z" fill="#45597c" />
<path d="M 141.31 101.88 C 141.94 105.83 138.57 103.62 137.07 105.81 C 141.49 108.07 142.04 101.13 146.92 102.00 C 147.03 103.12 147.14 104.24 147.26 105.37 C 148.43 104.54 149.25 103.44 150.17 102.35 C 150.66 102.79 151.15 103.23 151.64 103.67 C 152.61 103.09 153.70 101.84 154.89 101.98 L 155.28 104.05 C 156.35 102.77 157.47 102.22 158.64 102.39 C 158.57 103.48 158.03 104.43 157.02 105.26 C 157.42 105.79 157.83 106.32 158.23 106.84 C 156.20 107.77 155.24 109.34 154.67 106.04 C 153.69 106.95 152.86 107.90 151.50 108.23 C 151.51 107.22 151.53 106.21 151.56 105.20 C 150.83 106.37 150.07 107.45 148.92 108.24 C 148.49 107.57 148.06 106.91 147.62 106.24 C 146.06 106.97 144.70 107.77 143.04 108.15 C 142.49 107.54 141.93 106.93 141.37 106.32 C 139.73 107.31 137.55 109.43 136.15 106.86 C 134.94 103.85 138.99 102.06 141.31 101.88 Z" fill="#45597c" />
<path d="M 165.89 101.95 L 166.27 104.05 C 167.27 102.90 168.35 102.31 169.53 102.27 C 169.64 103.38 169.14 104.38 168.02 105.25 C 168.42 105.78 168.83 106.31 169.24 106.84 C 167.21 107.76 166.24 109.35 165.67 106.04 C 164.69 106.95 163.86 107.90 162.50 108.23 C 162.51 107.22 162.53 106.21 162.56 105.19 C 161.87 106.05 161.20 107.80 160.05 107.95 C 159.26 107.53 158.59 106.84 158.04 105.88 C 159.10 104.72 160.14 103.54 161.18 102.35 C 161.67 102.79 162.15 103.23 162.64 103.67 C 163.62 103.06 164.70 101.92 165.89 101.95 Z" fill="#45597c" />
<path d="M 231.97 100.99 C 232.89 102.15 233.26 103.66 233.09 105.54 C 235.03 104.54 235.54 102.43 238.03 101.96 C 240.70 102.74 243.06 102.01 245.78 102.94 C 246.60 102.52 247.43 102.12 248.27 101.74 C 249.27 103.24 246.83 104.71 246.09 105.98 C 249.08 106.46 248.42 102.31 251.39 101.84 C 251.44 103.74 250.32 105.00 251.00 106.99 C 249.02 106.55 248.34 107.03 246.77 108.10 C 246.11 107.68 245.46 107.27 244.81 106.85 C 243.93 107.31 243.04 107.72 242.13 108.11 C 240.39 106.99 241.41 106.12 241.86 104.64 C 239.43 105.01 238.14 103.75 235.93 106.00 C 237.07 106.33 238.32 106.19 239.69 105.59 C 239.51 107.87 234.81 109.29 233.86 106.23 C 232.04 107.38 230.79 108.92 228.60 107.40 C 227.29 106.68 227.10 105.68 228.04 104.40 C 228.93 105.09 229.90 105.63 230.93 106.02 C 231.09 105.08 230.79 104.14 230.05 103.20 C 230.69 102.47 231.33 101.73 231.97 100.99 Z" fill="#45597c" />
<path d="M 295.32 101.88 C 295.90 105.85 292.59 103.61 291.07 105.81 C 292.84 106.85 294.43 106.10 295.48 104.52 C 296.86 102.55 298.55 101.69 300.97 102.07 C 301.19 105.31 298.26 104.20 296.92 106.13 C 298.12 106.33 299.36 106.13 300.67 105.54 C 300.45 107.92 296.49 108.85 294.91 106.89 C 293.79 107.27 292.37 108.40 291.19 107.94 C 290.41 107.28 289.66 106.60 288.93 105.90 C 290.56 103.79 292.54 102.05 295.32 101.88 Z" fill="#45597c" />
<path d="M 89.94 102.43 C 90.49 102.94 91.05 103.45 91.61 103.95 L 89.59 105.99 C 91.81 107.02 92.77 103.62 94.06 102.42 C 94.58 102.80 95.10 103.17 95.61 103.55 C 96.65 102.77 97.77 102.26 98.97 102.03 C 99.01 103.32 98.36 104.39 97.00 105.26 C 97.53 105.77 98.05 106.28 98.57 106.80 C 97.68 107.26 96.80 107.74 95.92 108.23 C 95.36 107.67 94.96 106.97 94.71 106.12 C 93.39 107.55 93.40 107.65 91.35 107.29 C 89.12 108.61 88.74 107.68 86.99 106.24 C 88.01 105.00 88.99 103.73 89.94 102.43 Z" fill="#45597c" />
<path d="M 20.83 104.31 C 20.88 105.38 20.74 107.46 19.14 106.69 C 18.25 105.71 19.67 103.91 20.83 104.31 Z" fill="#ffffff" />
<path d="M 103.91 104.02 C 104.17 104.98 101.91 106.95 101.04 106.20 C 100.76 105.03 102.91 103.80 103.91 104.02 Z" fill="#ffffff" />
<path d="M 114.83 104.31 C 114.88 105.38 114.74 107.46 113.14 106.69 C 112.25 105.71 113.67 103.91 114.83 104.31 Z" fill="#ffffff" />
<path d="M 144.83 104.31 C 144.88 105.38 144.74 107.46 143.14 106.69 C 142.25 105.71 143.67 103.91 144.83 104.31 Z" fill="#ffffff" />
<path d="M 245.12 104.11 C 245.32 104.95 244.94 105.68 243.97 106.28 C 241.94 106.06 244.02 103.82 245.12 104.11 Z" fill="#ffffff" />
</svg>